<svg xmlns="http://www.w3.org/2000/svg" xmlns:xlink="http://www.w3.org/1999/xlink" width="112" height="112" viewBox="0 0 112 112">
  <defs>
    <clipPath id="clip-path">
      <circle id="楕円形_28" data-name="楕円形 28" cx="56" cy="56" r="56" transform="translate(16 16)" fill="#d5d5d5"/>
    </clipPath>
    <clipPath id="clip-path-2">
      <rect id="長方形_9314" data-name="長方形 9314" width="88.681" height="101.056" fill="none"/>
    </clipPath>
  </defs>
  <g id="_achievements_img07" data-name=" achievements_img07" transform="translate(-16 -16)">
    <circle id="楕円形_27" data-name="楕円形 27" cx="56" cy="56" r="56" transform="translate(16 16)" fill="#fff"/>
    <g id="マスクグループ_38" data-name="マスクグループ 38" clip-path="url(#clip-path)">
      <g id="グループ_24098" data-name="グループ 24098" transform="translate(27.66 27)">
        <path id="パス_109690" data-name="パス 109690" d="M.691,453.329l.1.044-.006-.044Z" transform="translate(-0.538 -352.379)" fill="#6ec8dc"/>
        <path id="パス_109691" data-name="パス 109691" d="M33.915,266.815l-.537-.259-.482.4-.515.116-.564-.087-.516.117-.5.194-.536.035-.5.184-.492.217-.544,0-.517.113-.507.154-.523.09-.485.242-.562-.066-.456.361-.547,0-.468.313-.573-.106-.5.194-.475.277-.507.151-.558-.043-.526.077-.52.1-.489.226-.489.224-.531.069-.527.085-.53.077-.492.215-.491.217-.517.125-.516.128-.5.2-.546.023-.5.163-.515.13-.483.236-.5.177-.54.05-.5.179-.462.289-.571,0-.431.389-.517.151-.526.135-.43.357-.572.044L8.4,273.8l-.542.127L7.5,274.4l-.525.167-.511.2-.445.309-.356.429-.521.207-.411.353-.381.385-.337.427-.313.444-.511.26-.311.444-.167.549-.4.367-.288.452-.254.471-.435.377-.035.583-.377.421-.112.534-.122.524-.136.517-.106.522-.14.516-.168.519-.122.533.029.543.1.533.117.528-.05.528-.078.528-.05.528-.044.528.007.528.037.528-.027.528.2.529-.1.528.016.528.09.528-.1.529.052.528-.142.528-.042.528.066.529L.01,295.5l.027.528L0,296.553l.022.528.255.527-.037.528-.116.529-.016.528.132.528-.116.528-.1.529.08.528-.038.529-.015.529.137.529.069.529-.194.529,0,.529.211.528-.117.529.147.53-.1.53-.182.53.155.53.065.487,88.28.106.147-.062-.087-.528.027-.528.027-.528-.03-.528-.033-.528.074-.528-.279-.528.008-.528.005-.528.008-.528.027-.528.233-.528-.028-.529-.016-.528.061-.528-.031-.528-.235-.528.093-.528-.112-.528.291-.528-.132-.528-.156-.527.131-.528-.131-.528.186-.528-.115-.528.026-.528.172-.529-.069-.528-.147-.529-.051-.528.037-.529.207-.529-.194-.529L88.4,289.7l-.013-.528.158-.529.072-.529.037-.53-.211-.529-.013-.531.021-.533.23-.533-.183-.533.105-.55-.323-.5.142-.571-.179-.512-.215-.5-.036-.556-.251-.482-.336-.438-.126-.535-.315-.441-.28-.457-.2-.516-.431-.353-.294-.452-.265-.483-.455-.315-.29-.471-.417-.346-.444-.311-.422-.333-.476-.26-.312-.489-.523-.189-.454-.287-.4-.378-.578-.069-.476-.245-.459-.279-.45-.3-.485-.234-.5-.2-.508-.179-.556-.044-.457-.327-.484-.222-.5-.176-.561.021-.517-.118-.519-.11-.451-.339-.554.005-.5-.173-.527-.079-.438-.392-.5-.169-.524-.094-.492-.209-.52-.1-.51-.143-.558.034-.5-.166-.467-.312-.522-.1-.52-.109-.56.047-.475-.279-.505-.164-.575.112-.5-.194-.524-.09-.482-.258-.525-.086L62,268.309l-.534-.049L61,267.938l-.512-.138-.576.126-.469-.317-.507-.16-.566.088-.473-.3-.53-.061-.479-.279-.518-.108-.527-.069-.537.008-.533.082-.535-.116-.534-.082-.534.229-.534-.1L52.1,266.7l-.535-.008-.534-.1-.535.252-.534-.208-.534.083-.535-.149-.535.2-.534-.112-.535.19-.535-.17-.535,0-.535.019-.535.006-.534-.036-.534.142-.534-.191-.535.108-.535-.081-.534-.015-.534-.049-.535.042-.535.15-.535-.074-.535.116-.535-.106-.535-.02-.536-.048-.536-.006-.534-.048-.535.211-.536-.017-.536-.211-.536-.017Z" transform="translate(0 -207.193)" fill="#9b1613"/>
        <g id="グループ_24097" data-name="グループ 24097" transform="translate(0)">
          <g id="グループ_24096" data-name="グループ 24096" clip-path="url(#clip-path-2)">
            <path id="パス_109692" data-name="パス 109692" d="M173.041,210.114c-.2-.2-.237-.177-.52-.175s-.282.222-.565.224-.283.045-.566.047-.283,0-.566,0-.284-.148-.567-.146-.283-.005-.566,0-.283-.092-.566-.09-.282.146-.565.148-.283.014-.566.016-.284-.186-.567-.184-.281.214-.565.215-.283.066-.566.068-.284-.072-.567-.07-.283-.011-.566-.009-.284-.108-.567-.106-.282.126-.565.128-.284-.084-.567-.082-.282.137-.565.139-.284-.14-.567-.138-.283.088-.566.09-.282.092-.565.094-.283-.022-.565-.02-.283-.036-.566-.034-.283-.008-.566-.006-.283.035-.566.037-.283.027-.565.029-.284-.12-.567-.118-.283-.011-.567-.009-.283-.054-.566-.052-.283.118-.566.12-.285-.2-.568-.2-.282.182-.566.184-.283.077-.566.079-.284-.043-.567-.041-.284-.055-.567-.053-.283-.049-.566-.047-.283-.013-.567-.011-.284-.055-.568-.053-.283.1-.567.1-.283.061-.567.063-.283.1-.568.1-.387-.347-.582-.141.112.306.114.6-.243.3-.24.592.173.294.175.589-.11.3-.108.59.022.295.025.59.026.3.028.59-.033.3-.03.591.2.294.2.589-.226.3-.224.593.143.285.195.577c.126.143.179.293.309.428s.339.193.475.323.146.4.288.525.277.265.424.383.416.079.569.19.224.339.381.443.41.058.571.156.254.313.419.4.412.023.581.108.246.359.418.437.393.042.568.113.3.27.48.334.4-.015.585.043.363.094.545.146.342.178.526.223.377.041.563.081.347.193.534.227.385-.007.572.021.367.108.555.131.378.03.567.047.388-.127.577-.115.367.214.556.221.38-.009.569-.007.38.032.569.029.381.019.57.012.366-.251.555-.263.373-.037.562-.053.393.147.581.127.374-.063.562-.087.388.036.575.008.375-.067.561-.1.363-.124.549-.159.331-.265.516-.3.378-.032.562-.076.426.144.608.1.295-.364.476-.414.4.036.584-.018.334-.2.513-.256.433.094.611.033.24-.383.406-.477.437-.016.589-.131.227-.32.365-.452.384-.162.509-.307.185-.345.3-.5.153-.354.254-.515.132-.357.22-.524.28-.3.358-.468a3.739,3.739,0,0,0,.043-.56c.006-.278-.081-.279-.075-.557s-.107-.28-.1-.558.251-.273.257-.551-.2-.281-.2-.559.121-.276.126-.553-.086-.28-.081-.558.112-.276.118-.554-.066-.28-.061-.558.027-.278.033-.557.17-.314-.027-.511" transform="translate(-115.945 -163.188)" fill="#ffb4a0"/>
            <path id="パス_109693" data-name="パス 109693" d="M163.666,245.377c-.21-.167-.3-.055-.51-.222s-.092-.316-.3-.484-.273-.09-.484-.257-.3-.052-.513-.22-.182-.2-.393-.372-.157-.214-.4-.334c-.268-.133-.334-.147-.445-.393-.118-.261.086-.316.092-.6s-.092-.289-.086-.576.075-.285.081-.571-.094-.289-.088-.575-.015-.287-.009-.575.185-.283.191-.57-.1-.289-.1-.576.21-.283.216-.571-.136-.286-.183-.569c-.077.172-.212.279-.3.446s0,.437-.1.6-.341.229-.451.38-.07.433-.193.575-.254.3-.389.431-.39.142-.539.255a4.188,4.188,0,0,1-.494.273,3.5,3.5,0,0,1-.539.144c-.178.061-.294.3-.475.358s-.389.018-.571.072-.343.17-.526.221-.378.047-.561.094-.391-.02-.576.024-.334.229-.519.268-.4-.065-.583-.03-.323.33-.51.363-.389-.031-.576,0-.378.025-.566.049-.371.077-.559.1-.372.09-.561.106-.38,0-.569.012-.383-.094-.572-.087-.373.216-.562.219-.379-.193-.568-.195-.375-.043-.564-.05-.387.159-.575.147-.374-.084-.562-.1-.392.092-.58.069-.381-.042-.567-.07-.362-.15-.548-.183-.339-.232-.524-.271-.359-.11-.542-.155-.439.181-.621.129-.342-.189-.522-.247-.355-.135-.533-.2-.371-.095-.546-.165-.326-.2-.5-.282-.38-.086-.549-.17-.338-.179-.5-.27-.291-.256-.453-.354-.338-.175-.5-.28-.261-.286-.414-.4-.368-.14-.516-.259-.273-.265-.416-.39-.17-.37-.308-.5-.437-.095-.569-.232-.114-.329-.24-.472a1.161,1.161,0,0,0-.029.529c0,.274-.03.275-.027.549s-.061.275-.058.549,0,.275,0,.549-.014.274-.012.548-.012.274-.01.549.036.274.038.549.084.274.086.549.119.274.121.548-.05.275-.048.551.032.293-.126.519-.193.173-.45.264-.322-.092-.579,0-.207.233-.465.324-.284.016-.542.106-.184.3-.441.391-.337-.132-.595-.041-.342.011-.55.189.285.1.6.289c.138.084.187.382.379.492.151.087.444-.041.627.059.158.087.314.2.495.292.162.085.35.136.529.226s.318.2.5.29.338.167.517.25.331.185.511.265.355.134.535.211.264.359.445.432.415-.01.6.06.3.279.487.346.445-.111.629-.047.325.228.509.289.4.005.583.062.3.325.488.379.374.087.561.138.408-.05.6,0,.382.04.571.083.375.065.564.1.372.081.562.116.359.159.55.19.376.069.568.1.371.121.562.145.391-.051.583-.033.379.058.572.072.381.045.573.054.38.122.573.127.386-.157.579-.157.384.105.574.1.383-.018.573-.026.373-.179.562-.191.386.051.575.034.4.142.588.122.373-.12.561-.144.38-.055.568-.084.351-.225.537-.258.4.045.583.009.385-.033.57-.073.368-.116.552-.16.379-.069.562-.117.374-.091.556-.142.385-.056.566-.111.365-.126.545-.185.325-.242.5-.3.426.045.6-.02.379-.1.553-.164.342-.191.514-.262.267-.36.438-.434.414-.022.582-.1.278-.318.443-.4c.18-.087.458.043.62-.04.18-.092.3-.281.455-.366.183-.1.344-.2.495-.286.191-.11.381-.164.518-.247.315-.193.567-.05.426-.3a.929.929,0,0,0-.347-.4" transform="translate(-103.767 -184.901)" fill="#ffd2be"/>
            <path id="パス_109694" data-name="パス 109694" d="M161.793,48.522c-.011-.194.035-.384.013-.573s.023-.391-.011-.579-.161-.357-.206-.542.061-.417,0-.6-.26-.316-.33-.495-.107-.369-.189-.543-.025-.423-.118-.591-.412-.2-.516-.364-.167-.344-.281-.5-.286-.256-.409-.4-.149-.374-.28-.516-.34-.2-.48-.332-.191-.355-.338-.481-.327-.2-.48-.323-.357-.155-.515-.267-.209-.371-.372-.476-.377-.119-.544-.217-.245-.35-.416-.441-.458.053-.632-.032-.3-.249-.481-.328-.311-.25-.491-.323-.4-.021-.585-.088-.368-.1-.552-.166-.349-.164-.534-.22-.353-.161-.54-.212-.34-.229-.528-.274-.413.076-.6.036-.358-.177-.548-.212-.405.086-.6.056-.355-.229-.547-.255-.377-.111-.569-.131-.406.2-.6.181-.372-.188-.565-.2-.387,0-.579-.007-.387.079-.58.077-.385-.079-.577-.078-.381.037-.571.043-.376.1-.566.112-.384-.049-.574-.034-.4-.135-.586-.116-.375.106-.563.13-.346.27-.534.3-.416-.184-.6-.151-.326.325-.512.363-.4-.051-.584-.008-.378.059-.562.107-.377.071-.559.124-.383.057-.564.115-.349.165-.528.228-.32.232-.5.3-.354.136-.528.211-.379.086-.55.166-.266.319-.435.405-.355.134-.521.226-.405.06-.567.159-.23.344-.388.449-.3.224-.454.336-.467.017-.615.136-.224.33-.366.456-.382.156-.517.289-.047.482-.175.623-.469.1-.588.247-.092.412-.2.566-.227.3-.328.464-.274.281-.365.449-.1.375-.182.548-.109.363-.178.541-.2.33-.257.512-.24.331-.285.517.068.405.035.594.068.388.045.579-.208.358-.219.55.072.378.072.571c.007.29.015.289.024.58s-.046.292-.037.582-.066.292-.057.582-.071.292-.062.582.257.282.266.571.028.289.037.578-.233.3-.224.585.245.282.255.572-.1.293-.092.583.149.285.157.574-.251.3-.242.587-.01.29,0,.579.01.289.019.579.01.289.02.578.211.283.22.573.073.287.082.576-.151.294-.142.583.073.287.082.576.019.289.028.578-.143.293-.134.582.152.284.161.573-.172.295-.163.584.015.289.024.578.139.285.148.574-.092.292-.084.581.153.285.162.574.11.286.119.575-.248.3-.239.586.056.288.065.577,0,.289.01.579.018.289.027.578,0,.289.012.578.119.286.128.575.081.287.09.576.033.29.04.579c0,.193-.04.384-.033.575s-.05.385-.035.576.046.38.068.57-.121.406-.092.595.061.385.1.572.186.356.23.542.159.355.21.54.083.374.141.557.143.355.208.536.181.338.253.516.01.413.088.587.327.268.412.44-.064.466.028.634.311.267.41.431.288.27.392.431.012.455.123.612.443.151.559.3.032.464.154.612.27.279.4.422.252.295.385.433.359.186.5.319.28.261.424.388.224.33.371.452.417.09.57.207.144.452.3.563.361.16.521.265.313.23.478.328.454-.023.623.069.206.433.378.519.38.1.555.181.367.122.545.194.361.132.542.2.322.254.505.312.392.043.577.094.375.09.563.135.42-.137.608-.1.354.179.544.209.371.106.563.128.387-.031.579-.016.373.215.565.223.388-.015.58-.015v0c.193,0,.39.053.581.045s.388-.049.578-.064.36-.268.55-.289.387.016.576-.012.385-.019.573-.055.405.046.591,0,.348-.2.532-.253.328-.234.511-.292.376-.074.556-.139.427.039.6-.033.286-.309.46-.388.364-.124.535-.209.387-.09.555-.181.222-.381.387-.479.4-.084.557-.189.245-.317.4-.427.343-.174.5-.29.363-.158.51-.28.324-.214.467-.341.314-.229.452-.363.278-.269.411-.408.163-.374.29-.517.262-.279.385-.426.234-.3.351-.455.386-.2.5-.352-.04-.491.065-.651.36-.224.458-.389.146-.358.238-.527.222-.316.308-.488.142-.357.221-.532.217-.325.289-.5-.024-.419.041-.6.244-.32.3-.5-.019-.4.033-.588.153-.353.2-.54.006-.386.043-.575.2-.35.23-.54.1-.374.119-.565,0-.385.01-.577-.014-.383-.007-.575.218-.378.218-.571c.005-.284-.079-.285-.072-.569s-.092-.287-.085-.57.148-.28.155-.563.036-.283.042-.566-.218-.289-.211-.572.146-.28.153-.563-.12-.285-.113-.568.2-.279.2-.562-.142-.287-.135-.57-.067-.285-.06-.568,0-.283.007-.567.061-.281.068-.564.123-.28.13-.563-.039-.284-.032-.567.065-.282.072-.565.006-.283.013-.565.074-.281.081-.563-.271-.29-.264-.573.006-.283.013-.566.072-.281.079-.563.156-.279.163-.561-.069-.285-.063-.568-.072-.285-.066-.568.074-.281.081-.564-.1-.285-.094-.568.032-.283.039-.565.093-.281.1-.564.159-.279.165-.562-.155-.287-.149-.569.147-.279.154-.562-.076-.285-.069-.567-.107-.286-.1-.568.1-.28.107-.563-.076-.285-.069-.568-.068-.285-.061-.568.248-.277.253-.56c0-.2-.245-.38-.256-.571" transform="translate(-101.614 -29.619)" fill="#ffd2be"/>
            <path id="パス_109695" data-name="パス 109695" d="M159.6,271.8l0-.534.044-.531.059-.487-.545-.185-.558-.261-.567-.232-.535.162-.515.155-.422.409-.563.031-.518.149-.473.279-.538.089-.5.2-.536.091-.514.157-.49.237-.534.094-.505.19-.523.13-.542.059-.449.412-.531.1-.562-.035-.544.029-.523.118-.5.23-.539.039-.5.259-.54.039-.556-.132-.517.251-.544-.084-.536-.017-.534.037-.536-.01-.529-.09-.516-.17-.575.171-.5-.244-.557.034-.5-.231-.509-.179-.537-.068-.493-.235-.568.04-.489-.244-.5-.2-.467-.306-.516-.145-.573.034-.459-.32-.576.033-.453-.332-.57.009-.437-.371-.54-.079-.442-.352-.509-.166-.536-.094-.476-.255-.534-.1-.5-.283-.44.328-.488.06-.492.041-.6,0,.241.612-.075.54.113.532.039.534v.536l-.109.539.2.527-.119.54-.043.537.061.533.1.532-.071.538.108.531-.032.536.012.535.09.531-.053.536-.142.54.241.526-.172.54.2.526,0,.534-.065.538-.051.537.239.526.048.533-.183.542.179.528.068.532-.175.542.116.53-.027.536-.027.536-.018.536.066.532-.064.537.1.53.055.532-.072.537.241.526-.011.535-.1.538-.066.537.055.532-.013.535.207.526-.059.537.031.534.194.527-.122.539-.135.539.211.526.1.53-.225.542.275.524-.186.541.235.526-.071.537.068.532-.236.543.2.526.11.529.05.532-.063.536.021.533-.132.538.21.526-.161.54.192.527-.169.541.149.529.1.53-.24.543.028.532.207.525-.123.538,29.611,0-.117-.544-.07-.541.219-.524-.114-.542.128-.529-.039-.537.081-.53.02-.534-.082-.54.271-.52-.141-.543.177-.525-.2-.546-.022-.536.072-.531.213-.523-.1-.54.016-.534.082-.53.038-.532.052-.531,0-.534.072-.531.144-.527-.138-.542.027-.533-.046-.537.208-.523.108-.529-.13-.542.023-.533.137-.527-.134-.542.135-.527.048-.532.053-.532-.066-.538.1-.529.038-.532.122-.528.035-.533.011-.534-.022-.535-.123-.541.012-.533.252-.52-.088-.539.141-.527-.226-.547.181-.524-.134-.541.258-.519.01-.533.059-.53.035-.532.069-.53-.012-.535.053-.532-.226-.547.261-.519-.17-.543.041-.531.266-.518-.192-.544.109-.527-.121-.54.223-.521-.08-.538.169-.524.082-.53-.087-.539Z" transform="translate(-98.349 -209.17)" fill="#fff"/>
            <path id="パス_109696" data-name="パス 109696" d="M147.932,13.686l-.229-.52-.389-.372-.4-.354-.391-.367-.439-.312L145.6,11.5l-.31-.459-.537-.2-.383-.377-.234-.541-.492-.255-.288-.475-.456-.3-.345-.412-.472-.287-.435-.328-.244-.5-.326-.425-.321-.435-.445-.32-.475-.283-.309-.45-.476-.272-.255-.525-.449-.3-.48-.258-.407-.351-.506-.211L136.6,3.1l-.428-.328-.433-.325-.456-.291-.562-.091-.394-.412-.535-.13-.449-.317-.563-.045-.519-.138-.5-.173-.462-.324-.51-.183-.539-.067-.548.01-.542.028-.509-.289L128.106,0l-.536.228h-.53L126.5.193l-.5.213-.523.081L124.919.5,124.4.667l-.47.27-.478.254-.5.237-.359.422-.487-.109-.532-.022-.534.006-.528-.12-.535.1-.531.026-.533-.02-.541-.058-.511.219-.555-.1-.465.38-.536.028-.548.03L115.3,2.5l-.545.085-.469.265-.38.4-.506.21-.3.479-.589.152-.213.54-.338.41-.237.48-.53.3-.06.58L110.7,6.8l-.169.516-.134.526-.128.526-.341.446-.086.541-.153.516-.346.44-.039.564-.141.527-.3.455-.3.451-.145.535-.47.355-.053.589-.379.443-.228.508-.1.562-.338.462-.221.51-.03.587-.34.461-.117.55-.13.537-.024.521-.112.542.2.511.077.54.2.5.173.517.2.509.426.384.159.531.314.44.32.434.431.357.279.459.311.438.31.4.161.5.45.276.281.414.418.248.458.255.384-.411.477-.342.092-.563.235-.51-.056-.574.087-.54.3-.515-.167-.573.124-.538-.029-.557.056-.562.43-.446.041-.551.047-.562.267-.48.367-.426.138-.537.231-.494.275-.47.482-.331.1-.59.48-.318.334-.424.275-.476.454-.322.284-.473.45-.318.383-.381.329-.437.3-.472.457-.3.357-.414.453-.316.363-.423.508-.25.514-.23.331-.48.5-.24.439-.338.491-.254.529-.164.541-.083.532-.075.547.022.511.226.285.482.407.393.036.572.385.431.1.525.247.469.159.508.189.5.313.433.343.411.119.549.277.455.449.333.143.554.544.249.286.447.284.452.445.312.145.585.4.354.36.391.528.219.329.421.283.475.408.342.531.2.248.528.52.2.483.242.326.443.448.286.38.377.488.228.449.281.331.457.542.14.362.417.538.136.359.432.52.161.491.2.487.208.464.249.5.176.379.456.542.071.525.017.57.107.345-.45.379-.382.129-.547.378-.391.122-.531.253-.463.431-.388.1-.535.292-.454-.008-.573.412-.408.016-.56.276-.461.26-.468-.045-.578.249-.472.3-.452.117-.519.044-.546.4-.415-.043-.585.377-.416.249-.462.247-.453.025-.513-.144-.518Z" transform="translate(-82.296 0)" fill="#505050"/>
            <path id="パス_109697" data-name="パス 109697" d="M111.9,136.379c-.018-.287-.119-.281-.137-.568s.006-.289-.012-.576.1-.295.084-.582-.164-.278-.182-.565.137-.3.119-.583-.219-.275-.237-.562-.014-.287-.033-.574.206-.3.189-.588-.264-.271-.282-.559.022-.289,0-.576.113-.3.1-.582-.168-.277-.186-.564.1-.294.08-.581-.016-.287-.034-.573-.187-.276-.205-.562.134-.3.116-.583.025-.289.007-.576.069-.322-.039-.588c-.2,0-.439.022-.635.041s-.368.162-.561.2-.362.12-.55.176-.418-.026-.6.049a5.677,5.677,0,0,1-1.087.484,5.777,5.777,0,0,0-.424.424,5.533,5.533,0,0,0-.38.452,5.247,5.247,0,0,0-.372.448,5.349,5.349,0,0,0-.289.5,7.225,7.225,0,0,1-.5,1.042c-.063.182-.293.318-.341.514s.04.406.01.605-.184.372-.2.573.184.394.184.6a3.854,3.854,0,0,0-.057.574,3.932,3.932,0,0,0,.215.535,4.061,4.061,0,0,0,.181.537,4.785,4.785,0,0,0,.342.456,5.151,5.151,0,0,0,.27.5c.118.15.161.365.3.506s.279.267.426.395.227.34.382.456.459.014.622.118.2.426.367.518.378.124.553.2.336.221.516.287.456-.149.639-.1.347.178.534.215.365.176.554.2a4.859,4.859,0,0,0,.552-.022.993.993,0,0,0,.025-.572,5.371,5.371,0,0,1-.013-.575" transform="translate(-81.861 -97.973)" fill="#ffd2be"/>
            <path id="パス_109698" data-name="パス 109698" d="M273.93,128.883c-.028-.2.068-.413.026-.6s-.221-.346-.282-.525.029-.44-.053-.61a4.942,4.942,0,0,0-.241-.553,4.384,4.384,0,0,0-.4-.453,4.253,4.253,0,0,0-.453-.389,4.365,4.365,0,0,0-.479-.349,4.759,4.759,0,0,0-.546-.226,5.3,5.3,0,0,0-.566-.142c-.182-.063-.337-.216-.528-.262s-.383-.061-.577-.09-.374-.2-.57-.214-.5.1-.7.1c-.092.276.112.326.112.617s.044.291.045.582,0,.291,0,.581-.042.291-.041.582-.152.291-.151.583.17.291.171.581,0,.291,0,.582-.116.291-.115.582.151.291.152.582-.131.291-.13.582-.039.291-.038.583.248.291.248.582-.224.291-.223.582,0,.291,0,.582.2.291.2.583-.154.292-.153.583.147.291.147.583-.081.292-.119.581-.1.319,0,.6a3.852,3.852,0,0,1,1.181-.09,5.426,5.426,0,0,0,.584-.1c.179-.067.238-.41.41-.5a5.507,5.507,0,0,0,.524-.218c.161-.1.271-.26.422-.379s.465-.048.6-.181.083-.447.208-.593.328-.22.438-.377.2-.321.3-.488.28-.29.358-.465.216-.339.276-.522.035-.4.076-.586a5.607,5.607,0,0,0,.12-.571,5.724,5.724,0,0,0-.055-.584c0-.2.1-.4.084-.591s-.237-.375-.264-.561" transform="translate(-208.732 -96.755)" fill="#ffd2be"/>
          </g>
        </g>
      </g>
    </g>
    <g id="楕円形_29" data-name="楕円形 29" transform="translate(16 16)" fill="none" stroke="#9b1613" stroke-width="2">
      <circle cx="56" cy="56" r="56" stroke="none"/>
      <circle cx="56" cy="56" r="55" fill="none"/>
    </g>
  </g>
</svg>
