<svg xmlns="http://www.w3.org/2000/svg" width="80" height="20" viewBox="0 0 80 20">
  <path id="menu" d="M2.268-.571H4.773v-11.1c0-1.605-.027-3.1-.054-4.3h.054c.871,1.306,1.743,2.612,2.641,3.891l4.3,6.15,4.3-6.15c.9-1.279,1.77-2.585,2.641-3.891h.054c-.027,1.2-.054,2.694-.054,4.3v11.1h2.587v-19.7H18.769l-7,10.014-7-10.014H2.268Zm25.024,0H38.919v-2.34h-9.04V-9.66h7.706v-2.313H29.879v-5.959h8.8v-2.34H27.292Zm16.637,0h2.505v-9.9c0-1.9-.027-3.891-.054-5.633h.054c1.116,1.551,2.26,3.1,3.4,4.6L58.088-.571h2.451v-19.7H58.034v9.9c0,1.9.027,3.891.054,5.633h-.054c-1.116-1.551-2.26-3.1-3.4-4.6L46.38-20.272H43.929Zm22.437-19.7V-8.979A9.173,9.173,0,0,0,68.027-3.02a7.794,7.794,0,0,0,6.29,2.748,7.756,7.756,0,0,0,6.29-2.748,9.454,9.454,0,0,0,1.661-5.959V-20.272H79.763V-9.116A7.353,7.353,0,0,1,78.7-4.735a5.079,5.079,0,0,1-4.329,2.068,5.1,5.1,0,0,1-4.357-2.068,7.353,7.353,0,0,1-1.062-4.381V-20.272Z" transform="translate(-2.268 20.272)" fill="#ffdd91"/>
</svg>
