<svg xmlns="http://www.w3.org/2000/svg" xmlns:xlink="http://www.w3.org/1999/xlink" width="24" height="24" viewBox="0 0 24 24">
  <defs>
    <clipPath id="clip-path">
      <rect id="長方形_9253" data-name="長方形 9253" width="24" height="23" transform="translate(-0.27 -0.498)" fill="none"/>
    </clipPath>
  </defs>
  <g id="icon_smoke" transform="translate(0 0)">
    <path id="パス_140204" data-name="パス 140204" d="M24,0V24H0V0ZM12.593,23.258l-.011,0-.071.035-.02,0-.014,0-.071-.035a.02.02,0,0,0-.024,0l0,.01-.017.428.005.02.01.013.1.074.015,0,.012,0,.1-.074.012-.016,0-.017-.017-.427A.021.021,0,0,0,12.593,23.258Zm.265-.113-.013,0-.185.093-.01.01,0,.011.018.43.005.012.008.007.2.093a.025.025,0,0,0,.029-.008l0-.014-.034-.614a.027.027,0,0,0-.02-.022Zm-.715,0a.023.023,0,0,0-.027.006l-.006.014-.034.614a.025.025,0,0,0,.017.024l.015,0,.2-.093.01-.008,0-.011.017-.43,0-.012-.01-.01-.184-.092Z" fill="none"/>
    <g id="グループ_23950" data-name="グループ 23950" transform="translate(0.27 0.498)" clip-path="url(#clip-path)">
      <path id="パス_140385" data-name="パス 140385" d="M0,100.518v4.516a.663.663,0,0,0,.663.663H18.82V99.855H.663a.663.663,0,0,0-.663.663m1.375,1.01a.3.3,0,0,1,.3-.3H17.446v3.093H1.673a.3.3,0,0,1-.3-.3Z" transform="translate(0.025 -83.289)" fill="#fff"/>
      <rect id="長方形_9252" data-name="長方形 9252" width="1.615" height="5.842" transform="translate(19.686 16.566)" fill="#fff"/>
      <path id="パス_140386" data-name="パス 140386" d="M134.608,99.854h-1.089V105.7h1.089a.526.526,0,0,0,.526-.526V100.38a.526.526,0,0,0-.526-.526" transform="translate(-111.404 -83.288)" fill="#fff"/>
      <path id="パス_140387" data-name="パス 140387" d="M72.488,15.615l.087-.007a.743.743,0,0,0,.681-.741V10.561c-.02-3.278-1.76-4.528-3.2-4.838A5.438,5.438,0,0,0,66.646.43,6.152,6.152,0,0,0,64.637.006a4.859,4.859,0,0,0-4.307,1.95,4.63,4.63,0,0,0-.8,2.895c.06,3.2,2.725,4.393,4.536,4.657a4.016,4.016,0,0,0,4.207,3.578c.129,0,.218-.005.233-.007a3.244,3.244,0,0,1,3.222,2.057.753.753,0,0,0,.759.481m-4.058-3.909c-.013,0-.068,0-.155,0a2.7,2.7,0,0,1-2.9-2.873l-.038-.62-.62-.027c-.153-.007-3.756-.2-3.817-3.412a3.289,3.289,0,0,1,.561-2.046,3.5,3.5,0,0,1,3.117-1.354,4.77,4.77,0,0,1,1.555.327,4.169,4.169,0,0,1,2.513,4.54l-.068.768h.774c.418,0,2.505.171,2.526,3.551v2.4a4.881,4.881,0,0,0-3.451-1.258" transform="translate(-49.646 0.045)" fill="#fff"/>
    </g>
  </g>
</svg>
