<svg id="icon_time" xmlns="http://www.w3.org/2000/svg" width="24" height="24" viewBox="0 0 24 24">
  <path id="パス_140204" data-name="パス 140204" d="M24,0V24H0V0ZM12.593,23.258l-.011,0-.071.035-.02,0-.014,0-.071-.035a.02.02,0,0,0-.024,0l0,.01-.017.428.005.02.01.013.1.074.015,0,.012,0,.1-.074.012-.016,0-.017-.017-.427A.021.021,0,0,0,12.593,23.258Zm.265-.113-.013,0-.185.093-.01.01,0,.011.018.43.005.012.008.007.2.093a.025.025,0,0,0,.029-.008l0-.014-.034-.614a.027.027,0,0,0-.02-.022Zm-.715,0a.023.023,0,0,0-.027.006l-.006.014-.034.614a.025.025,0,0,0,.017.024l.015,0,.2-.093.01-.008,0-.011.017-.43,0-.012-.01-.01-.184-.092Z" fill="none"/>
  <path id="パス_140382" data-name="パス 140382" d="M11.5,3.93a8.588,8.588,0,1,1-8.526,8.588A8.557,8.557,0,0,1,11.5,3.93Zm0,1.908a6.68,6.68,0,1,0,6.631,6.679A6.656,6.656,0,0,0,11.5,5.838Zm0,1.908a.95.95,0,0,1,.941.842l.007.112v3.422l1.718,1.729a.959.959,0,0,1,.044,1.309.943.943,0,0,1-1.295.121l-.09-.08-1.994-2.009a.953.953,0,0,1-.271-.563l-.007-.124V8.7A.951.951,0,0,1,11.5,7.747Zm4.39-4.8a.944.944,0,0,1,1.3-.347,11.441,11.441,0,0,1,3.1,2.649.959.959,0,0,1-.146,1.322.943.943,0,0,1-1.316-.11,9.542,9.542,0,0,0-2.585-2.209.958.958,0,0,1-.346-1.3ZM5.815,2.6a.944.944,0,0,1,1.295.348.958.958,0,0,1-.345,1.3,9.542,9.542,0,0,0-2.585,2.21A.944.944,0,0,1,2.54,6.2a.96.96,0,0,1,.176-.953,11.44,11.44,0,0,1,3.1-2.65Z" transform="translate(0.517 0.529)" fill="#fff"/>
</svg>
