<svg id="icon_company" xmlns="http://www.w3.org/2000/svg" width="24" height="24" viewBox="0 0 24 24">
  <path id="パス_140204" data-name="パス 140204" d="M24,0V24H0V0ZM12.593,23.258l-.011,0-.071.035-.02,0-.014,0-.071-.035a.02.02,0,0,0-.024,0l0,.01-.017.428.005.02.01.013.1.074.015,0,.012,0,.1-.074.012-.016,0-.017-.017-.427A.021.021,0,0,0,12.593,23.258Zm.265-.113-.013,0-.185.093-.01.01,0,.011.018.43.005.012.008.007.2.093a.025.025,0,0,0,.029-.008l0-.014-.034-.614a.027.027,0,0,0-.02-.022Zm-.715,0a.023.023,0,0,0-.027.006l-.006.014-.034.614a.025.025,0,0,0,.017.024l.015,0,.2-.093.01-.008,0-.011.017-.43,0-.012-.01-.01-.184-.092Z" fill="none"/>
  <path id="パス_140524" data-name="パス 140524" d="M17,2a2,2,0,0,1,2,2V20a1,1,0,0,1,0,2H5a1,1,0,0,1,0-2V4A2,2,0,0,1,7,2Zm0,2H7V20H9V14.5a1.5,1.5,0,0,1,1.356-1.493L10.5,13h3a1.5,1.5,0,0,1,1.493,1.356L15,14.5V20h2ZM13,15H11v5h2ZM10,9a1,1,0,1,1-1,1A1,1,0,0,1,10,9Zm4,0a1,1,0,1,1-1,1A1,1,0,0,1,14,9ZM10,6A1,1,0,1,1,9,7,1,1,0,0,1,10,6Zm4,0a1,1,0,1,1-1,1A1,1,0,0,1,14,6Z" fill="#fff"/>
</svg>
