<svg id="icon_search" xmlns="http://www.w3.org/2000/svg" width="36" height="36" viewBox="0 0 36 36">
  <path id="パス_140112" data-name="パス 140112" d="M36,0V36H0V0ZM18.89,34.887l-.017,0-.107.052-.03.006-.021-.006-.107-.052a.031.031,0,0,0-.036.008l-.006.015-.026.642.008.03.015.02.156.111.023.006.018-.006.156-.111.018-.024.006-.026-.026-.64A.032.032,0,0,0,18.89,34.887Zm.4-.169-.019,0-.278.14-.015.015,0,.017.027.645.008.018.012.011.3.14a.038.038,0,0,0,.043-.012l.006-.021-.051-.921a.04.04,0,0,0-.03-.033Zm-1.073,0a.034.034,0,0,0-.041.009l-.009.021-.051.921a.037.037,0,0,0,.025.036l.023,0,.3-.14.015-.012.006-.016.025-.645,0-.018-.015-.015-.276-.138Z" fill="none" fill-rule="evenodd"/>
  <path id="パス_140113" data-name="パス 140113" d="M15.834,2A13.834,13.834,0,1,0,24.4,26.7l5.944,5.944a1.627,1.627,0,1,0,2.3-2.3L26.7,24.4A13.834,13.834,0,0,0,15.834,2ZM5.255,15.834A10.579,10.579,0,1,1,15.834,26.414,10.579,10.579,0,0,1,5.255,15.834Z" transform="translate(0)" fill="#fff" fill-rule="evenodd"/>
</svg>
