<svg id="icon_balance" xmlns="http://www.w3.org/2000/svg" xmlns:xlink="http://www.w3.org/1999/xlink" width="24" height="24" viewBox="0 0 24 24">
  <defs>
    <clipPath id="clip-path">
      <rect id="長方形_9677" data-name="長方形 9677" width="24" height="24" fill="none"/>
    </clipPath>
  </defs>
  <g id="グループ_25443" data-name="グループ 25443" clip-path="url(#clip-path)">
    <g id="グループ_25446" data-name="グループ 25446" transform="translate(0 -2.507)">
      <path id="パス_141364" data-name="パス 141364" d="M21.283,28.59a.552.552,0,0,1-.552-.552V5.951a.552.552,0,1,1,1.1,0V28.038a.552.552,0,0,1-.552.552" transform="translate(-9.282 -2.417)" fill="#fff"/>
      <path id="パス_141367" data-name="パス 141367" d="M4.821,23.243C2.028,23.243,0,21.391,0,18.838a.552.552,0,0,1,.552-.552H9.09a.552.552,0,0,1,.552.552c0,2.552-2.028,4.405-4.821,4.405M1.148,19.39a3.427,3.427,0,0,0,3.673,2.748A3.427,3.427,0,0,0,8.495,19.39Z" transform="translate(0 -8.188)" fill="#fff"/>
      <path id="パス_141368" data-name="パス 141368" d="M22.641,11.128H8.283a.552.552,0,0,1,0-1.1H22.641a.552.552,0,1,1,0,1.1" transform="translate(-3.461 -4.488)" fill="#fff"/>
      <path id="パス_141374" data-name="パス 141374" d="M8.283,11.128a.552.552,0,0,1,0-1.1H19.641a.552.552,0,1,1,0,1.1" transform="translate(-1.961 15.044)" fill="#fff"/>
      <path id="パス_141369" data-name="パス 141369" d="M.552,15.691a.552.552,0,0,1-.4-.929L4.418,10.2a.552.552,0,0,1,.807.754L.956,15.516a.551.551,0,0,1-.4.175" transform="translate(0 -4.488)" fill="#fff"/>
      <path id="パス_141370" data-name="パス 141370" d="M12.552,15.691a.549.549,0,0,1-.4-.175L7.879,10.953a.552.552,0,0,1,.807-.754l4.269,4.562a.552.552,0,0,1-.4.929" transform="translate(-3.461 -4.488)" fill="#fff"/>
      <path id="パス_141371" data-name="パス 141371" d="M30.821,23.243c-2.793,0-4.821-1.853-4.821-4.405a.552.552,0,0,1,.552-.552H35.09a.552.552,0,0,1,.552.552c0,2.552-2.028,4.405-4.821,4.405M27.148,19.39a3.427,3.427,0,0,0,3.673,2.748,3.427,3.427,0,0,0,3.674-2.748Z" transform="translate(-11.642 -8.188)" fill="#fff"/>
      <path id="パス_141372" data-name="パス 141372" d="M38.552,15.691a.549.549,0,0,1-.4-.175l-4.269-4.562a.552.552,0,0,1,.807-.754l4.269,4.562a.552.552,0,0,1-.4.929" transform="translate(-15.104 -4.488)" fill="#fff"/>
      <path id="パス_141373" data-name="パス 141373" d="M26.552,15.691a.552.552,0,0,1-.4-.929L30.418,10.2a.552.552,0,0,1,.807.754l-4.269,4.562a.551.551,0,0,1-.4.175" transform="translate(-11.642 -4.488)" fill="#fff"/>
    </g>
  </g>
</svg>
