<svg id="icon_human" xmlns="http://www.w3.org/2000/svg" xmlns:xlink="http://www.w3.org/1999/xlink" width="20" height="20" viewBox="0 0 20 20">
  <defs>
    <clipPath id="clip-path">
      <rect id="長方形_9677" data-name="長方形 9677" width="20" height="20" fill="none"/>
    </clipPath>
  </defs>
  <g id="グループ_25443" data-name="グループ 25443" clip-path="url(#clip-path)">
    <path id="パス_141377" data-name="パス 141377" d="M10.5,11.167a10.03,10.03,0,0,1,5.148,1.393A6.228,6.228,0,0,1,17.3,13.968,2.929,2.929,0,0,1,18,15.75a2.086,2.086,0,0,1-.836,1.655,4.7,4.7,0,0,1-1.737.8,20.525,20.525,0,0,1-4.927.465A20.483,20.483,0,0,1,5.572,18.2a4.7,4.7,0,0,1-1.737-.8A2.085,2.085,0,0,1,3,15.75a2.933,2.933,0,0,1,.7-1.782,6.261,6.261,0,0,1,1.648-1.408A10.048,10.048,0,0,1,10.5,11.167m0,1.667a8.367,8.367,0,0,0-4.28,1.149A4.561,4.561,0,0,0,5.012,15a1.318,1.318,0,0,0-.345.749c0,.1.031.209.213.355A3.1,3.1,0,0,0,6,16.59a18.922,18.922,0,0,0,4.5.41,18.949,18.949,0,0,0,4.5-.41,3.1,3.1,0,0,0,1.121-.485c.182-.146.212-.253.212-.355A1.318,1.318,0,0,0,15.989,15a4.58,4.58,0,0,0-1.209-1.018,8.359,8.359,0,0,0-4.28-1.149M10.5,2A4.167,4.167,0,1,1,6.333,6.167,4.167,4.167,0,0,1,10.5,2m0,1.667a2.5,2.5,0,1,0,2.5,2.5,2.5,2.5,0,0,0-2.5-2.5" transform="translate(-0.5 -0.333)" fill="#fff" fill-rule="evenodd"/>
  </g>
</svg>
