<svg xmlns="http://www.w3.org/2000/svg" width="20.106" height="20" viewBox="0 0 20.106 20">
  <g id="icon_star" transform="translate(0.052)">
    <path id="パス_140204" data-name="パス 140204" d="M20,0V20H0V0ZM10.494,19.382l-.009,0-.059.029-.017,0-.012,0-.059-.029a.017.017,0,0,0-.02,0l0,.008-.014.357,0,.017.008.011.087.062.013,0,.01,0,.087-.062.01-.013,0-.014-.014-.356A.018.018,0,0,0,10.494,19.382Zm.221-.094-.011,0-.154.078-.008.008,0,.009.015.358,0,.01.007.006.168.077a.021.021,0,0,0,.024-.007l0-.012-.028-.512a.022.022,0,0,0-.017-.018Zm-.6,0a.019.019,0,0,0-.023,0l0,.012-.028.512a.021.021,0,0,0,.014.02l.013,0,.168-.077.008-.007,0-.009.014-.358,0-.01-.008-.008-.153-.077Z" fill="none"/>
    <path id="_1004_sy_h" data-name="1004_sy_h" d="M19.812,11.291l2.894,4.783a.315.315,0,0,0,.2.141l5.44,1.28a.315.315,0,0,1,.167.509l-3.658,4.234a.315.315,0,0,0-.074.228l.469,5.574a.308.308,0,0,1-.435.308l-5.152-2.164a.3.3,0,0,0-.241,0l-5.152,2.164a.308.308,0,0,1-.435-.308l.469-5.574a.315.315,0,0,0-.074-.228L10.573,18a.315.315,0,0,1,.167-.509l5.453-1.28a.315.315,0,0,0,.2-.141l2.894-4.783a.315.315,0,0,1,.523,0Z" transform="translate(-9.544 -9.764)" fill="none" stroke="#fff" stroke-linecap="round" stroke-linejoin="round" stroke-width="2"/>
  </g>
</svg>
