<svg id="icon_calendar" xmlns="http://www.w3.org/2000/svg" width="24" height="24" viewBox="0 0 24 24">
  <path id="パス_140206" data-name="パス 140206" d="M24,0V24H0V0ZM12.594,23.258l-.012,0-.071.035-.02,0-.014,0-.071-.036a.022.022,0,0,0-.024.006l0,.01-.017.428.005.02.01.013.1.074.015,0,.012,0,.1-.074.012-.016,0-.017-.017-.427a.022.022,0,0,0-.016-.018m.264-.113-.014,0-.184.093-.01.01,0,.011.018.43.005.012.008.008.2.092a.025.025,0,0,0,.029-.008l0-.014-.034-.614a.027.027,0,0,0-.02-.022m-.715,0a.023.023,0,0,0-.027.006l-.006.014-.034.614a.025.025,0,0,0,.017.024l.015,0,.2-.093.01-.008,0-.011.018-.43,0-.012-.01-.01Z" fill="none" fill-rule="evenodd"/>
  <path id="パス_140207" data-name="パス 140207" d="M16,3a1,1,0,0,1,1,1V5h2a2,2,0,0,1,2,2V19a2,2,0,0,1-2,2H5a2,2,0,0,1-2-2V7A2,2,0,0,1,5,5H7V4A1,1,0,0,1,9,4V5h6V4a1,1,0,0,1,1-1M8,7H5V9H19V7H8ZM5,11v8H19V11Zm2,2a1,1,0,0,1,1-1h.01a1,1,0,0,1,0,2H8a1,1,0,0,1-1-1m1,2a1,1,0,0,0,0,2h.01a1,1,0,0,0,0-2Zm3-2a1,1,0,0,1,1-1h.01a1,1,0,0,1,0,2H12a1,1,0,0,1-1-1m1,2a1,1,0,0,0,0,2h.01a1,1,0,0,0,0-2Zm3-2a1,1,0,0,1,1-1h.01a1,1,0,0,1,0,2H16a1,1,0,0,1-1-1m1,2a1,1,0,0,0,0,2h.01a1,1,0,0,0,0-2Z" fill="#fff" fill-rule="evenodd"/>
</svg>
