<svg xmlns="http://www.w3.org/2000/svg" xmlns:xlink="http://www.w3.org/1999/xlink" width="24" height="24" viewBox="0 0 24 24">
  <defs>
    <clipPath id="clip-path">
      <rect id="長方形_9253" data-name="長方形 9253" width="24" height="24" transform="translate(-0.27 -0.498)" fill="none"/>
    </clipPath>
  </defs>
  <g id="icon_pc" transform="translate(0 0)">
    <g id="グループ_23950" data-name="グループ 23950" transform="translate(0.27 0.498)" clip-path="url(#clip-path)">
      <path id="パス_141351" data-name="パス 141351" d="M.058,101.588a2.005,2.005,0,0,0,2.037,1.951c.394.008.79,0,1.184,0H20.765c.426,0,.854.014,1.28,0a2.046,2.046,0,0,0,1.314-.468,2.34,2.34,0,0,0,.691-1.969.617.617,0,0,0-.609-.609H.666a.617.617,0,0,0-.609.609v.486a.609.609,0,0,0,1.217,0V101.1l-.609.609H23.441l-.609-.609c0,.675-.135,1.2-.893,1.22-.4.008-.8,0-1.207,0H2.495c-.541,0-1.174,0-1.22-.733-.048-.778-1.266-.784-1.217,0" transform="translate(-0.318 -86.98)" fill="#fff"/>
      <path id="パス_141352" data-name="パス 141352" d="M22.049.011H8.089c-1.99,0-3.981-.024-5.97,0A2.019,2.019,0,0,0,.008,2.059c-.019.979,0,1.961,0,2.94v7.842a.617.617,0,0,0,.609.609H23.391A.617.617,0,0,0,24,12.841V2.335A2.076,2.076,0,0,0,22.049.011c-.782-.049-.779,1.169,0,1.217.82.051.733.828.733,1.41v10.2l.609-.609H.617l.609.609V2.669c0-.651-.063-1.409.829-1.441,1.82-.065,3.655,0,5.477,0H22.049a.609.609,0,0,0,0-1.217" transform="translate(-0.27 1.281)" fill="#fff"/>
      <path id="パス_141353" data-name="パス 141353" d="M57.594,143.487H52.367c-.787,0-1.575-.011-2.363,0a2.421,2.421,0,0,0-2.484,2.365.616.616,0,0,0,.609.609H59.35a.615.615,0,0,0,.609-.609,2.416,2.416,0,0,0-2.365-2.365c-.783-.037-.781,1.18,0,1.217a1.169,1.169,0,0,1,1.148,1.148l.609-.609H48.129l.609.609c.049-1.038.924-1.148,1.73-1.148h7.127a.609.609,0,0,0,0-1.217" transform="translate(-42.004 -123.736)" fill="#fff"/>
      <path id="パス_141354" data-name="パス 141354" d="M21.432,17.542a.779.779,0,1,0,.779.779.779.779,0,0,0-.779-.779" transform="translate(-18.408 -14.126)" fill="#fff"/>
      <path id="パス_141355" data-name="パス 141355" d="M44.438,17.542a.779.779,0,1,0,.779.779.779.779,0,0,0-.779-.779" transform="translate(-38.613 -14.126)" fill="#fff"/>
      <path id="パス_141356" data-name="パス 141356" d="M67.444,17.542a.779.779,0,1,0,.779.779.779.779,0,0,0-.779-.779" transform="translate(-58.819 -14.126)" fill="#fff"/>
      <g id="長方形_9674" data-name="長方形 9674" transform="translate(10.23 16.502)" fill="none" stroke="#fff" stroke-width="1">
        <rect width="3" height="4" stroke="none"/>
        <rect x="0.5" y="0.5" width="2" height="3" fill="none"/>
      </g>
    </g>
  </g>
</svg>
