<svg id="icon_bag" xmlns="http://www.w3.org/2000/svg" width="20" height="20" viewBox="0 0 20 20">
  <path id="パス_140383" data-name="パス 140383" d="M20,0V20H0V0ZM10.494,19.382l-.009,0-.059.029-.017,0-.012,0-.059-.029a.017.017,0,0,0-.02,0l0,.008-.014.357,0,.017.008.011.087.062.013,0,.01,0,.087-.062.01-.013,0-.014-.014-.356a.018.018,0,0,0-.014-.015m.221-.094-.011,0-.154.078-.008.008,0,.009.015.358,0,.01.007.006.168.078a.021.021,0,0,0,.024-.007l0-.012-.028-.512a.022.022,0,0,0-.017-.018m-.6,0a.019.019,0,0,0-.023.005l-.005.012-.028.512a.021.021,0,0,0,.014.02l.012,0,.168-.078.008-.007,0-.009.014-.358,0-.01-.008-.008Z" fill="none"/>
  <path id="パス_140384" data-name="パス 140384" d="M12,3a2.5,2.5,0,0,1,2.5,2.5H17a1.667,1.667,0,0,1,1.667,1.667v9.167A1.667,1.667,0,0,1,17,18H3.667A1.667,1.667,0,0,1,2,16.333V7.167A1.667,1.667,0,0,1,3.667,5.5h2.5A2.5,2.5,0,0,1,8.667,3ZM9.5,10.5H3.667v5.833H17V10.5H11.167v.833a.833.833,0,0,1-1.661.1l-.006-.1ZM17,7.167H3.667V8.833H17Zm-5-2.5H8.667a.833.833,0,0,0-.827.736l-.006.1h5a.833.833,0,0,0-.736-.827Z" transform="translate(-0.333 -0.5)" fill="#fff"/>
</svg>
