<svg id="icon_money" xmlns="http://www.w3.org/2000/svg" width="20" height="20" viewBox="0 0 20 20">
  <path id="パス_140204" data-name="パス 140204" d="M20,0V20H0V0ZM10.494,19.382l-.009,0-.059.029-.017,0-.012,0-.059-.029a.017.017,0,0,0-.02,0l0,.008-.014.357,0,.017.008.011.087.062.013,0,.01,0,.087-.062.01-.013,0-.014-.014-.356A.018.018,0,0,0,10.494,19.382Zm.221-.094-.011,0-.154.078-.008.008,0,.009.015.358,0,.01.007.006.168.077a.021.021,0,0,0,.024-.007l0-.012-.028-.512a.022.022,0,0,0-.017-.018Zm-.6,0a.019.019,0,0,0-.023,0l0,.012-.028.512a.021.021,0,0,0,.014.02l.013,0,.168-.077.008-.007,0-.009.014-.358,0-.01-.008-.008-.153-.077Z" fill="none"/>
  <path id="パス_140381" data-name="パス 140381" d="M3.919,6.279.317,1.541A.9.9,0,0,1,.142,1,.9.9,0,0,1,.524.22,1,1,0,0,1,1.124,0a.831.831,0,0,1,.688.393L5.818,6.006,9.824.395A.83.83,0,0,1,10.512,0a1,1,0,0,1,.6.218A.9.9,0,0,1,11.494,1a.875.875,0,0,1-.175.546l-3.6,4.737h3.2a.694.694,0,0,1,.458.164.784.784,0,0,1,.262.622.755.755,0,0,1-.36.7.652.652,0,0,1-.36.1H6.735V9.968h4.181a.666.666,0,0,1,.437.153.834.834,0,0,1,.284.655.787.787,0,0,1-.36.7.653.653,0,0,1-.36.1H6.735v3.58a.8.8,0,0,1-.262.606A.92.92,0,0,1,5.818,16a.9.9,0,0,1-.775-.371.8.8,0,0,1-.142-.48v-3.58H.72a.638.638,0,0,1-.437-.153A.82.82,0,0,1,0,10.776a.789.789,0,0,1,.349-.709.707.707,0,0,1,.371-.1H4.9V7.861H.72a.667.667,0,0,1-.491-.2A.835.835,0,0,1,0,7.064.762.762,0,0,1,.327,6.4a.647.647,0,0,1,.393-.12Z" transform="translate(4.182 1.665)" fill="#fff"/>
</svg>
