<svg id="icon_human_search" xmlns="http://www.w3.org/2000/svg" width="24" height="24" viewBox="0 0 24 24">
  <path id="パス_140204" data-name="パス 140204" d="M24,0V24H0V0ZM12.593,23.258l-.011,0-.071.035-.02,0-.014,0-.071-.035a.02.02,0,0,0-.024,0l0,.01-.017.428.005.02.01.013.1.074.015,0,.012,0,.1-.074.012-.016,0-.017-.017-.427A.021.021,0,0,0,12.593,23.258Zm.265-.113-.013,0-.185.093-.01.01,0,.011.018.43.005.012.008.007.2.093a.025.025,0,0,0,.029-.008l0-.014-.034-.614a.027.027,0,0,0-.02-.022Zm-.715,0a.023.023,0,0,0-.027.006l-.006.014-.034.614a.025.025,0,0,0,.017.024l.015,0,.2-.093.01-.008,0-.011.017-.43,0-.012-.01-.01-.184-.092Z" fill="none"/>
  <path id="パス_140520" data-name="パス 140520" d="M8.831,7.692a3.415,3.415,0,1,1,3.415,3.415A3.415,3.415,0,0,1,8.831,7.692ZM12.246,2a5.692,5.692,0,1,0,5.692,5.692A5.692,5.692,0,0,0,12.246,2ZM4.277,20.784a1.8,1.8,0,0,1,.47-1.023A6.256,6.256,0,0,1,6.4,18.37a11.419,11.419,0,0,1,5.847-1.57,11.715,11.715,0,0,1,1.258.067,1.139,1.139,0,1,0,.24-2.265,14.691,14.691,0,0,0-1.5-.079,13.705,13.705,0,0,0-7.033,1.9A8.508,8.508,0,0,0,2.961,18.35,4,4,0,0,0,2,20.784a2.849,2.849,0,0,0,1.142,2.261,6.418,6.418,0,0,0,2.372,1.088,28.04,28.04,0,0,0,6.732.635c.262,0,.524,0,.78-.006a1.139,1.139,0,0,0-.031-2.277q-.371.005-.749.006a25.886,25.886,0,0,1-6.148-.56,4.237,4.237,0,0,1-1.531-.663C4.319,21.07,4.277,20.923,4.277,20.784Zm15.369-2.846a1.708,1.708,0,1,0,1.708,1.708A1.708,1.708,0,0,0,19.646,17.938Zm-3.985,1.708a3.985,3.985,0,1,1,7.491,1.9l.949.951a1.138,1.138,0,1,1-1.61,1.61l-.95-.951a3.985,3.985,0,0,1-5.88-3.505Z" transform="translate(-1 -1.384)" fill="#fff" fill-rule="evenodd"/>
</svg>
