<svg id="icon_personal" xmlns="http://www.w3.org/2000/svg" xmlns:xlink="http://www.w3.org/1999/xlink" width="24" height="24" viewBox="0 0 24 24">
  <defs>
    <clipPath id="clip-path">
      <rect id="長方形_9679" data-name="長方形 9679" width="24" height="24" fill="none"/>
    </clipPath>
  </defs>
  <g id="グループ_25444" data-name="グループ 25444" clip-path="url(#clip-path)">
    <path id="パス_141363" data-name="パス 141363" d="M18.295,15.468a4.744,4.744,0,1,0-6.9-5.826,7.04,7.04,0,0,0-1.521-.872,4.745,4.745,0,1,0-5.016,0A8.454,8.454,0,0,0,0,16.689a.612.612,0,0,0,.612.612H10.7a9.006,9.006,0,0,0-2.283,6.087A.612.612,0,0,0,9.029,24H22.544a.612.612,0,0,0,.612-.612,8.454,8.454,0,0,0-4.861-7.92M15.786,7.922a3.521,3.521,0,1,1-3.521,3.521,3.525,3.525,0,0,1,3.521-3.521M3.848,4.745A3.521,3.521,0,1,1,7.369,8.266,3.525,3.525,0,0,1,3.848,4.745M7.369,9.49a5.553,5.553,0,0,1,3.7,1.457,4.8,4.8,0,0,0-.026.5,4.745,4.745,0,0,0,2.236,4.025,6.949,6.949,0,0,0-1.145.609H1.245C1.511,12.393,4.156,9.49,7.369,9.49M9.662,22.776c.266-3.685,2.911-6.588,6.124-6.588s5.858,2.9,6.124,6.588Z" transform="translate(1)" fill="#fff"/>
  </g>
</svg>
