<svg xmlns="http://www.w3.org/2000/svg" xmlns:xlink="http://www.w3.org/1999/xlink" width="24" height="24" viewBox="0 0 24 24">
  <defs>
    <clipPath id="clip-path">
      <rect id="長方形_9253" data-name="長方形 9253" width="24" height="23" transform="translate(-0.27 -0.498)" fill="none"/>
    </clipPath>
  </defs>
  <g id="icon_account" transform="translate(0 0)">
    <path id="パス_140204" data-name="パス 140204" d="M24,0V24H0V0ZM12.593,23.258l-.011,0-.071.035-.02,0-.014,0-.071-.035a.02.02,0,0,0-.024,0l0,.01-.017.428.005.02.01.013.1.074.015,0,.012,0,.1-.074.012-.016,0-.017-.017-.427A.021.021,0,0,0,12.593,23.258Zm.265-.113-.013,0-.185.093-.01.01,0,.011.018.43.005.012.008.007.2.093a.025.025,0,0,0,.029-.008l0-.014-.034-.614a.027.027,0,0,0-.02-.022Zm-.715,0a.023.023,0,0,0-.027.006l-.006.014-.034.614a.025.025,0,0,0,.017.024l.015,0,.2-.093.01-.008,0-.011.017-.43,0-.012-.01-.01-.184-.092Z" fill="none"/>
    <g id="グループ_23950" data-name="グループ 23950" transform="translate(0.27 0.498)" clip-path="url(#clip-path)">
      <rect id="長方形_9673" data-name="長方形 9673" width="15.46" height="20.92" rx="2" transform="translate(4 0.583)" fill="none" stroke="#fff" stroke-linecap="round" stroke-linejoin="round" stroke-width="2"/>
      <path id="パス_141350" data-name="パス 141350" d="M68.585,84.457H60.814a.487.487,0,0,0,0,.973h7.772a.487.487,0,0,0,0-.973Z" transform="translate(-52.969 -78.94)" fill="none" stroke="#fff" stroke-linecap="round" stroke-linejoin="round" stroke-width="2"/>
      <ellipse id="楕円形_40" data-name="楕円形 40" cx="0.509" cy="0.509" rx="0.509" ry="0.509" transform="translate(7.709 11.199)" fill="none" stroke="#fff" stroke-linecap="round" stroke-linejoin="round" stroke-width="2"/>
      <ellipse id="楕円形_41" data-name="楕円形 41" cx="0.509" cy="0.509" rx="0.509" ry="0.509" transform="translate(11.212 11.199)" fill="none" stroke="#fff" stroke-linecap="round" stroke-linejoin="round" stroke-width="2"/>
      <ellipse id="楕円形_42" data-name="楕円形 42" cx="0.509" cy="0.509" rx="0.509" ry="0.509" transform="translate(7.709 15.849)" fill="none" stroke="#fff" stroke-linecap="round" stroke-linejoin="round" stroke-width="2"/>
      <ellipse id="楕円形_43" data-name="楕円形 43" cx="0.509" cy="0.509" rx="0.509" ry="0.509" transform="translate(11.212 15.849)" fill="none" stroke="#fff" stroke-linecap="round" stroke-linejoin="round" stroke-width="2"/>
      <ellipse id="楕円形_44" data-name="楕円形 44" cx="0.509" cy="0.509" rx="0.509" ry="0.509" transform="translate(14.732 11.199)" fill="none" stroke="#fff" stroke-linecap="round" stroke-linejoin="round" stroke-width="2"/>
      <ellipse id="楕円形_45" data-name="楕円形 45" cx="0.509" cy="0.509" rx="0.509" ry="0.509" transform="translate(14.732 15.849)" fill="none" stroke="#fff" stroke-linecap="round" stroke-linejoin="round" stroke-width="2"/>
    </g>
  </g>
</svg>
