<svg id="icon_wallet" xmlns="http://www.w3.org/2000/svg" width="24" height="24" viewBox="0 0 24 24">
  <path id="パス_140204" data-name="パス 140204" d="M24,0V24H0V0ZM12.593,23.258l-.011,0-.071.035-.02,0-.014,0-.071-.035a.02.02,0,0,0-.024,0l0,.01-.017.428.005.02.01.013.1.074.015,0,.012,0,.1-.074.012-.016,0-.017-.017-.427A.021.021,0,0,0,12.593,23.258Zm.265-.113-.013,0-.185.093-.01.01,0,.011.018.43.005.012.008.007.2.093a.025.025,0,0,0,.029-.008l0-.014-.034-.614a.027.027,0,0,0-.02-.022Zm-.715,0a.023.023,0,0,0-.027.006l-.006.014-.034.614a.025.025,0,0,0,.017.024l.015,0,.2-.093.01-.008,0-.011.017-.43,0-.012-.01-.01-.184-.092Z" fill="none"/>
  <path id="パス_140522" data-name="パス 140522" d="M12.78,2a10.51,10.51,0,0,1,3.2.465,4.128,4.128,0,0,1,1.452.8,2.244,2.244,0,0,1,.786,1.688,2.552,2.552,0,0,1-.7,1.7,4.2,4.2,0,0,1-.72.631,9.939,9.939,0,0,1,5.77,8.844,6.727,6.727,0,0,1-3.006,6,12.473,12.473,0,0,1-6.774,1.6,12.471,12.471,0,0,1-6.774-1.6,6.728,6.728,0,0,1-3.006-6A9.939,9.939,0,0,1,8.77,7.282a4.191,4.191,0,0,1-.72-.63,2.562,2.562,0,0,1-.7-1.7,2.244,2.244,0,0,1,.786-1.688,4.128,4.128,0,0,1,1.452-.8A10.542,10.542,0,0,1,12.78,2m0,6.52a7.851,7.851,0,0,0-7.607,7.607,4.567,4.567,0,0,0,2.02,4.184,10.379,10.379,0,0,0,5.587,1.25,10.382,10.382,0,0,0,5.587-1.25,4.567,4.567,0,0,0,2.02-4.184A7.851,7.851,0,0,0,12.78,8.52M14.9,11.352a1.087,1.087,0,0,1,.486,1.457l-.572,1.144h.143a1.087,1.087,0,0,1,0,2.173H13.867v.543h1.087a1.087,1.087,0,0,1,0,2.173H13.867v.543a1.087,1.087,0,0,1-2.173,0v-.543H10.607a1.087,1.087,0,0,1,0-2.173h1.087v-.543H10.607a1.087,1.087,0,0,1,0-2.173h.143l-.572-1.144a1.087,1.087,0,1,1,1.943-.971l.659,1.315.659-1.315a1.087,1.087,0,0,1,1.457-.486M12.78,4.173a8.39,8.39,0,0,0-2.5.35,2.053,2.053,0,0,0-.693.353l-.057.06-.01.015.008.035a.649.649,0,0,0,.141.217,2.715,2.715,0,0,0,.763.547,5.5,5.5,0,0,0,2.348.6,5.5,5.5,0,0,0,2.348-.6,2.709,2.709,0,0,0,.763-.548.649.649,0,0,0,.141-.216l.008-.035-.03-.039q-.017-.019-.036-.036a2.073,2.073,0,0,0-.693-.353,8.425,8.425,0,0,0-2.5-.35" transform="translate(-1 -1)" fill="#fff"/>
</svg>
