<svg id="icon_pin" xmlns="http://www.w3.org/2000/svg" width="20" height="20" viewBox="0 0 20 20">
  <path id="パス_140208" data-name="パス 140208" d="M20,0V20H0V0ZM10.494,19.382l-.009,0-.059.029-.017,0-.012,0-.059-.029a.017.017,0,0,0-.02,0l0,.008-.014.357,0,.017.008.011.087.062.013,0,.01,0,.087-.062.01-.013,0-.014-.014-.356A.018.018,0,0,0,10.494,19.382Zm.221-.094-.011,0-.154.078-.008.008,0,.009.015.358,0,.01.007.006.167.078a.021.021,0,0,0,.024-.007l0-.012-.028-.512a.022.022,0,0,0-.017-.018Zm-.6,0a.019.019,0,0,0-.023.005l0,.012-.028.512a.021.021,0,0,0,.014.02l.012,0,.168-.078.008-.007,0-.009.014-.358,0-.01-.008-.008-.153-.077Z" fill="none" fill-rule="evenodd"/>
  <path id="パス_140209" data-name="パス 140209" d="M10.5,2A7.5,7.5,0,0,1,18,9.5a8.973,8.973,0,0,1-2.868,6.163,17.034,17.034,0,0,1-2.4,2.013l-.355.242-.167.111-.314.2-.28.171-.347.2a1.562,1.562,0,0,1-1.545,0l-.347-.2-.433-.267-.16-.1L8.446,17.8a17.2,17.2,0,0,1-2.577-2.138A8.975,8.975,0,0,1,3,9.5,7.5,7.5,0,0,1,10.5,2Zm0,1.667A5.833,5.833,0,0,0,4.667,9.5a7.333,7.333,0,0,0,2.393,5,15.025,15.025,0,0,0,1.852,1.592l.382.272q.185.129.356.24l.325.208.286.174.241.141.379-.224.306-.192c.162-.1.337-.219.523-.347l.382-.272A15.025,15.025,0,0,0,13.941,14.5a7.331,7.331,0,0,0,2.393-5A5.833,5.833,0,0,0,10.5,3.667Zm0,2.5A3.333,3.333,0,1,1,7.167,9.5,3.333,3.333,0,0,1,10.5,6.167Zm0,1.667A1.667,1.667,0,1,0,12.167,9.5,1.667,1.667,0,0,0,10.5,7.833Z" transform="translate(-0.5 -0.333)" fill="#fff" fill-rule="evenodd"/>
</svg>
