<svg id="icon_light" xmlns="http://www.w3.org/2000/svg" xmlns:xlink="http://www.w3.org/1999/xlink" width="20" height="20" viewBox="0 0 20 20">
  <defs>
    <clipPath id="clip-path">
      <rect id="長方形_9672" data-name="長方形 9672" width="14" height="20" fill="none"/>
    </clipPath>
  </defs>
  <path id="パス_140383" data-name="パス 140383" d="M20,0V20H0V0ZM10.494,19.382l-.009,0-.059.029-.017,0-.012,0-.059-.029a.017.017,0,0,0-.02,0l0,.008-.014.357,0,.017.008.011.087.062.013,0,.01,0,.087-.062.01-.013,0-.014-.014-.356a.018.018,0,0,0-.014-.015m.221-.094-.011,0-.154.078-.008.008,0,.009.015.358,0,.01.007.006.168.078a.021.021,0,0,0,.024-.007l0-.012-.028-.512a.022.022,0,0,0-.017-.018m-.6,0a.019.019,0,0,0-.023.005l-.005.012-.028.512a.021.021,0,0,0,.014.02l.012,0,.168-.078.008-.007,0-.009.014-.358,0-.01-.008-.008Z" fill="none"/>
  <g id="グループ_25434" data-name="グループ 25434" transform="translate(3)">
    <g id="グループ_25433" data-name="グループ 25433" clip-path="url(#clip-path)">
      <path id="パス_141346" data-name="パス 141346" d="M6.875,0Q6.539,0,6.2.032a6.87,6.87,0,0,0-3.6,12.215A3.138,3.138,0,0,1,3.75,15v2.5A1.25,1.25,0,0,0,5,18.75,1.25,1.25,0,0,0,6.25,20H7.5a1.25,1.25,0,0,0,1.25-1.25A1.25,1.25,0,0,0,10,17.5V14.993a3.125,3.125,0,0,1,1.157-2.745A6.871,6.871,0,0,0,6.875,0M8.75,17.5H5V16.25H8.75Zm1.628-6.229A4.358,4.358,0,0,0,8.749,15H5a4.363,4.363,0,0,0-1.629-3.729A5.62,5.62,0,0,1,6.316,1.277c.186-.017.374-.027.559-.027a5.621,5.621,0,0,1,3.5,10.021" transform="translate(0)" fill="#fff"/>
    </g>
  </g>
</svg>
