<svg id="logo" xmlns="http://www.w3.org/2000/svg" xmlns:xlink="http://www.w3.org/1999/xlink" width="143.027" height="36" viewBox="0 0 143.027 36">
  <defs>
    <clipPath id="clip-path">
      <rect id="長方形_9263" data-name="長方形 9263" width="143.027" height="36" fill="none"/>
    </clipPath>
  </defs>
  <path id="パス_140529" data-name="パス 140529" d="M0,106.964H41.173L10.294,89.115Z" transform="translate(0 -71.264)" fill="#d4d5d5"/>
  <path id="パス_140530" data-name="パス 140530" d="M61.741,0,51.447,17.851,66.888,8.924Z" transform="translate(-41.153 0)" fill="#dc000c"/>
  <path id="パス_140531" data-name="パス 140531" d="M51.447,53.478l30.88,17.849L66.888,44.552Z" transform="translate(-41.153 -35.627)" fill="#9a9b9b"/>
  <path id="パス_140532" data-name="パス 140532" d="M51.447,53.478l30.88,17.849-.579-1.007L52.609,53.478l14.569-8.422-.29-.5Z" transform="translate(-41.153 -35.627)" fill="#1a1311"/>
  <g id="グループ_24026" data-name="グループ 24026">
    <g id="グループ_24025" data-name="グループ 24025" clip-path="url(#clip-path)">
      <path id="パス_140533" data-name="パス 140533" d="M291.908,41.238a4.611,4.611,0,0,1-1.064-.121,5.358,5.358,0,0,1-.964-.326,4.191,4.191,0,0,1-.909-.492,4.708,4.708,0,0,1-.764-.68,5.079,5.079,0,0,1-.658-.8,4.776,4.776,0,0,1-.476-.934,6.285,6.285,0,0,1-.3-1.006,5.234,5.234,0,0,1-.112-1.1,5.166,5.166,0,0,1,.112-1.083,6.856,6.856,0,0,1,.3-1.019l0,0a5.069,5.069,0,0,1,.473-.92,4.518,4.518,0,0,1,.661-.8,4.884,4.884,0,0,1,1.668-1.184h0a6.687,6.687,0,0,1,.962-.307,4.759,4.759,0,0,1,2.129,0,7.22,7.22,0,0,1,.975.306l.01,0a5.039,5.039,0,0,1,.888.509,5.642,5.642,0,0,1,.781.677,5.2,5.2,0,0,1,.928,1.325l.186.383h-.829l-.074-.137a5.21,5.21,0,0,0-.758-1.053,6.6,6.6,0,0,0-.683-.568,3.937,3.937,0,0,0-.749-.421l-.007,0a3.95,3.95,0,0,0-.833-.277,4.364,4.364,0,0,0-.9-.092,4.258,4.258,0,0,0-.891.092,4.338,4.338,0,0,0-.845.277h-.005a4.308,4.308,0,0,0-.757.422,4.5,4.5,0,0,0-.655.563,4.921,4.921,0,0,0-.975,1.505,4.1,4.1,0,0,0-.253.86,5.4,5.4,0,0,0,0,1.9,4.556,4.556,0,0,0,.253.871,5,5,0,0,0,.975,1.487l0,0a3.922,3.922,0,0,0,.65.573,4.828,4.828,0,0,0,.757.437,7.319,7.319,0,0,0,.855.257,3.978,3.978,0,0,0,.887.1,4.08,4.08,0,0,0,.9-.1,6.566,6.566,0,0,0,.845-.256,4.534,4.534,0,0,0,.749-.437,5.315,5.315,0,0,0,.682-.582,5.112,5.112,0,0,0,.541-.68,4.242,4.242,0,0,0,.414-.8h0a5.732,5.732,0,0,0,.249-.8h-5v-.776h5.836v4.961h-.744v-2.38c-.039.068-.082.134-.124.2a6.606,6.606,0,0,1-.622.8l-.008.009a6.378,6.378,0,0,1-.793.675,4.611,4.611,0,0,1-.874.492,5.991,5.991,0,0,1-.982.326,4.612,4.612,0,0,1-1.065.121" transform="translate(-229.308 -24.256)" fill="#1a1311"/>
      <path id="パス_140534" data-name="パス 140534" d="M514.471,41.236a4.6,4.6,0,0,1-1.063-.121,5.5,5.5,0,0,1-.964-.326,4.163,4.163,0,0,1-.909-.494,4.746,4.746,0,0,1-.764-.678,5.113,5.113,0,0,1-.657-.8,4.775,4.775,0,0,1-.475-.934,6.182,6.182,0,0,1-.3-1.005,5.4,5.4,0,0,1-.111-1.1,5.316,5.316,0,0,1,.111-1.083,6.751,6.751,0,0,1,.3-1.02v0a5.256,5.256,0,0,1,.474-.92,4.347,4.347,0,0,1,.661-.8,4.845,4.845,0,0,1,1.669-1.186h0a6.308,6.308,0,0,1,.963-.307,4.706,4.706,0,0,1,2.129,0,6.921,6.921,0,0,1,.974.306l.01,0a4.983,4.983,0,0,1,.888.509,5.385,5.385,0,0,1,.777.675,4.7,4.7,0,0,1,.639.8,6.659,6.659,0,0,1,.476.912v0a5.488,5.488,0,0,1,.31,1.032,5.68,5.68,0,0,1,.1,1.078,5.8,5.8,0,0,1-.1,1.1,5.114,5.114,0,0,1-.31,1.016,5.958,5.958,0,0,1-.478.924,5.493,5.493,0,0,1-1.416,1.484,4.293,4.293,0,0,1-.892.494,6.044,6.044,0,0,1-.98.326,4.632,4.632,0,0,1-1.066.121M512.729,40.1a7.28,7.28,0,0,0,.856.258,3.984,3.984,0,0,0,.886.1,4.111,4.111,0,0,0,.9-.1,6.572,6.572,0,0,0,.846-.256,4.424,4.424,0,0,0,.747-.437,5.354,5.354,0,0,0,.684-.583,4.911,4.911,0,0,0,.54-.679,4.169,4.169,0,0,0,.414-.8l0,0a4.88,4.88,0,0,0,.261-.876,4.884,4.884,0,0,0,0-1.9,4.341,4.341,0,0,0-.261-.864h0a4.886,4.886,0,0,0-.418-.8,5.732,5.732,0,0,0-.539-.7,6.6,6.6,0,0,0-.684-.566,3.718,3.718,0,0,0-.747-.42l-.007,0a3.879,3.879,0,0,0-.834-.275,4.3,4.3,0,0,0-.9-.093,4.21,4.21,0,0,0-.892.093,4.378,4.378,0,0,0-.845.277l0,0a4.137,4.137,0,0,0-.758.42,4.289,4.289,0,0,0-.653.562,4.916,4.916,0,0,0-.978,1.506,4.234,4.234,0,0,0-.252.861,5.345,5.345,0,0,0,0,1.9,4.7,4.7,0,0,0,.252.871,4.977,4.977,0,0,0,.976,1.486l.006.006a3.87,3.87,0,0,0,.649.573,4.914,4.914,0,0,0,.756.437" transform="translate(-407.341 -24.254)" fill="#1a1311"/>
      <path id="パス_140535" data-name="パス 140535" d="M593.318,41.236a4.634,4.634,0,0,1-1.065-.121,5.473,5.473,0,0,1-.963-.326,4.148,4.148,0,0,1-.909-.494,4.649,4.649,0,0,1-.763-.678,5.15,5.15,0,0,1-.659-.8,4.8,4.8,0,0,1-.474-.934,6.151,6.151,0,0,1-.3-1.005,5.361,5.361,0,0,1-.113-1.1,5.285,5.285,0,0,1,.113-1.083,6.717,6.717,0,0,1,.3-1.02v0a5.288,5.288,0,0,1,.474-.92,4.323,4.323,0,0,1,.661-.8,4.819,4.819,0,0,1,1.669-1.186h0a6.361,6.361,0,0,1,.961-.307,4.713,4.713,0,0,1,2.131,0,6.958,6.958,0,0,1,.973.306l.011,0a5,5,0,0,1,.887.509,5.483,5.483,0,0,1,.778.675,4.511,4.511,0,0,1,.64.8,7.06,7.06,0,0,1,.477.912v0a5.305,5.305,0,0,1,.31,1.032,5.665,5.665,0,0,1,.1,1.079,5.777,5.777,0,0,1-.1,1.1,5.141,5.141,0,0,1-.31,1.016,5.892,5.892,0,0,1-.479.924,5.278,5.278,0,0,1-.636.806,5.53,5.53,0,0,1-.78.678,4.249,4.249,0,0,1-.892.494,5.98,5.98,0,0,1-.979.326,4.63,4.63,0,0,1-1.066.121M591.577,40.1a7.1,7.1,0,0,0,.855.258,3.994,3.994,0,0,0,.886.1,4.1,4.1,0,0,0,.9-.1,6.373,6.373,0,0,0,.845-.256,4.447,4.447,0,0,0,.749-.437,5.391,5.391,0,0,0,.683-.583,4.8,4.8,0,0,0,.54-.679,4.354,4.354,0,0,0,.416-.8v0a5.046,5.046,0,0,0,.264-.876,4.917,4.917,0,0,0,0-1.9,4.473,4.473,0,0,0-.26-.864h0a4.725,4.725,0,0,0-.417-.8,5.7,5.7,0,0,0-.539-.7,6.489,6.489,0,0,0-.683-.566,3.736,3.736,0,0,0-.749-.42l-.007,0a3.867,3.867,0,0,0-.833-.275,4.3,4.3,0,0,0-.9-.093,4.186,4.186,0,0,0-.891.093,4.3,4.3,0,0,0-.844.277l0,0a4.184,4.184,0,0,0-.76.42,4.568,4.568,0,0,0-.653.562,4.926,4.926,0,0,0-.976,1.506h0a4.094,4.094,0,0,0-.252.861,5.351,5.351,0,0,0,0,1.9,4.6,4.6,0,0,0,.253.871,4.959,4.959,0,0,0,.976,1.486l0,.006a3.982,3.982,0,0,0,.649.573,4.88,4.88,0,0,0,.759.437" transform="translate(-470.412 -24.254)" fill="#1a1311"/>
      <path id="パス_140536" data-name="パス 140536" d="M666.546,41.99h-.759v-9.64h-4.913v-.762h10.57v.762h-4.9Z" transform="translate(-528.644 -25.261)" fill="#1a1311"/>
      <path id="パス_140537" data-name="パス 140537" d="M447.956,41.991h-.946l-2.961-4.18H439.14v4.18h-.778v-10.4h6.071a3.111,3.111,0,0,1,.53,6.176ZM439.14,37.05h5.293a2.351,2.351,0,0,0,0-4.7H439.14Z" transform="translate(-350.654 -25.261)" fill="#1a1311"/>
      <path id="パス_140538" data-name="パス 140538" d="M481.964,41.99l-1.088-.465,36.014-9.937.244.72Z" transform="translate(-384.661 -25.261)" fill="#1a1311"/>
      <path id="パス_140539" data-name="パス 140539" d="M226.854,39.888h-.876l-5.426-9.41-5.426,9.41h-.876l6.3-10.928Z" transform="translate(-171.382 -23.159)" fill="#1a1311"/>
      <path id="パス_140540" data-name="パス 140540" d="M235.267,59.532h-7.011l.168-.778H235.1Z" transform="translate(-182.586 -46.984)" fill="#1a1311"/>
      <path id="パス_140541" data-name="パス 140541" d="M369.718,39.888h-.875l-5.428-9.41-5.426,9.41h-.875l6.3-10.928Z" transform="translate(-285.662 -23.159)" fill="#1a1311"/>
      <path id="パス_140542" data-name="パス 140542" d="M378.123,59.532H371.11l.168-.778h6.676Z" transform="translate(-296.858 -46.984)" fill="#1a1311"/>
    </g>
  </g>
  <g id="グループ_24028" data-name="グループ 24028">
    <g id="グループ_24027" data-name="グループ 24027" clip-path="url(#clip-path)">
      <path id="パス_140543" data-name="パス 140543" d="M347.552,119.761a3.409,3.409,0,0,1-.495.686,4.525,4.525,0,0,1-.445.373,2.77,2.77,0,0,1-.487.272l0,0a2.435,2.435,0,0,1-.542.176,2.81,2.81,0,0,1-.587.061,2.808,2.808,0,0,1-1.129-.238l0,0a2.972,2.972,0,0,1-.495-.272,3.007,3.007,0,0,1-.426-.37,3.193,3.193,0,0,1-.635-.98,2.7,2.7,0,0,1-.163-.559,3.362,3.362,0,0,1,0-1.235,2.676,2.676,0,0,1,.163-.56,3.2,3.2,0,0,1,.635-.98,2.827,2.827,0,0,1,.921-.644h0a3.078,3.078,0,0,1,.549-.176,2.655,2.655,0,0,1,.58-.063,2.813,2.813,0,0,1,1.13.24h0a2.961,2.961,0,0,1,.487.275,4.428,4.428,0,0,1,.445.372,3.538,3.538,0,0,1,.495.686l.049.089h.538l-.119-.251a3.548,3.548,0,0,0-1.114-1.3,3.169,3.169,0,0,0-.578-.334l-.008,0a4.346,4.346,0,0,0-.634-.2,3.142,3.142,0,0,0-1.387,0,3.79,3.79,0,0,0-.626.2h0a2.942,2.942,0,0,0-.592.334,3.221,3.221,0,0,0-.5.435,2.978,2.978,0,0,0-.431.526,3.44,3.44,0,0,0-.309.6v0a4.293,4.293,0,0,0-.191.661,3.4,3.4,0,0,0,0,1.416,4.46,4.46,0,0,0,.191.664v0a3.651,3.651,0,0,0,.309.6,3.1,3.1,0,0,0,.431.52,3.221,3.221,0,0,0,.5.438,2.852,2.852,0,0,0,.592.332h0a3.835,3.835,0,0,0,.626.2,3.24,3.24,0,0,0,1.387,0,4.286,4.286,0,0,0,.634-.2l.008-.005a2.66,2.66,0,0,0,.578-.332,3.455,3.455,0,0,0,.507-.435,3.385,3.385,0,0,0,.607-.863l.119-.251H347.6Z" transform="translate(-273.234 -91.763)" fill="#1a1311"/>
      <path id="パス_140544" data-name="パス 140544" d="M393.3,121.836h.567l-4.084-7.088-4.09,7.088h.568l1.565-2.712h3.912Zm-5.184-3.216,1.666-2.887,1.664,2.887Z" transform="translate(-308.524 -91.763)" fill="#1a1311"/>
      <path id="パス_140545" data-name="パス 140545" d="M449.1,121.837h-.644l-2.017-2.848h-3.345v2.848h-.53v-7.088H446.7a2.121,2.121,0,0,1,.361,4.209Zm-6.005-3.366H446.7a1.6,1.6,0,0,0,0-3.2h-3.606Z" transform="translate(-354.014 -91.763)" fill="#1a1311"/>
      <path id="パス_140546" data-name="パス 140546" d="M496.841,115.281v-.532h-4.695v7.088h4.695v-.529h-4.166v-2.321h4.017v-.529h-4.017v-3.177Z" transform="translate(-393.677 -91.763)" fill="#1a1311"/>
      <path id="パス_140547" data-name="パス 140547" d="M537.031,115.281v-.532h-4.694v7.088h4.694v-.529h-4.166v-2.321h4.017v-.529h-4.017v-3.177Z" transform="translate(-425.826 -91.763)" fill="#1a1311"/>
      <path id="パス_140548" data-name="パス 140548" d="M578.972,121.837h-.644l-2.017-2.848h-3.345v2.848h-.53v-7.088h4.136a2.121,2.121,0,0,1,.361,4.209Zm-6.006-3.366h3.606a1.6,1.6,0,0,0,0-3.2h-3.606Z" transform="translate(-457.902 -91.763)" fill="#1a1311"/>
    </g>
  </g>
</svg>
