<svg id="logo_white" xmlns="http://www.w3.org/2000/svg" xmlns:xlink="http://www.w3.org/1999/xlink" width="271" height="68" viewBox="0 0 271 68">
  <defs>
    <clipPath id="clip-path">
      <rect id="長方形_9267" data-name="長方形 9267" width="271" height="68" fill="none"/>
    </clipPath>
  </defs>
  <path id="パス_108416" data-name="パス 108416" d="M0,122.995H78.153L19.539,89.115Z" transform="translate(0 -55.231)" fill="#d4d5d5"/>
  <path id="パス_108417" data-name="パス 108417" d="M70.987,0,51.447,33.883,80.756,16.94Z" transform="translate(-31.908 0)" fill="#dc000c"/>
  <path id="パス_108418" data-name="パス 108418" d="M51.447,61.5l58.615,33.88L80.756,44.552Z" transform="translate(-31.908 -27.612)" fill="#9a9b9b"/>
  <path id="パス_108419" data-name="パス 108419" d="M51.447,61.5l58.615,33.88-1.1-1.912L53.652,61.5,81.307,45.509l-.55-.958Z" transform="translate(-31.908 -27.612)" fill="#1a1311"/>
  <g id="グループ_23197" data-name="グループ 23197">
    <g id="グループ_23196" data-name="グループ 23196" clip-path="url(#clip-path)">
      <path id="パス_108420" data-name="パス 108420" d="M296.616,51.034a8.75,8.75,0,0,1-2.02-.229,10.175,10.175,0,0,1-1.829-.619,7.953,7.953,0,0,1-1.725-.935,8.94,8.94,0,0,1-1.45-1.29,9.635,9.635,0,0,1-1.248-1.526,9.063,9.063,0,0,1-.9-1.772,11.923,11.923,0,0,1-.564-1.909,9.936,9.936,0,0,1-.212-2.089,9.806,9.806,0,0,1,.212-2.056,13.016,13.016,0,0,1,.563-1.935l0-.008a9.628,9.628,0,0,1,.9-1.746,8.576,8.576,0,0,1,1.255-1.527,9.271,9.271,0,0,1,3.167-2.248l.008,0a12.691,12.691,0,0,1,1.826-.583,9.034,9.034,0,0,1,4.041,0,13.708,13.708,0,0,1,1.85.581l.019.008a9.564,9.564,0,0,1,1.685.966,10.7,10.7,0,0,1,1.482,1.286,9.867,9.867,0,0,1,1.762,2.515l.354.728h-1.573l-.14-.26a9.891,9.891,0,0,0-1.439-2,12.516,12.516,0,0,0-1.3-1.079,7.472,7.472,0,0,0-1.422-.8l-.014,0a7.5,7.5,0,0,0-1.581-.525,8.285,8.285,0,0,0-1.708-.174,8.083,8.083,0,0,0-1.691.174,8.236,8.236,0,0,0-1.6.526l-.01,0a8.18,8.18,0,0,0-1.437.8,8.545,8.545,0,0,0-1.243,1.068,9.342,9.342,0,0,0-1.85,2.857,7.78,7.78,0,0,0-.481,1.633,10.256,10.256,0,0,0,0,3.616,8.654,8.654,0,0,0,.481,1.652,9.5,9.5,0,0,0,1.85,2.823l.009.009a7.449,7.449,0,0,0,1.234,1.088,9.164,9.164,0,0,0,1.436.83,13.891,13.891,0,0,0,1.623.488,7.55,7.55,0,0,0,1.683.185,7.744,7.744,0,0,0,1.7-.185,12.466,12.466,0,0,0,1.6-.486,8.6,8.6,0,0,0,1.422-.83,10.1,10.1,0,0,0,1.3-1.105,9.712,9.712,0,0,0,1.027-1.29,8.052,8.052,0,0,0,.786-1.519l0,0a10.876,10.876,0,0,0,.473-1.511H295.43V41.154h11.077v9.417H305.1V46.054c-.074.129-.155.255-.235.381a12.532,12.532,0,0,1-1.18,1.519l-.015.016a12.1,12.1,0,0,1-1.506,1.281,8.754,8.754,0,0,1-1.658.935,11.368,11.368,0,0,1-1.864.619,8.754,8.754,0,0,1-2.022.229" transform="translate(-177.794 -18.799)" fill="#fff"/>
      <path id="パス_108421" data-name="パス 108421" d="M519.178,51.032a8.731,8.731,0,0,1-2.018-.229,10.443,10.443,0,0,1-1.831-.619,7.9,7.9,0,0,1-1.726-.938,9.008,9.008,0,0,1-1.45-1.287,9.694,9.694,0,0,1-1.247-1.526,9.06,9.06,0,0,1-.9-1.773,11.732,11.732,0,0,1-.565-1.908,10.238,10.238,0,0,1-.21-2.089,10.086,10.086,0,0,1,.21-2.056A12.82,12.82,0,0,1,510,36.672l0-.008a9.985,9.985,0,0,1,.9-1.747,8.255,8.255,0,0,1,1.255-1.522,9.2,9.2,0,0,1,3.167-2.251l.007,0a11.965,11.965,0,0,1,1.827-.582,8.932,8.932,0,0,1,4.041,0,13.141,13.141,0,0,1,1.849.58l.018.008a9.446,9.446,0,0,1,1.687.965A10.208,10.208,0,0,1,526.23,33.4a8.94,8.94,0,0,1,1.214,1.524,12.643,12.643,0,0,1,.9,1.732l0,0a10.413,10.413,0,0,1,.589,1.96,10.783,10.783,0,0,1,.194,2.047,11.007,11.007,0,0,1-.194,2.082,9.7,9.7,0,0,1-.589,1.928,11.287,11.287,0,0,1-.908,1.754,10.43,10.43,0,0,1-2.687,2.817,8.144,8.144,0,0,1-1.693.938,11.462,11.462,0,0,1-1.86.619,8.8,8.8,0,0,1-2.023.229m-3.307-2.151a13.856,13.856,0,0,0,1.625.489,7.565,7.565,0,0,0,1.682.184,7.8,7.8,0,0,0,1.7-.184,12.479,12.479,0,0,0,1.605-.487,8.393,8.393,0,0,0,1.418-.83,10.159,10.159,0,0,0,1.3-1.106,9.327,9.327,0,0,0,1.026-1.29,7.91,7.91,0,0,0,.785-1.518l.005,0a9.249,9.249,0,0,0,.495-1.662,9.267,9.267,0,0,0,0-3.6,8.234,8.234,0,0,0-.495-1.64v0a9.261,9.261,0,0,0-.793-1.515,10.878,10.878,0,0,0-1.023-1.333,12.5,12.5,0,0,0-1.3-1.074,7.053,7.053,0,0,0-1.418-.8l-.013-.007a7.36,7.36,0,0,0-1.583-.523,8.155,8.155,0,0,0-1.709-.176,7.993,7.993,0,0,0-1.693.176,8.31,8.31,0,0,0-1.6.525l-.008,0a7.846,7.846,0,0,0-1.438.8,8.14,8.14,0,0,0-1.24,1.067,9.339,9.339,0,0,0-1.856,2.858,8.052,8.052,0,0,0-.478,1.634,10.144,10.144,0,0,0,0,3.613,8.935,8.935,0,0,0,.478,1.652,9.451,9.451,0,0,0,1.853,2.82l.011.012a7.337,7.337,0,0,0,1.232,1.088,9.327,9.327,0,0,0,1.435.83" transform="translate(-315.831 -18.797)" fill="#fff"/>
      <path id="パス_108422" data-name="パス 108422" d="M598.028,51.032a8.8,8.8,0,0,1-2.022-.229,10.4,10.4,0,0,1-1.828-.619,7.875,7.875,0,0,1-1.726-.938A8.824,8.824,0,0,1,591,47.96a9.783,9.783,0,0,1-1.25-1.526,9.13,9.13,0,0,1-.9-1.773,11.659,11.659,0,0,1-.564-1.908,10.162,10.162,0,0,1-.214-2.089,10.017,10.017,0,0,1,.214-2.056,12.736,12.736,0,0,1,.564-1.935v-.008a10.058,10.058,0,0,1,.9-1.747,8.209,8.209,0,0,1,1.254-1.522,9.147,9.147,0,0,1,3.168-2.251l.007,0a12.069,12.069,0,0,1,1.824-.582,8.947,8.947,0,0,1,4.045,0,13.207,13.207,0,0,1,1.847.58l.021.008a9.5,9.5,0,0,1,1.684.965A10.415,10.415,0,0,1,605.08,33.4a8.562,8.562,0,0,1,1.215,1.524,13.409,13.409,0,0,1,.9,1.732v0a10.052,10.052,0,0,1,.588,1.958,10.742,10.742,0,0,1,.194,2.049,10.956,10.956,0,0,1-.194,2.082,9.734,9.734,0,0,1-.588,1.928,11.183,11.183,0,0,1-.908,1.754,10.032,10.032,0,0,1-1.207,1.531,10.5,10.5,0,0,1-1.481,1.287,8.073,8.073,0,0,1-1.694.938,11.346,11.346,0,0,1-1.858.619,8.786,8.786,0,0,1-2.023.229m-3.3-2.151a13.461,13.461,0,0,0,1.623.489,7.58,7.58,0,0,0,1.682.184,7.788,7.788,0,0,0,1.7-.184,12.078,12.078,0,0,0,1.6-.487,8.423,8.423,0,0,0,1.422-.83,10.237,10.237,0,0,0,1.3-1.106,9.122,9.122,0,0,0,1.025-1.29,8.256,8.256,0,0,0,.79-1.518v0a9.591,9.591,0,0,0,.5-1.662,9.33,9.33,0,0,0,0-3.6,8.507,8.507,0,0,0-.493-1.64l0,0a8.979,8.979,0,0,0-.792-1.515,10.82,10.82,0,0,0-1.022-1.333,12.326,12.326,0,0,0-1.3-1.074,7.079,7.079,0,0,0-1.422-.8l-.014-.007a7.343,7.343,0,0,0-1.581-.523,8.165,8.165,0,0,0-1.708-.176,7.944,7.944,0,0,0-1.691.176,8.16,8.16,0,0,0-1.6.525l-.009,0a7.938,7.938,0,0,0-1.443.8,8.686,8.686,0,0,0-1.24,1.067,9.357,9.357,0,0,0-1.852,2.858h0a7.792,7.792,0,0,0-.479,1.634,10.155,10.155,0,0,0,0,3.613,8.759,8.759,0,0,0,.48,1.652,9.42,9.42,0,0,0,1.852,2.82l.008.012a7.561,7.561,0,0,0,1.231,1.088,9.254,9.254,0,0,0,1.441.83" transform="translate(-364.733 -18.797)" fill="#fff"/>
      <path id="パス_108423" data-name="パス 108423" d="M671.641,51.333H670.2v-18.3h-9.327V31.589h20.064v1.446h-9.3Z" transform="translate(-409.883 -19.578)" fill="#fff"/>
      <path id="パス_108424" data-name="パス 108424" d="M456.573,51.333h-1.8L449.157,43.4h-9.319v7.934h-1.476V31.589h11.523a5.906,5.906,0,0,1,1.005,11.722Zm-16.735-9.378h10.047a4.462,4.462,0,0,0,0-8.924H439.838Z" transform="translate(-271.878 -19.578)" fill="#fff"/>
      <path id="パス_108425" data-name="パス 108425" d="M482.941,51.333l-2.065-.883,68.361-18.861.463,1.367Z" transform="translate(-298.246 -19.578)" fill="#fff"/>
      <path id="パス_108426" data-name="パス 108426" d="M238.175,49.7h-1.663l-10.3-17.862L215.912,49.7h-1.663L226.213,28.96Z" transform="translate(-132.88 -17.949)" fill="#fff"/>
      <path id="パス_108427" data-name="パス 108427" d="M241.564,60.231H228.256l.319-1.477h12.671Z" transform="translate(-141.568 -36.414)" fill="#fff"/>
      <path id="パス_108428" data-name="パス 108428" d="M381.038,49.7h-1.66l-10.3-17.862L358.774,49.7h-1.66L369.075,28.96Z" transform="translate(-221.487 -17.949)" fill="#fff"/>
      <path id="パス_108429" data-name="パス 108429" d="M384.421,60.231H371.11l.319-1.477H384.1Z" transform="translate(-230.168 -36.414)" fill="#fff"/>
    </g>
  </g>
  <g id="グループ_23199" data-name="グループ 23199">
    <g id="グループ_23198" data-name="グループ 23198" clip-path="url(#clip-path)">
      <path id="パス_108430" data-name="パス 108430" d="M352.919,124.263a6.479,6.479,0,0,1-.939,1.3,8.6,8.6,0,0,1-.844.707,5.254,5.254,0,0,1-.925.517l-.009.005a4.622,4.622,0,0,1-1.03.335,5.334,5.334,0,0,1-1.115.116,5.331,5.331,0,0,1-2.143-.452l-.006,0a5.638,5.638,0,0,1-.939-.517,5.706,5.706,0,0,1-.809-.7,6.061,6.061,0,0,1-1.206-1.86,5.129,5.129,0,0,1-.31-1.062,6.384,6.384,0,0,1,0-2.345,5.088,5.088,0,0,1,.31-1.064,6.068,6.068,0,0,1,1.206-1.86,5.369,5.369,0,0,1,1.748-1.223h.006a5.845,5.845,0,0,1,1.042-.335,5.04,5.04,0,0,1,1.1-.121,5.338,5.338,0,0,1,2.144.456h.009a5.619,5.619,0,0,1,.925.523,8.423,8.423,0,0,1,.844.706,6.725,6.725,0,0,1,.939,1.3l.093.17h1.02l-.226-.476a6.732,6.732,0,0,0-2.115-2.47,6.013,6.013,0,0,0-1.1-.633l-.015,0a8.247,8.247,0,0,0-1.2-.377,5.963,5.963,0,0,0-2.633,0,7.193,7.193,0,0,0-1.188.382h0a5.587,5.587,0,0,0-1.124.633,6.116,6.116,0,0,0-.94.825,5.653,5.653,0,0,0-.818,1,6.522,6.522,0,0,0-.586,1.137l0,0a8.126,8.126,0,0,0-.363,1.255,6.441,6.441,0,0,0,0,2.687,8.44,8.44,0,0,0,.363,1.26l0,0a6.922,6.922,0,0,0,.586,1.142,5.874,5.874,0,0,0,.818.987,6.117,6.117,0,0,0,.94.832,5.416,5.416,0,0,0,1.124.63h0a7.279,7.279,0,0,0,1.188.386,6.149,6.149,0,0,0,2.633,0,8.133,8.133,0,0,0,1.2-.383l.015-.01a5.049,5.049,0,0,0,1.1-.63,6.567,6.567,0,0,0,.962-.825,6.431,6.431,0,0,0,1.153-1.638l.226-.477h-1.02Z" transform="translate(-211.851 -71.118)" fill="#fff"/>
      <path id="パス_108431" data-name="パス 108431" d="M400.136,128.2h1.076l-7.753-13.455L385.695,128.2h1.079l2.971-5.147h7.425Zm-9.84-6.1,3.163-5.481,3.159,5.481Z" transform="translate(-239.214 -71.118)" fill="#fff"/>
      <path id="パス_108432" data-name="パス 108432" d="M454.969,128.2h-1.223l-3.828-5.406H443.57V128.2h-1.007V114.749h7.851a4.025,4.025,0,0,1,.686,7.99Zm-11.4-6.39h6.844a3.039,3.039,0,0,0,0-6.077H443.57Z" transform="translate(-274.484 -71.119)" fill="#fff"/>
      <path id="パス_108433" data-name="パス 108433" d="M501.057,115.759v-1.011h-8.911V128.2h8.911v-1H493.15v-4.406h7.625v-1H493.15v-6.031Z" transform="translate(-305.236 -71.118)" fill="#fff"/>
      <path id="パス_108434" data-name="パス 108434" d="M541.248,115.759v-1.011h-8.911V128.2h8.911v-1h-7.907v-4.406h7.625v-1h-7.625v-6.031Z" transform="translate(-330.163 -71.118)" fill="#fff"/>
      <path id="パス_108435" data-name="パス 108435" d="M584.842,128.2h-1.223l-3.828-5.406h-6.349V128.2h-1.006V114.749h7.851a4.025,4.025,0,0,1,.685,7.99Zm-11.4-6.39h6.844a3.039,3.039,0,0,0,0-6.077h-6.844Z" transform="translate(-355.033 -71.119)" fill="#fff"/>
    </g>
  </g>
</svg>
