<svg id="logo" xmlns="http://www.w3.org/2000/svg" xmlns:xlink="http://www.w3.org/1999/xlink" width="192" height="48" viewBox="0 0 192 48">
  <defs>
    <clipPath id="clip-path">
      <rect id="長方形_9263" data-name="長方形 9263" width="192" height="48" fill="none"/>
    </clipPath>
  </defs>
  <path id="パス_140529" data-name="パス 140529" d="M0,113.114H55.359l-41.519-24Z" transform="translate(0 -65.114)" fill="#d4d5d5"/>
  <path id="パス_140530" data-name="パス 140530" d="M65.288,0,51.447,24,72.208,12Z" transform="translate(-37.607 0)" fill="#dc000c"/>
  <path id="パス_140531" data-name="パス 140531" d="M51.447,56.554l41.519,24-20.758-36Z" transform="translate(-37.607 -32.553)" fill="#9a9b9b"/>
  <path id="パス_140532" data-name="パス 140532" d="M51.447,56.554l41.519,24L92.188,79.2,53.009,56.554,72.6,45.23l-.39-.678Z" transform="translate(-37.607 -32.553)" fill="#1a1311"/>
  <g id="グループ_24026" data-name="グループ 24026">
    <g id="グループ_24025" data-name="グループ 24025" clip-path="url(#clip-path)">
      <path id="パス_140533" data-name="パス 140533" d="M293.714,45a6.2,6.2,0,0,1-1.431-.162,7.2,7.2,0,0,1-1.3-.438,5.634,5.634,0,0,1-1.222-.662,6.33,6.33,0,0,1-1.027-.914,6.828,6.828,0,0,1-.884-1.081,6.42,6.42,0,0,1-.639-1.255,8.452,8.452,0,0,1-.4-1.352,7.039,7.039,0,0,1-.15-1.48,6.947,6.947,0,0,1,.15-1.457,9.221,9.221,0,0,1,.4-1.371l0-.005a6.816,6.816,0,0,1,.636-1.237,6.075,6.075,0,0,1,.889-1.081,6.567,6.567,0,0,1,2.243-1.592l.006,0a8.991,8.991,0,0,1,1.293-.413,6.4,6.4,0,0,1,2.863,0,9.71,9.71,0,0,1,1.311.412l.013.005a6.775,6.775,0,0,1,1.194.684,7.587,7.587,0,0,1,1.05.911,6.991,6.991,0,0,1,1.248,1.781l.25.515H299.1l-.1-.184a7.006,7.006,0,0,0-1.019-1.416,8.867,8.867,0,0,0-.918-.764,5.293,5.293,0,0,0-1.007-.566l-.01,0a5.312,5.312,0,0,0-1.12-.372,5.868,5.868,0,0,0-1.21-.123,5.725,5.725,0,0,0-1.2.123,5.834,5.834,0,0,0-1.136.373h-.007a5.791,5.791,0,0,0-1.018.567,6.05,6.05,0,0,0-.881.757,6.617,6.617,0,0,0-1.311,2.024,5.511,5.511,0,0,0-.341,1.157,7.263,7.263,0,0,0,0,2.561,6.126,6.126,0,0,0,.341,1.171,6.726,6.726,0,0,0,1.311,2l.007.006a5.276,5.276,0,0,0,.874.771,6.491,6.491,0,0,0,1.017.588,9.841,9.841,0,0,0,1.15.346,5.348,5.348,0,0,0,1.192.131,5.485,5.485,0,0,0,1.2-.131,8.832,8.832,0,0,0,1.136-.344,6.1,6.1,0,0,0,1.007-.588,7.146,7.146,0,0,0,.918-.783,6.872,6.872,0,0,0,.728-.914,5.7,5.7,0,0,0,.557-1.076v0a7.71,7.71,0,0,0,.335-1.071h-6.725V38h7.846v6.671h-1v-3.2c-.052.091-.11.181-.167.27a8.877,8.877,0,0,1-.836,1.076l-.011.012a8.574,8.574,0,0,1-1.067.908,6.2,6.2,0,0,1-1.175.662,8.057,8.057,0,0,1-1.32.438,6.2,6.2,0,0,1-1.432.162" transform="translate(-209.546 -22.163)" fill="#1a1311"/>
      <path id="パス_140534" data-name="パス 140534" d="M516.276,44.994a6.185,6.185,0,0,1-1.43-.162,7.4,7.4,0,0,1-1.3-.438,5.6,5.6,0,0,1-1.222-.664,6.381,6.381,0,0,1-1.027-.911,6.874,6.874,0,0,1-.883-1.081,6.419,6.419,0,0,1-.639-1.256,8.313,8.313,0,0,1-.4-1.352,7.255,7.255,0,0,1-.149-1.48,7.147,7.147,0,0,1,.149-1.456,9.083,9.083,0,0,1,.4-1.371v-.005a7.067,7.067,0,0,1,.637-1.237A5.843,5.843,0,0,1,511.3,32.5a6.513,6.513,0,0,1,2.244-1.594l0,0a8.48,8.48,0,0,1,1.294-.412,6.327,6.327,0,0,1,2.863,0,9.3,9.3,0,0,1,1.31.411l.013.005a6.7,6.7,0,0,1,1.195.684,7.237,7.237,0,0,1,1.045.908,6.325,6.325,0,0,1,.86,1.08,8.943,8.943,0,0,1,.64,1.227l0,0a7.385,7.385,0,0,1,.417,1.388,7.637,7.637,0,0,1,.138,1.45,7.8,7.8,0,0,1-.138,1.475,6.881,6.881,0,0,1-.417,1.366,8.006,8.006,0,0,1-.643,1.243,7.386,7.386,0,0,1-1.9,2,5.768,5.768,0,0,1-1.2.664,8.125,8.125,0,0,1-1.318.438,6.228,6.228,0,0,1-1.433.162m-2.342-1.524a9.794,9.794,0,0,0,1.151.347,5.358,5.358,0,0,0,1.191.131,5.528,5.528,0,0,0,1.2-.131,8.841,8.841,0,0,0,1.137-.345,5.949,5.949,0,0,0,1-.588,7.2,7.2,0,0,0,.92-.783,6.605,6.605,0,0,0,.726-.914,5.606,5.606,0,0,0,.556-1.075l0,0a6.562,6.562,0,0,0,.351-1.178,6.57,6.57,0,0,0,0-2.551,5.836,5.836,0,0,0-.351-1.161v0a6.569,6.569,0,0,0-.562-1.073,7.7,7.7,0,0,0-.725-.945,8.88,8.88,0,0,0-.92-.761,5,5,0,0,0-1-.565l-.009,0a5.216,5.216,0,0,0-1.122-.37,5.778,5.778,0,0,0-1.21-.125,5.661,5.661,0,0,0-1.2.125,5.886,5.886,0,0,0-1.136.372l-.005,0a5.562,5.562,0,0,0-1.018.565,5.765,5.765,0,0,0-.878.756,6.61,6.61,0,0,0-1.314,2.025,5.693,5.693,0,0,0-.339,1.158,7.188,7.188,0,0,0,0,2.559,6.317,6.317,0,0,0,.339,1.171,6.691,6.691,0,0,0,1.312,2l.008.008a5.2,5.2,0,0,0,.872.771,6.608,6.608,0,0,0,1.017.588" transform="translate(-372.236 -22.16)" fill="#1a1311"/>
      <path id="パス_140535" data-name="パス 140535" d="M595.125,44.994a6.23,6.23,0,0,1-1.432-.162,7.357,7.357,0,0,1-1.295-.438,5.577,5.577,0,0,1-1.223-.664,6.251,6.251,0,0,1-1.026-.911,6.929,6.929,0,0,1-.886-1.081,6.455,6.455,0,0,1-.638-1.256,8.268,8.268,0,0,1-.4-1.352,7.207,7.207,0,0,1-.152-1.48,7.1,7.1,0,0,1,.152-1.456,9.031,9.031,0,0,1,.4-1.371v-.005a7.116,7.116,0,0,1,.638-1.237,5.813,5.813,0,0,1,.889-1.078,6.478,6.478,0,0,1,2.244-1.594l0,0a8.552,8.552,0,0,1,1.292-.412,6.338,6.338,0,0,1,2.865,0,9.358,9.358,0,0,1,1.308.411l.015.005a6.724,6.724,0,0,1,1.193.684,7.372,7.372,0,0,1,1.046.908,6.062,6.062,0,0,1,.861,1.08,9.489,9.489,0,0,1,.641,1.227v0a7.13,7.13,0,0,1,.416,1.387,7.616,7.616,0,0,1,.138,1.451,7.767,7.767,0,0,1-.138,1.475,6.909,6.909,0,0,1-.416,1.366,7.924,7.924,0,0,1-.644,1.243,7.091,7.091,0,0,1-.855,1.084,7.436,7.436,0,0,1-1.049.911,5.716,5.716,0,0,1-1.2.664,8.044,8.044,0,0,1-1.316.438,6.226,6.226,0,0,1-1.433.162m-2.341-1.524a9.541,9.541,0,0,0,1.15.347,5.369,5.369,0,0,0,1.191.131,5.519,5.519,0,0,0,1.2-.131,8.569,8.569,0,0,0,1.136-.345,5.978,5.978,0,0,0,1.007-.588,7.248,7.248,0,0,0,.919-.783,6.462,6.462,0,0,0,.726-.914,5.849,5.849,0,0,0,.559-1.075v0a6.782,6.782,0,0,0,.355-1.178,6.608,6.608,0,0,0,0-2.551,6.009,6.009,0,0,0-.349-1.161l0,0a6.353,6.353,0,0,0-.561-1.073,7.658,7.658,0,0,0-.724-.945,8.725,8.725,0,0,0-.919-.761,5.022,5.022,0,0,0-1.007-.565l-.01,0a5.2,5.2,0,0,0-1.12-.37,5.782,5.782,0,0,0-1.21-.125,5.628,5.628,0,0,0-1.2.125,5.785,5.785,0,0,0-1.135.372l-.006,0a5.628,5.628,0,0,0-1.022.565,6.139,6.139,0,0,0-.878.756,6.623,6.623,0,0,0-1.312,2.025h0a5.5,5.5,0,0,0-.339,1.158,7.193,7.193,0,0,0,0,2.559,6.193,6.193,0,0,0,.34,1.171,6.667,6.667,0,0,0,1.312,2l.006.008a5.353,5.353,0,0,0,.872.771,6.562,6.562,0,0,0,1.02.588" transform="translate(-429.871 -22.16)" fill="#1a1311"/>
      <path id="パス_140536" data-name="パス 140536" d="M668.5,45.574h-1.021V32.613h-6.606V31.589h14.212v1.025H668.5Z" transform="translate(-483.085 -23.081)" fill="#1a1311"/>
      <path id="パス_140537" data-name="パス 140537" d="M451.262,45.575H449.99l-3.982-5.62h-6.6v5.62h-1.045V31.589h8.162a4.183,4.183,0,0,1,.712,8.3Zm-11.854-6.643h7.117a3.161,3.161,0,0,0,0-6.321h-7.117Z" transform="translate(-320.434 -23.081)" fill="#1a1311"/>
      <path id="パス_140538" data-name="パス 140538" d="M482.339,45.574l-1.463-.625L529.3,31.589l.328.969Z" transform="translate(-351.511 -23.081)" fill="#1a1311"/>
      <path id="パス_140539" data-name="パス 140539" d="M231.2,43.653h-1.178L222.723,31l-7.3,12.653h-1.178l8.474-14.694Z" transform="translate(-156.612 -21.16)" fill="#1a1311"/>
      <path id="パス_140540" data-name="パス 140540" d="M237.683,59.8h-9.426l.226-1.046h8.975Z" transform="translate(-166.851 -42.929)" fill="#1a1311"/>
      <path id="パス_140541" data-name="パス 140541" d="M374.061,43.653h-1.176L365.586,31l-7.3,12.653h-1.176l8.472-14.694Z" transform="translate(-261.043 -21.16)" fill="#1a1311"/>
      <path id="パス_140542" data-name="パス 140542" d="M380.539,59.8H371.11l.226-1.046h8.976Z" transform="translate(-271.274 -42.929)" fill="#1a1311"/>
    </g>
  </g>
  <g id="グループ_24028" data-name="グループ 24028">
    <g id="グループ_24027" data-name="グループ 24027" clip-path="url(#clip-path)">
      <path id="パス_140543" data-name="パス 140543" d="M349.611,121.488a4.587,4.587,0,0,1-.665.922,6.088,6.088,0,0,1-.6.5,3.723,3.723,0,0,1-.655.366l-.006,0a3.274,3.274,0,0,1-.729.237,3.778,3.778,0,0,1-.79.082,3.776,3.776,0,0,1-1.518-.32l0,0a4,4,0,0,1-.665-.366,4.043,4.043,0,0,1-.573-.5,4.293,4.293,0,0,1-.854-1.318,3.627,3.627,0,0,1-.22-.752,4.521,4.521,0,0,1,0-1.661,3.6,3.6,0,0,1,.22-.754,4.3,4.3,0,0,1,.854-1.318,3.8,3.8,0,0,1,1.238-.866h0a4.139,4.139,0,0,1,.738-.237,3.57,3.57,0,0,1,.779-.085,3.781,3.781,0,0,1,1.519.323h.006a3.979,3.979,0,0,1,.655.37,5.957,5.957,0,0,1,.6.5,4.761,4.761,0,0,1,.665.922l.066.12h.723l-.16-.337a4.77,4.77,0,0,0-1.5-1.75,4.26,4.26,0,0,0-.777-.448l-.011,0a5.843,5.843,0,0,0-.852-.267,4.224,4.224,0,0,0-1.865,0,5.1,5.1,0,0,0-.842.271h0a3.957,3.957,0,0,0-.8.448,4.329,4.329,0,0,0-.666.585,4,4,0,0,0-.58.708,4.624,4.624,0,0,0-.415.805l0,0a5.767,5.767,0,0,0-.257.889,4.565,4.565,0,0,0,0,1.9,5.99,5.99,0,0,0,.257.893l0,0a4.908,4.908,0,0,0,.415.809,4.16,4.16,0,0,0,.58.7,4.329,4.329,0,0,0,.666.589,3.835,3.835,0,0,0,.8.447h0a5.158,5.158,0,0,0,.842.274,4.357,4.357,0,0,0,1.865,0,5.764,5.764,0,0,0,.852-.271l.011-.007a3.577,3.577,0,0,0,.777-.446,4.647,4.647,0,0,0,.681-.585,4.551,4.551,0,0,0,.817-1.16l.16-.338h-.723Z" transform="translate(-249.686 -83.843)" fill="#1a1311"/>
      <path id="パス_140544" data-name="パス 140544" d="M395.924,124.279h.762l-5.492-9.531-5.5,9.531h.764l2.1-3.646h5.26Zm-6.97-4.324,2.24-3.882,2.238,3.882Z" transform="translate(-281.935 -83.843)" fill="#1a1311"/>
      <path id="パス_140545" data-name="パス 140545" d="M451.351,124.28h-.866l-2.712-3.83h-4.5v3.83h-.713v-9.531h5.561a2.851,2.851,0,0,1,.486,5.66Zm-8.075-4.526h4.848a2.152,2.152,0,0,0,0-4.3h-4.848Z" transform="translate(-323.505 -83.844)" fill="#1a1311"/>
      <path id="パス_140546" data-name="パス 140546" d="M498.458,115.464v-.716h-6.312v9.531h6.312v-.711h-5.6v-3.121h5.4v-.711h-5.4v-4.272Z" transform="translate(-359.749 -83.843)" fill="#1a1311"/>
      <path id="パス_140547" data-name="パス 140547" d="M538.649,115.464v-.716h-6.312v9.531h6.312v-.711h-5.6v-3.121h5.4v-.711h-5.4v-4.272Z" transform="translate(-389.128 -83.843)" fill="#1a1311"/>
      <path id="パス_140548" data-name="パス 140548" d="M581.224,124.28h-.866l-2.712-3.83h-4.5v3.83h-.713v-9.531H578a2.851,2.851,0,0,1,.486,5.66Zm-8.075-4.526H578a2.152,2.152,0,0,0,0-4.3h-4.848Z" transform="translate(-418.439 -83.844)" fill="#1a1311"/>
    </g>
  </g>
</svg>
