<svg id="header_logo" xmlns="http://www.w3.org/2000/svg" xmlns:xlink="http://www.w3.org/1999/xlink" width="184" height="46" viewBox="0 0 184 46">
  <defs>
    <clipPath id="clip-path">
      <rect id="長方形_9267" data-name="長方形 9267" width="184" height="46" fill="none"/>
    </clipPath>
  </defs>
  <path id="パス_108416" data-name="パス 108416" d="M0,112.114H53.053l-39.789-23Z" transform="translate(0 -66.114)" fill="#d4d5d5"/>
  <path id="パス_108417" data-name="パス 108417" d="M64.711,0,51.447,23l19.9-11.5Z" transform="translate(-38.183 0)" fill="#dc000c"/>
  <path id="パス_108418" data-name="パス 108418" d="M51.447,56.054l39.789,23-19.893-34.5Z" transform="translate(-38.183 -33.052)" fill="#9a9b9b"/>
  <path id="パス_108419" data-name="パス 108419" d="M51.447,56.054l39.789,23-.746-1.3-37.547-21.7L71.717,45.2l-.374-.65Z" transform="translate(-38.183 -33.052)" fill="#1a1311"/>
  <g id="グループ_23197" data-name="グループ 23197">
    <g id="グループ_23196" data-name="グループ 23196" clip-path="url(#clip-path)">
      <path id="パス_108420" data-name="パス 108420" d="M293.42,44.385a5.94,5.94,0,0,1-1.371-.155,6.907,6.907,0,0,1-1.242-.42,5.4,5.4,0,0,1-1.171-.634,6.068,6.068,0,0,1-.984-.876,6.54,6.54,0,0,1-.847-1.036,6.154,6.154,0,0,1-.613-1.2,8.1,8.1,0,0,1-.383-1.3,6.747,6.747,0,0,1-.144-1.418,6.659,6.659,0,0,1,.144-1.4,8.838,8.838,0,0,1,.382-1.314l0-.005a6.537,6.537,0,0,1,.609-1.185,5.823,5.823,0,0,1,.852-1.036,6.293,6.293,0,0,1,2.15-1.526l.005,0a8.616,8.616,0,0,1,1.24-.4,6.132,6.132,0,0,1,2.743,0,9.305,9.305,0,0,1,1.256.394l.013.005a6.492,6.492,0,0,1,1.144.656,7.265,7.265,0,0,1,1.006.873,6.7,6.7,0,0,1,1.2,1.707l.24.494H298.58l-.1-.176a6.714,6.714,0,0,0-.977-1.357,8.5,8.5,0,0,0-.88-.732,5.072,5.072,0,0,0-.965-.543l-.01,0a5.088,5.088,0,0,0-1.073-.356,5.624,5.624,0,0,0-1.16-.118,5.487,5.487,0,0,0-1.148.118,5.591,5.591,0,0,0-1.089.357h-.007a5.552,5.552,0,0,0-.976.544,5.8,5.8,0,0,0-.844.725,6.341,6.341,0,0,0-1.256,1.939,5.28,5.28,0,0,0-.326,1.108,6.96,6.96,0,0,0,0,2.454A5.873,5.873,0,0,0,288.1,39.7a6.445,6.445,0,0,0,1.256,1.916l.006.006a5.056,5.056,0,0,0,.838.738,6.222,6.222,0,0,0,.975.563,9.432,9.432,0,0,0,1.1.331,5.125,5.125,0,0,0,1.143.126,5.257,5.257,0,0,0,1.154-.126,8.464,8.464,0,0,0,1.088-.33,5.841,5.841,0,0,0,.965-.563,6.854,6.854,0,0,0,.879-.75,6.593,6.593,0,0,0,.7-.876,5.467,5.467,0,0,0,.534-1.031v0a7.384,7.384,0,0,0,.321-1.026h-6.445v-1h7.519v6.393h-.958V41c-.05.087-.105.173-.16.259a8.5,8.5,0,0,1-.8,1.031l-.01.011a8.214,8.214,0,0,1-1.022.87,5.943,5.943,0,0,1-1.126.634,7.718,7.718,0,0,1-1.265.42,5.942,5.942,0,0,1-1.372.155" transform="translate(-212.76 -22.503)" fill="#fff"/>
      <path id="パス_108421" data-name="パス 108421" d="M515.983,44.383a5.926,5.926,0,0,1-1.37-.155,7.089,7.089,0,0,1-1.243-.42,5.365,5.365,0,0,1-1.172-.637,6.118,6.118,0,0,1-.984-.873,6.582,6.582,0,0,1-.847-1.036,6.152,6.152,0,0,1-.613-1.2,7.967,7.967,0,0,1-.384-1.3,6.951,6.951,0,0,1-.143-1.418,6.848,6.848,0,0,1,.143-1.4,8.706,8.706,0,0,1,.383-1.314V34.63a6.778,6.778,0,0,1,.611-1.186,5.6,5.6,0,0,1,.852-1.033,6.244,6.244,0,0,1,2.15-1.528l0,0a8.123,8.123,0,0,1,1.24-.4,6.064,6.064,0,0,1,2.743,0,8.917,8.917,0,0,1,1.255.394l.012.005a6.412,6.412,0,0,1,1.145.655,6.932,6.932,0,0,1,1,.87,6.069,6.069,0,0,1,.824,1.035,8.585,8.585,0,0,1,.613,1.175l0,0a7.068,7.068,0,0,1,.4,1.33,7.316,7.316,0,0,1,.132,1.39,7.468,7.468,0,0,1-.132,1.414,6.586,6.586,0,0,1-.4,1.309,7.664,7.664,0,0,1-.616,1.191,7.079,7.079,0,0,1-1.824,1.913,5.529,5.529,0,0,1-1.15.637,7.781,7.781,0,0,1-1.263.42,5.97,5.97,0,0,1-1.373.155m-2.245-1.46a9.4,9.4,0,0,0,1.1.332,5.136,5.136,0,0,0,1.142.125,5.3,5.3,0,0,0,1.154-.125,8.469,8.469,0,0,0,1.09-.33,5.7,5.7,0,0,0,.962-.563,6.9,6.9,0,0,0,.882-.751,6.33,6.33,0,0,0,.7-.876A5.369,5.369,0,0,0,521.3,39.7l0,0a6.281,6.281,0,0,0,.336-1.128,6.292,6.292,0,0,0,0-2.445,5.592,5.592,0,0,0-.336-1.113v0a6.289,6.289,0,0,0-.538-1.029,7.384,7.384,0,0,0-.695-.905,8.493,8.493,0,0,0-.882-.729,4.788,4.788,0,0,0-.962-.542l-.009,0a5,5,0,0,0-1.075-.355,5.536,5.536,0,0,0-1.16-.12,5.425,5.425,0,0,0-1.149.12,5.642,5.642,0,0,0-1.089.357l-.005,0a5.326,5.326,0,0,0-.976.542,5.526,5.526,0,0,0-.842.724,6.339,6.339,0,0,0-1.26,1.94,5.463,5.463,0,0,0-.325,1.109,6.885,6.885,0,0,0,0,2.453,6.063,6.063,0,0,0,.325,1.122,6.415,6.415,0,0,0,1.258,1.914l.008.008a4.98,4.98,0,0,0,.836.738,6.331,6.331,0,0,0,.974.563" transform="translate(-377.944 -22.501)" fill="#fff"/>
      <path id="パス_108422" data-name="パス 108422" d="M594.832,44.383a5.972,5.972,0,0,1-1.373-.155,7.058,7.058,0,0,1-1.241-.42,5.346,5.346,0,0,1-1.172-.637,5.993,5.993,0,0,1-.983-.873,6.64,6.64,0,0,1-.849-1.036,6.2,6.2,0,0,1-.611-1.2,7.92,7.92,0,0,1-.383-1.3,6.9,6.9,0,0,1-.146-1.418,6.8,6.8,0,0,1,.146-1.4,8.654,8.654,0,0,1,.383-1.314V34.63a6.833,6.833,0,0,1,.611-1.186,5.573,5.573,0,0,1,.852-1.033,6.209,6.209,0,0,1,2.15-1.528l0,0a8.2,8.2,0,0,1,1.238-.4,6.074,6.074,0,0,1,2.746,0,8.968,8.968,0,0,1,1.254.394l.014.005a6.445,6.445,0,0,1,1.143.655,7.066,7.066,0,0,1,1,.87,5.814,5.814,0,0,1,.825,1.035,9.1,9.1,0,0,1,.614,1.175v0a6.827,6.827,0,0,1,.4,1.329,7.3,7.3,0,0,1,.132,1.391,7.44,7.44,0,0,1-.132,1.414,6.615,6.615,0,0,1-.4,1.309,7.591,7.591,0,0,1-.617,1.191,6.807,6.807,0,0,1-.819,1.039,7.128,7.128,0,0,1-1.005.873,5.478,5.478,0,0,1-1.15.637,7.7,7.7,0,0,1-1.261.42,5.964,5.964,0,0,1-1.373.155m-2.243-1.46a9.134,9.134,0,0,0,1.1.332,5.145,5.145,0,0,0,1.142.125,5.288,5.288,0,0,0,1.154-.125,8.2,8.2,0,0,0,1.089-.33,5.722,5.722,0,0,0,.965-.563,6.95,6.95,0,0,0,.881-.751,6.192,6.192,0,0,0,.7-.876,5.6,5.6,0,0,0,.536-1.031v0a6.51,6.51,0,0,0,.34-1.128,6.332,6.332,0,0,0,0-2.445,5.765,5.765,0,0,0-.335-1.113l0,0a6.092,6.092,0,0,0-.537-1.029,7.351,7.351,0,0,0-.694-.905,8.369,8.369,0,0,0-.881-.729,4.809,4.809,0,0,0-.965-.542l-.01,0a4.983,4.983,0,0,0-1.073-.355,5.542,5.542,0,0,0-1.16-.12,5.393,5.393,0,0,0-1.148.12,5.54,5.54,0,0,0-1.088.357l-.006,0a5.388,5.388,0,0,0-.979.542,5.89,5.89,0,0,0-.842.724,6.351,6.351,0,0,0-1.257,1.94h0a5.289,5.289,0,0,0-.325,1.109,6.9,6.9,0,0,0,0,2.453,5.948,5.948,0,0,0,.326,1.122,6.393,6.393,0,0,0,1.257,1.914l.006.008a5.133,5.133,0,0,0,.836.738,6.279,6.279,0,0,0,.978.563" transform="translate(-436.463 -22.501)" fill="#fff"/>
      <path id="パス_108423" data-name="パス 108423" d="M668.183,44.991H667.2V32.571h-6.331v-.982h13.62v.982h-6.31Z" transform="translate(-490.493 -23.435)" fill="#fff"/>
      <path id="パス_108424" data-name="パス 108424" d="M450.724,44.992h-1.219l-3.816-5.386h-6.326v5.386h-1v-13.4h7.822a4.009,4.009,0,0,1,.682,7.957Zm-11.36-6.366h6.82a3.029,3.029,0,0,0,0-6.058h-6.82Z" transform="translate(-325.348 -23.436)" fill="#fff"/>
      <path id="パス_108425" data-name="パス 108425" d="M482.278,44.991l-1.4-.6,46.405-12.8.314.928Z" transform="translate(-356.901 -23.435)" fill="#fff"/>
      <path id="パス_108426" data-name="パス 108426" d="M230.491,43.041h-1.129L222.37,30.916l-6.992,12.125h-1.129L222.37,28.96Z" transform="translate(-159.013 -21.485)" fill="#fff"/>
      <path id="パス_108427" data-name="パス 108427" d="M237.29,59.756h-9.033l.217-1h8.6Z" transform="translate(-169.409 -43.589)" fill="#fff"/>
      <path id="パス_108428" data-name="パス 108428" d="M373.355,43.041h-1.127l-6.994-12.125-6.992,12.125h-1.127l8.119-14.081Z" transform="translate(-265.046 -21.485)" fill="#fff"/>
      <path id="パス_108429" data-name="パス 108429" d="M380.146,59.756H371.11l.217-1h8.6Z" transform="translate(-275.434 -43.589)" fill="#fff"/>
    </g>
  </g>
  <g id="グループ_23199" data-name="グループ 23199">
    <g id="グループ_23198" data-name="グループ 23198" clip-path="url(#clip-path)">
      <path id="パス_108430" data-name="パス 108430" d="M349.276,121.207a4.4,4.4,0,0,1-.637.883,5.839,5.839,0,0,1-.573.48,3.567,3.567,0,0,1-.628.351l-.006,0a3.138,3.138,0,0,1-.7.227,3.621,3.621,0,0,1-.757.079,3.619,3.619,0,0,1-1.455-.307l0,0a3.828,3.828,0,0,1-.637-.351,3.875,3.875,0,0,1-.549-.476,4.115,4.115,0,0,1-.819-1.263,3.48,3.48,0,0,1-.21-.721,4.334,4.334,0,0,1,0-1.592,3.452,3.452,0,0,1,.21-.722,4.119,4.119,0,0,1,.819-1.263,3.644,3.644,0,0,1,1.186-.83h0a3.967,3.967,0,0,1,.708-.227,3.421,3.421,0,0,1,.747-.082,3.624,3.624,0,0,1,1.456.309h.006a3.814,3.814,0,0,1,.628.355,5.722,5.722,0,0,1,.573.479,4.564,4.564,0,0,1,.637.883l.063.115h.693l-.153-.323a4.57,4.57,0,0,0-1.435-1.677,4.081,4.081,0,0,0-.745-.43l-.01,0a5.6,5.6,0,0,0-.816-.256,4.048,4.048,0,0,0-1.787,0,4.884,4.884,0,0,0-.806.259h0a3.793,3.793,0,0,0-.763.43,4.149,4.149,0,0,0-.638.56,3.838,3.838,0,0,0-.556.678,4.429,4.429,0,0,0-.4.772l0,0a5.513,5.513,0,0,0-.246.852,4.372,4.372,0,0,0,0,1.824,5.726,5.726,0,0,0,.246.855l0,0a4.7,4.7,0,0,0,.4.775,3.988,3.988,0,0,0,.556.67,4.149,4.149,0,0,0,.638.565,3.676,3.676,0,0,0,.763.428h0a4.942,4.942,0,0,0,.806.262,4.174,4.174,0,0,0,1.787,0,5.523,5.523,0,0,0,.816-.26l.01-.007a3.427,3.427,0,0,0,.745-.427,4.455,4.455,0,0,0,.653-.56,4.364,4.364,0,0,0,.783-1.112l.153-.324h-.693Z" transform="translate(-253.515 -85.131)" fill="#fff"/>
      <path id="パス_108431" data-name="パス 108431" d="M395.5,123.882h.73l-5.263-9.134-5.271,9.134h.732l2.017-3.494h5.04Zm-6.68-4.144,2.147-3.72,2.145,3.72Z" transform="translate(-286.259 -85.131)" fill="#fff"/>
      <path id="パス_108432" data-name="パス 108432" d="M450.985,123.883h-.83l-2.6-3.67h-4.31v3.67h-.683v-9.134h5.329a2.733,2.733,0,0,1,.465,5.424Zm-7.738-4.338h4.646a2.063,2.063,0,0,0,0-4.126h-4.646Z" transform="translate(-328.465 -85.131)" fill="#fff"/>
      <path id="パス_108433" data-name="パス 108433" d="M498.2,115.434v-.686h-6.049v9.134H498.2V123.2h-5.368v-2.991H498v-.681h-5.176v-4.094Z" transform="translate(-365.266 -85.131)" fill="#fff"/>
      <path id="パス_108434" data-name="パス 108434" d="M538.386,115.434v-.686h-6.049v9.134h6.049V123.2h-5.368v-2.991h5.176v-.681h-5.176v-4.094Z" transform="translate(-395.095 -85.131)" fill="#fff"/>
      <path id="パス_108435" data-name="パス 108435" d="M580.858,123.883h-.83l-2.6-3.67h-4.31v3.67h-.683v-9.134h5.329a2.733,2.733,0,0,1,.465,5.424Zm-7.738-4.338h4.646a2.063,2.063,0,0,0,0-4.126h-4.646Z" transform="translate(-424.856 -85.131)" fill="#fff"/>
    </g>
  </g>
</svg>
