<svg xmlns="http://www.w3.org/2000/svg" width="462" height="92" viewBox="0 0 462 92">
  <g id="Ttl_cta" transform="translate(-769 -64)">
    <g id="グループ_24264" data-name="グループ 24264" transform="translate(62 -3976)">
      <path id="パス_141341" data-name="パス 141341" d="M-55.685-21.354a44.362,44.362,0,0,1-6.787-.351l-.032,1.82a7.128,7.128,0,0,1,.793-.032h.381c1.173.032,4.281.1,4.852.1a3.43,3.43,0,0,0,.6-.032l-.127.192a1.392,1.392,0,0,0-.127.224c-2.157,3.96-4.979,7.633-7.263,9.39l1.459,1.5A10.506,10.506,0,0,1-59.555-11.1c2.6-2.2,5.169-3.417,7.231-3.417,1.554,0,2.41.862,2.664,2.747a25.625,25.625,0,0,0-4.757,2.587c-2.125,1.565-3.171,3.194-3.171,4.887,0,3.194,2.7,4.759,8.246,4.759a45.667,45.667,0,0,0,7.58-.671,9.126,9.126,0,0,1,1.205-.128l-.285-2.044a26.747,26.747,0,0,1-8.5,1.214c-4.408,0-6.47-1.022-6.47-3.194C-55.812-6.375-54-8-49.5-10.112a9.062,9.062,0,0,1,.032.99A39.5,39.5,0,0,1-49.691-4.3h1.808a5.537,5.537,0,0,1-.063-.99c0-.256,0-.894.032-1.565.032-.607.032-1.341.032-1.852a20.679,20.679,0,0,0-.063-2.076,49.855,49.855,0,0,1,8.531-2.874l-.92-1.852a7.574,7.574,0,0,1-2.093.926c-1.4.479-3.869,1.437-5.709,2.172-.412-2.363-1.776-3.577-4.123-3.577a8.584,8.584,0,0,0-4.916,1.661c-.349.256-.349.256-1.586,1.246l-.063-.064a23.513,23.513,0,0,0,4.757-6.707,87.63,87.63,0,0,0,10.371-.83c.6-.1.793-.128,1.269-.192l-.19-1.789a36.77,36.77,0,0,1-8.722,1.182c-1.744.1-1.744.1-2.03.128a17.843,17.843,0,0,0,1.015-2.268,5.435,5.435,0,0,1,.856-1.757l-2.093-.447a14.512,14.512,0,0,1-1.586,4.471Zm29.59.415c.412.032.539.032,1.015.1a63.328,63.328,0,0,0,6.787.415,21.608,21.608,0,0,0,5.265-.479l.032.1a40.286,40.286,0,0,0-5.835,3.481l1.3,1.086A44.978,44.978,0,0,1-9.668-21l-.159-1.725a35.19,35.19,0,0,1-7.833.639,36.063,36.063,0,0,1-8.214-.735Zm1.808,8.4c-2.474,2.236-3.52,3.992-3.52,5.972,0,2.14,1.237,3.769,3.552,4.663a20.664,20.664,0,0,0,7.2.99A47.082,47.082,0,0,0-8.621-1.68c.507-.064.6-.1.983-.128l-.254-2.14c-1.681.735-5.328,1.182-9.324,1.182a19.927,19.927,0,0,1-5.994-.671C-25.049-4.076-26-5.193-26-6.726c0-1.565.951-3.034,3.045-4.791Zm16.143-5.909a23.841,23.841,0,0,1,3.076,4.919l1.4-.83a29.146,29.146,0,0,0-3.2-4.855Zm-3.425,1.629a25.238,25.238,0,0,1,3.2,5.078l1.4-.83a28.8,28.8,0,0,0-3.3-4.982ZM2.321-10.847a15.894,15.894,0,0,1,2.886-.287c.729-.032,1.269-.1,2.347-.192V-.818a23.169,23.169,0,0,1-.19,3.162H9.33a21.414,21.414,0,0,1-.19-3.13v-10.7c1.364-.16,1.364-.16,3.3-.415a18.08,18.08,0,0,1,.666,1.852l1.3-.767a41.088,41.088,0,0,0-2.791-5.877l-1.205.607a21.125,21.125,0,0,1,1.522,2.906,54.5,54.5,0,0,1-5.645.575,80.259,80.259,0,0,0,5.423-7.761c.6-.958.6-.958.888-1.373l-1.554-.926a32.12,32.12,0,0,1-3.425,6c-.729-.894-1.332-1.661-2.22-2.683.983-1.533,1.839-2.938,2.537-4.216a12.214,12.214,0,0,1,1.332-2.3l-1.713-.8a22.81,22.81,0,0,1-3.108,6.228c-.539-.607-.666-.735-1.364-1.5L2.035-20.811a41.076,41.076,0,0,1,4.694,5.43c-.634.926-.634.926-2.125,2.874-.7.032-.92.032-1.3.032-.539,0-.92-.032-1.3-.064ZM19.954-23.813a11.706,11.706,0,0,1-1.427,5.653,10.924,10.924,0,0,1-4.789,4.312,3.681,3.681,0,0,1,1.142,1.373A13.376,13.376,0,0,0,19.8-17.234,13.6,13.6,0,0,0,21.6-23.813h6.311a39.515,39.515,0,0,1-.729,7.282c-.285,1.182-.571,1.405-1.681,1.405a17.89,17.89,0,0,1-3.489-.447,4.261,4.261,0,0,1,.412,1.82,29.54,29.54,0,0,0,3.235.16c1.554,0,2.252-.319,2.664-1.214.539-1.182,1.047-4.535,1.237-8.4a15.082,15.082,0,0,1,.127-2.14c-.6.064-1.586.1-2.823.1h-9.8a22.081,22.081,0,0,1-3.2-.192v1.82a21.482,21.482,0,0,1,3.2-.192ZM3.97-9.122C3.684-5,3.24-2.958,2-.275L3.462.46a28.718,28.718,0,0,0,2-9.2Zm6.723.256a33.274,33.274,0,0,1,1.522,7.537l1.491-.415a43.551,43.551,0,0,0-1.681-7.569ZM17.068.172H27.375v2.14h1.776a22.256,22.256,0,0,1-.159-3.13v-7.25a23.9,23.9,0,0,1,.127-2.938,15.95,15.95,0,0,1-2.442.128H17.892a16.835,16.835,0,0,1-2.537-.128,26.713,26.713,0,0,1,.127,2.938V-.946a22.9,22.9,0,0,1-.159,3.1h1.744Zm0-9.581H27.375v8.08H17.068Zm31.651-16.64A26.185,26.185,0,0,1,43.8-19.757a31.756,31.756,0,0,1-8.373,5.909,6.423,6.423,0,0,1,1.205,1.533,33.721,33.721,0,0,0,8.658-6.547,30.424,30.424,0,0,0,4.472-5.685A26.057,26.057,0,0,0,54.9-18.32a41.445,41.445,0,0,0,8.531,6.068,6.645,6.645,0,0,1,1.173-1.629,35.161,35.161,0,0,1-8.119-5.3,24.554,24.554,0,0,1-5.772-6.867ZM43.645-15.605a20.055,20.055,0,0,1,.222,3.162c0,4.216-.761,7.154-2.379,9.294A12.216,12.216,0,0,1,36.128.779a5.242,5.242,0,0,1,1.427,1.469c5.867-3.226,7.9-6.963,8.024-14.756a21.245,21.245,0,0,1,.19-3.1Zm9.958,0a21.463,21.463,0,0,1,.222,3.226V-1.361A21.892,21.892,0,0,1,53.6,1.9h2.125a21.312,21.312,0,0,1-.222-3.258V-12.38a20.888,20.888,0,0,1,.222-3.226Z" transform="translate(1032.392 4123.656)" fill="#fff"/>
      <rect id="長方形_9665" data-name="長方形 9665" width="180" height="40" transform="translate(776 4092)" fill="#c3a460"/>
      <path id="パス_141342" data-name="パス 141342" d="M11.937-19.537v4.866H6.076a13.878,13.878,0,0,1-2.93-.161v1.772a16.617,16.617,0,0,1,2.93-.161H11.9a32.715,32.715,0,0,1-.386,4.479A64.772,64.772,0,0,1,1.568-6.487L2.212-4.65A11.352,11.352,0,0,1,3.79-5.2c3.961-.967,5.571-1.386,7.374-1.933C10.069-3.039,7.815-.655,3.21,1.182A6.827,6.827,0,0,1,4.5,2.632C9.554.248,11.937-2.62,13.032-7.679l2.447-.741.1-1.547L13.29-9.29a53.172,53.172,0,0,0,.322-5.768v-7.7a21.756,21.756,0,0,1,.161-3.609H11.744a19.1,19.1,0,0,1,.193,3.609v1.74H5.11a15.446,15.446,0,0,1-2.93-.193v1.837a15.953,15.953,0,0,1,2.93-.161ZM20.084-5.875h7.085a21.091,21.091,0,0,1,3.027.193V-7.55a17.659,17.659,0,0,1-3.027.161H20.084v-5.478H26.46a16.236,16.236,0,0,1,2.866.161v-1.8a13.717,13.717,0,0,1-2.866.161H20.084V-19.44h6.988a16.172,16.172,0,0,1,2.93.161v-1.837a13.643,13.643,0,0,1-2.93.193H20.084v-1.8a24.01,24.01,0,0,1,.193-3.641h-2a25.413,25.413,0,0,1,.161,3.641v21.4a20.51,20.51,0,0,1-.193,3.738h2.029a20.728,20.728,0,0,1-.193-3.738Zm43.055,6.96a79.141,79.141,0,0,0-7.922-11.6l-1.417.9a56.676,56.676,0,0,1,5.024,6.863A144.6,144.6,0,0,1,43.946-1.4,113.8,113.8,0,0,0,50.29-15.058a14.01,14.01,0,0,1,.644-1.514l-2.029-.612a32.029,32.029,0,0,1-1.868,5.51A72.231,72.231,0,0,1,42.014-1.3c-1.224.032-1.61.032-2.222.032-.483,0-1.288-.032-2.061-.064L38.214.763A23.471,23.471,0,0,1,41.885.409C47.778.086,54.058-.558,59.661-1.4,60.37-.2,60.724.441,61.593,2.116ZM46.233-25.4a12,12,0,0,1-1.771,4.124,26.807,26.807,0,0,1-8.566,8.8,5.428,5.428,0,0,1,1.32,1.386,33.488,33.488,0,0,0,4.7-4.157,33.128,33.128,0,0,0,5.474-7.8,8.332,8.332,0,0,1,.9-1.643Zm7.052.709c.193.354.322.58.741,1.353A34.018,34.018,0,0,0,64.685-11a5.45,5.45,0,0,1,1.288-1.579,28.745,28.745,0,0,1-7.246-6.444,21.974,21.974,0,0,1-3.639-6.444ZM81.623-12.061c-.032,2.417-.064,3.029-.129,4.318H79.916A18.127,18.127,0,0,1,76.889-7.9v1.643a19.344,19.344,0,0,1,3.027-.161h1.449a10.151,10.151,0,0,1-.837,3.287,8.3,8.3,0,0,1-3.349,3.8A5.078,5.078,0,0,1,78.532,1.73a10.9,10.9,0,0,0,4.347-8.152h5.185v5.188a12.2,12.2,0,0,1-.193,2.771h1.9a11.213,11.213,0,0,1-.193-2.771V-6.422h1.9a18.6,18.6,0,0,1,3.027.161V-7.9a18.127,18.127,0,0,1-3.027.161h-1.9v-4.318h1.449a24.165,24.165,0,0,1,2.995.129v-1.611a18.6,18.6,0,0,1-3.027.161H80.561a18.605,18.605,0,0,1-3.027-.161v1.611a24.087,24.087,0,0,1,3.027-.129Zm6.44,0v4.318H83.008c.129-1.708.129-2,.161-4.318ZM74.41-16.121h6.215c1.385,0,2.641.032,3.349.1-.064-.87-.1-1.74-.1-2.964v-3.706c0-1.224.032-2.159.1-3.061a28.594,28.594,0,0,1-3.285.129H76.02a29.147,29.147,0,0,1-3.349-.129c.1,1.031.129,1.966.129,3.512V-1.138a23.4,23.4,0,0,1-.193,3.544h2a22.064,22.064,0,0,1-.193-3.512Zm0-8.217h7.954V-21.6H74.41Zm0,4.028h7.954v2.9H74.41Zm24.248-1.933a29.94,29.94,0,0,1,.161-3.512,30.071,30.071,0,0,1-3.413.129H90.318a28.237,28.237,0,0,1-3.285-.129c.064.967.1,1.933.1,3.061v3.706c0,1.16-.032,2-.1,2.964.934-.064,1.932-.1,3.349-.1h6.666V-.59c0,.741-.258.934-1.256.934a24.825,24.825,0,0,1-3.7-.354A6.519,6.519,0,0,1,92.6,1.7c.934.064,2.447.129,3.124.129,2.319,0,2.93-.516,2.93-2.417ZM88.643-24.338h8.4V-21.6h-8.4Zm0,4.028h8.4v2.9h-8.4ZM119.525-18.7V-.268c0,.773-.193.9-1.546.9a24.515,24.515,0,0,1-4.251-.451,6.111,6.111,0,0,1,.419,1.8,33.021,33.021,0,0,0,3.961.226c1.417,0,1.868-.064,2.319-.354A2.039,2.039,0,0,0,121.2-.075V-10.257c-.064-2.449-.1-3.867-.129-4.318,0-.226,0-.58-.032-1.063a19.6,19.6,0,0,0,1.932,4.737,27.4,27.4,0,0,0,4.476,6.154A25.886,25.886,0,0,0,133.308.022a10.818,10.818,0,0,1,1.256-1.579,19.822,19.822,0,0,1-5.507-3.9,29.1,29.1,0,0,1-3.542-4.06,40.615,40.615,0,0,0,4.508-4.221c1.256-1.418,1.256-1.418,1.9-2.127l-1.514-1.16a23.213,23.213,0,0,1-5.732,6.283,27.412,27.412,0,0,1-3.413-7.959h9.661a21.774,21.774,0,0,1,3.22.193v-1.9a21.18,21.18,0,0,1-3.22.193H121.2V-22.92a23.828,23.828,0,0,1,.193-3.416h-2.061a24.648,24.648,0,0,1,.193,3.448v2.674h-9.564a21.179,21.179,0,0,1-3.22-.193v1.9a21.6,21.6,0,0,1,3.188-.193Zm4.6-6.154a20.174,20.174,0,0,1,5.185,3.738l1.127-1.224a24.7,24.7,0,0,0-5.185-3.609ZM109.994-15.7a23.191,23.191,0,0,1,4.412,5.671l1.353-1.192a35.09,35.09,0,0,0-4.508-5.51Zm8.018,6.509A40.7,40.7,0,0,1,111.8-5.166a22.141,22.141,0,0,1-4.83,2.127l.9,1.837c.483-.29.805-.483,1.481-.838a68.153,68.153,0,0,0,9.113-5.51Zm36.131-16.949a25.228,25.228,0,0,1,.129,3,34.393,34.393,0,0,1-.676,6.928,22.944,22.944,0,0,1-5.861,11.729A24.208,24.208,0,0,1,140.94.666a5.213,5.213,0,0,1,1.514,1.514,30.162,30.162,0,0,0,4.476-3.254,24.314,24.314,0,0,0,4.058-4.543A25.951,25.951,0,0,0,155.3-16.862c1.224,5.929,3.091,9.86,6.666,13.856a29.3,29.3,0,0,0,6.118,5.22A5.925,5.925,0,0,1,169.568.57a25.482,25.482,0,0,1-3.961-2.707,25.75,25.75,0,0,1-4.927-5.478,27.515,27.515,0,0,1-3.9-9.022,39.4,39.4,0,0,1-.644-6.831c0-.838.1-2.127.161-2.674Z" transform="translate(780.432 4123.368)" fill="#fff"/>
    </g>
    <path id="パス_141340" data-name="パス 141340" d="M-225.608-3.507h2.909a15.815,15.815,0,0,1,2.717.16V-5.076a15.411,15.411,0,0,1-2.685.16h-2.941v-3.17h2.142a20.391,20.391,0,0,1,2.909.128c-.064-.736-.1-1.633-.1-3.106v-5.059c0-1.377.032-2.273.1-2.978a19.115,19.115,0,0,1-2.813.128h-2.238v-3.074h3.2a15.635,15.635,0,0,1,2.685.16v-1.729a15.369,15.369,0,0,1-2.717.16h-3.165v-.416a17.5,17.5,0,0,1,.224-2.882H-227.3a17.5,17.5,0,0,1,.224,2.882v.416h-3.069a15.733,15.733,0,0,1-2.781-.16v1.729a16,16,0,0,1,2.749-.16h3.1v3.074H-229a23.394,23.394,0,0,1-2.941-.128,25,25,0,0,1,.128,3.01v5.059a25.5,25.5,0,0,1-.128,3.074,24.071,24.071,0,0,1,3.069-.128h1.79v3.17h-3.357a15.772,15.772,0,0,1-2.749-.16v1.729a16.872,16.872,0,0,1,2.781-.16h3.325V-.754A18.449,18.449,0,0,1-227.3,2.16h1.918a17.618,17.618,0,0,1-.224-2.914Zm0-5.923v-3.618h3.516V-9.43Zm0-4.867v-3.33h3.516v3.33Zm-1.471-3.33v3.33h-3.293v-3.33Zm0,4.578V-9.43h-3.293v-3.618Zm12.531-.7c-.384,1.7-.735,2.978-1.375,5.027a63.94,63.94,0,0,1-2.749,7.492,19.09,19.09,0,0,1-1.95.128,3.156,3.156,0,0,1-.48-.032l.448,1.889a16.8,16.8,0,0,1,1.79-.32c5.53-.8,8.312-1.281,11.636-1.953.448,1.121.639,1.633,1.215,3.33l1.5-.832a77.809,77.809,0,0,0-5.275-11.526l-1.439.608a51.476,51.476,0,0,1,3.485,7.108c-2.685.544-4.476.8-9.239,1.377a78.213,78.213,0,0,0,4.156-12.295h5.5a16.455,16.455,0,0,1,2.749.16v-1.825a12.413,12.413,0,0,1-2.749.192h-9.4a12.736,12.736,0,0,1-2.781-.192v1.825a16.638,16.638,0,0,1,2.781-.16Zm-3.676-8.26a16.407,16.407,0,0,1,2.781-.16h6.969a18.168,18.168,0,0,1,2.749.16v-1.825a12.243,12.243,0,0,1-2.749.192h-6.969a12.393,12.393,0,0,1-2.781-.192Zm20.236,17.769a13.861,13.861,0,0,1-2.238.352l.543,1.7a14.986,14.986,0,0,1,2.4-.736c1.023-.256,3.005-.832,3.964-1.153a6.3,6.3,0,0,0,.7-.224V-.914a19.455,19.455,0,0,1-.192,3.3h1.886a21.281,21.281,0,0,1-.192-3.234V-23.838a5.479,5.479,0,0,1,1.343.1v-1.665a11.743,11.743,0,0,1-2.174.128H-197.7a12.316,12.316,0,0,1-2.174-.16v1.729a9.851,9.851,0,0,1,1.886-.16Zm1.534-19.626h3.8v5.379h-3.8Zm0,6.724h3.836v4.931h-3.836Zm0,6.275h3.836v5.187q-2.11.624-3.836,1.057Zm12.723-12.134v-.448a12.584,12.584,0,0,1,.192-2.85h-1.886a12.774,12.774,0,0,1,.192,2.818v.48h-2.014a12.57,12.57,0,0,1-2.43-.16V-21.6c.607-.064.735-.064,1.662-.1a41.887,41.887,0,0,1,.863,4.674h-.512a17.167,17.167,0,0,1-2.749-.16v1.729a18.167,18.167,0,0,1,2.749-.16h9.463a39.631,39.631,0,0,0,1.534,10.053A22.762,22.762,0,0,1-183.57.879,4.422,4.422,0,0,1-182.387,2a23.62,23.62,0,0,0,6.266-5.955c1.279,3.362,2.813,5.379,4.06,5.379,1.215,0,1.822-1.473,2.27-5.571A4.494,4.494,0,0,1-171.262-5.2a25.161,25.161,0,0,1-.352,3.362c-.224.961-.416,1.537-.575,1.537,0,0-.128-.1-.224-.16a4.688,4.688,0,0,1-.959-1.217,16.322,16.322,0,0,1-1.694-3.778,27.327,27.327,0,0,0,2.717-5.571c.352-.928.543-1.473.735-1.857l-1.5-.961a20.549,20.549,0,0,1-2.493,6.564,46.044,46.044,0,0,1-1.119-8.324h2.4a22.323,22.323,0,0,1,3.485.192v-1.793a18.753,18.753,0,0,1-3.485.192h-2.462c-.064-1.985-.1-4.066-.1-5.507a23.313,23.313,0,0,1,.16-3.714h-1.822a12.251,12.251,0,0,1,.128,2.049c.032,4.13.032,4.13.16,7.172H-182a33.468,33.468,0,0,0,1.119-4.674c.607.032.9.032,1.439.1v-1.537a13.836,13.836,0,0,1-2.525.128Zm-2.11,5.987a43.468,43.468,0,0,0-.735-4.674h4.284a24.883,24.883,0,0,1-1.087,4.674Zm5.4,6.724a24.7,24.7,0,0,1,.128-3.138,15.173,15.173,0,0,1-2.3.128h-3.74a14.137,14.137,0,0,1-2.3-.128,31,31,0,0,1,.128,3.106V-2.9a22.422,22.422,0,0,1-.16,3.042h1.6V-2.515h3.964c1.5,0,2.014,0,2.749.064-.032-.512-.032-.608-.032-.961a7.244,7.244,0,0,0-.032-.832v-6.051Zm-6.649-1.7h5.243v3.33h-5.243Zm0,4.578h5.243v3.586h-5.243Zm11.6-16.361a19.528,19.528,0,0,1,2.877,4.642l1.311-.864a23.219,23.219,0,0,0-3.037-4.482Zm24.839,4.322h6.394c1.566,0,2.525.032,3.58.128v-2.017a22.16,22.16,0,0,1-3.612.192h-14a22.16,22.16,0,0,1-3.612-.192v2.017c1.055-.1,2.014-.128,3.58-.128h5.754v14.5h-8.152a22.359,22.359,0,0,1-3.644-.192v2.049c1.087-.1,2.014-.128,3.612-.128h18.925c1.566,0,2.525.032,3.58.128V-5.14a21.929,21.929,0,0,1-3.612.192h-8.791Zm18.573,8.292a26.528,26.528,0,0,1,3.516-.128h19.117a27.228,27.228,0,0,1,3.484.128V-13.3a19.911,19.911,0,0,1-3.484.16h-19.117a20.607,20.607,0,0,1-3.516-.16Zm37.914-11.366a32.125,32.125,0,0,1,7.672,4.194L-85.4-20.06a46.739,46.739,0,0,0-7.736-4.034Zm-2.525,7.62a35.044,35.044,0,0,1,8.024,4.322l1.023-1.729a50.14,50.14,0,0,0-8.024-4.13Zm18.925-10.213a25.28,25.28,0,0,1,3.229,5.091l1.407-.832a28.854,28.854,0,0,0-3.325-4.995ZM-95.85.431-94.6.111l1.758-.352a35.561,35.561,0,0,0,7.864-2.689c5.626-2.785,9.494-7.108,12.276-13.735a7.109,7.109,0,0,1-1.63-1.409,23.491,23.491,0,0,1-3.9,7.2A21.531,21.531,0,0,1-87.89-3.7a27.526,27.526,0,0,1-8.44,1.953ZM-74.3-26.752a23.88,23.88,0,0,1,3.1,4.931l1.407-.832a29.2,29.2,0,0,0-3.229-4.867ZM-51.83-12.984h6.106a8.252,8.252,0,0,1,1.726.16v-1.921a15.7,15.7,0,0,1-2.845.192H-58.256a16.292,16.292,0,0,1-2.813-.192v1.921a18.835,18.835,0,0,1,2.813-.128h4.635V-1.746h-6.521a12.852,12.852,0,0,1-2.877-.192V.015a16.741,16.741,0,0,1,2.877-.16h15.217a21.736,21.736,0,0,1,2.909.16V-1.938a12.852,12.852,0,0,1-2.877.192H-51.83Zm22.473-8a36.438,36.438,0,0,1,7.512,6.211l1.343-1.569a40.2,40.2,0,0,0-7.576-6.019Zm0,20.715c.48-.16.7-.224,1.183-.352,5.019-1.089,7.576-1.985,10.581-3.682,5.115-2.914,8.759-7.108,11.6-13.383a5.134,5.134,0,0,1-1.6-1.537A24.4,24.4,0,0,1-20.661-4.98a27.267,27.267,0,0,1-9.271,2.465ZM11.306.911a20.834,20.834,0,0,1-.16-3.362V-12.76a9.9,9.9,0,0,0-.1-1.441l1.023.512A59.019,59.019,0,0,1,24.158-7.317l1.119-2.017a72.907,72.907,0,0,0-14.13-6.724v-6.019a20.372,20.372,0,0,1,.16-3.33H8.973a18.506,18.506,0,0,1,.192,3.266V-2.387a19.2,19.2,0,0,1-.192,3.3ZM39.694-24.927a13.873,13.873,0,0,1-.48,2.433A52.148,52.148,0,0,0,37.776-9.815,43.723,43.723,0,0,0,38.607-.85c.1.576.128.736.192,1.217L40.717.175a2,2,0,0,1-.032-.384c0-1.633,1.183-5.571,2.557-8.549l-1.311-.608A25.1,25.1,0,0,0,39.854-2.8h-.1a10.876,10.876,0,0,0-.032-1.089c-.128-2.369-.192-4.578-.192-6.019a48.053,48.053,0,0,1,.927-9.7,33.8,33.8,0,0,1,1.375-4.931Zm6.33,5.7a27.683,27.683,0,0,0,5.051.384,47.245,47.245,0,0,0,8.248-.64c.384-.064.448-.064.7-.1L59.9-21.469a30.848,30.848,0,0,1-8.471.928,20.848,20.848,0,0,1-5.371-.512Zm2.4,6.531C46.439-10.455,45.64-8.79,45.64-6.933A4.53,4.53,0,0,0,46.6-3.987c1.343,1.6,3.58,2.337,7.129,2.337a34.785,34.785,0,0,0,6.585-.64c.575-.128.671-.128,1.055-.192L61.08-4.532a20.178,20.178,0,0,1-7.257,1.121c-4.252,0-6.426-1.217-6.426-3.65,0-1.5.735-2.946,2.43-4.8Zm29.954-6.115c.767,0,1.439.032,2.142.1v-1.633a13.212,13.212,0,0,1-2.142.128H75.914v-3.234a20.935,20.935,0,0,1,.16-3.266H74.091a17.476,17.476,0,0,1,.192,3.3v3.2H71.534a13.7,13.7,0,0,1-2.27-.128v1.665a14.717,14.717,0,0,1,2.27-.128H74A28.511,28.511,0,0,1,68.369-7.029,4.542,4.542,0,0,1,69.488-5.62a28.457,28.457,0,0,0,4.955-10.694c-.128,2.85-.16,3.906-.16,5.347v9.7a25.786,25.786,0,0,1-.192,3.682h2.014a21.073,21.073,0,0,1-.192-3.682V-11.383c0-1.153-.032-2.209-.128-5.411a23.132,23.132,0,0,0,3.868,7.076A7.792,7.792,0,0,1,80.677-11.1a22.69,22.69,0,0,1-4.667-7.716ZM83.522,2.256V-.177H94.167V2.1h1.79a34.268,34.268,0,0,1-.128-3.778V-21.821a23.5,23.5,0,0,1,.1-3.17,13.657,13.657,0,0,1-2.366.1H84.129a20.448,20.448,0,0,1-2.4-.064c.1,1.537.128,2.369.128,3.458V-1.618c0,1.7-.064,2.785-.16,3.874Zm0-25.678H94.167v6.115H83.522Zm0,7.556H94.167v6.179H83.522Zm0,7.62H94.167v6.6H83.522Zm20.587-15.432a15.069,15.069,0,0,1,2.238-.128h3.8a15.348,15.348,0,0,1,2.238.128v-1.729a11.053,11.053,0,0,1-2.238.16h-3.8a10.863,10.863,0,0,1-2.238-.16Zm-1.534,4.418a19.384,19.384,0,0,1,2.557-.128h6.042a14.907,14.907,0,0,1,2.3.128v-1.761a12.443,12.443,0,0,1-2.557.16h-5.786a13.64,13.64,0,0,1-2.557-.16Zm1.471,4.418a13.825,13.825,0,0,1,2.206-.128h3.836a13.9,13.9,0,0,1,2.174.128v-1.665a12.66,12.66,0,0,1-2.174.128h-3.836a13.573,13.573,0,0,1-2.206-.128Zm0,4.386a13.325,13.325,0,0,1,2.206-.128h3.836a13.644,13.644,0,0,1,2.174.128V-12.12a12.66,12.66,0,0,1-2.174.128h-3.836a13.573,13.573,0,0,1-2.206-.128ZM105.676,2.1V.143h4.731c.543,0,1.5.032,1.886.064-.032-.576-.064-1.185-.064-2.113V-5.3c0-1.185.032-1.825.1-2.561a13.427,13.427,0,0,1-1.95.1h-4.348a10.027,10.027,0,0,1-2.014-.128,22.421,22.421,0,0,1,.128,2.657V-1.01c0,1.025-.064,2.177-.16,3.106Zm-.032-8.517h5.115v5.187h-5.115Zm11.029-18.09a11.119,11.119,0,0,1-2.653,5.8l1.534.672a17.591,17.591,0,0,0,2.749-6.083ZM128.98-24.7a14.3,14.3,0,0,1-3.612,4.963c.384.256.671.48,1.247.9a25.466,25.466,0,0,0,3.964-5.059Zm-12.6,13.575a10.9,10.9,0,0,1-2.717,5.7l1.534.7a17.026,17.026,0,0,0,2.781-6.019Zm12.531.16a14.182,14.182,0,0,1-3.389,4.835,14.032,14.032,0,0,1,1.247.9,24.71,24.71,0,0,0,3.708-4.931Zm-7.672-15.176a18.144,18.144,0,0,1,.128,2.4,10.109,10.109,0,0,1-3.229,7.844,11.631,11.631,0,0,1-5.019,2.657,3.668,3.668,0,0,1,1.087,1.441,13.315,13.315,0,0,0,6.426-4.771,10.4,10.4,0,0,0,1.6-3.394,10.436,10.436,0,0,0,1.534,3.106A15.289,15.289,0,0,0,130.2-11.8a5.983,5.983,0,0,1,1.023-1.5,12.54,12.54,0,0,1-6.585-4.707,9.977,9.977,0,0,1-1.662-5.955,17.921,17.921,0,0,1,.16-2.177Zm-.1,12.551a13.2,13.2,0,0,1,.16,2.337A12.551,12.551,0,0,1,119.1-3.507,11.833,11.833,0,0,1,112.613.975a4.118,4.118,0,0,1,1.151,1.5,14.176,14.176,0,0,0,6.33-4.835,11.457,11.457,0,0,0,2.078-4.8,12.427,12.427,0,0,0,2.366,4.674,18.378,18.378,0,0,0,6.234,4.931A6.22,6.22,0,0,1,131.825.815,13.965,13.965,0,0,1,124.984-4.4a11.255,11.255,0,0,1-2.078-6.948,16.805,16.805,0,0,1,.16-2.241Zm16.431-5.059c2.11-.32,9.75-.7,15.089-.8.032,2.818.064,4.322.064,4.546H152.7a4.692,4.692,0,0,0-3.74-1.537c-3.2,0-5.53,2.177-5.53,5.155a4.858,4.858,0,0,0,5.083,4.963,5.017,5.017,0,0,0,4.06-1.793,4.036,4.036,0,0,0,.8-1.665l.064.032a8.791,8.791,0,0,1-3.389,7.044A14.556,14.556,0,0,1,144.8-.145a8,8,0,0,1,1.215,1.665,18.475,18.475,0,0,0,4.891-2.593A10.257,10.257,0,0,0,155.066-9.3a9,9,0,0,0-.7-3.682v-1.537c-.032-1.761-.032-2.85-.032-3.33v-1.6c2.525-.064,2.813-.064,3.357-.064a56.549,56.549,0,0,1,6.266.16v-1.889a23.5,23.5,0,0,1-3.421.16h-3.644c-1.375.032-1.375.032-2.557.032V-21.6l-.032-.352a22.263,22.263,0,0,1,.192-3.586h-2.046a29.276,29.276,0,0,1,.192,4.546c-1.63,0-4.412.1-7.672.224-5.275.224-5.467.224-6.266.224-.352,0-.607,0-1.183-.032Zm14.993,6.66a3.788,3.788,0,0,1-3.932,4.034,3.3,3.3,0,0,1-3.453-3.426,3.609,3.609,0,0,1,3.74-3.554,4.262,4.262,0,0,1,2.27.544A2.441,2.441,0,0,1,152.573-11.992Zm24.008-9.733a11.347,11.347,0,0,1,1.758-.192c3.964-.128,8.823-.384,9.782-.512a1.323,1.323,0,0,1,.48-.064v.032c-.16.16-.48.512-.543.576-3.964,4.066-12.627,11.43-15.5,13.159l1.183,1.665a20.694,20.694,0,0,1,13.522-5.507c4.412,0,7.065,1.889,7.065,5.027,0,2.914-1.918,4.963-5.467,5.923a10.031,10.031,0,0,0-1.471-3.106,6.318,6.318,0,0,0-5.211-2.625c-2.621,0-4.412,1.5-4.412,3.682,0,2.689,2.557,4.29,6.905,4.29,6.969,0,11.54-3.234,11.54-8.164,0-3.97-3.421-6.564-8.7-6.564A15.376,15.376,0,0,0,179.3-11.9l-.1-.128c.416-.256,1.407-.961,1.822-1.281,1.471-1.153,5.786-4.963,7.512-6.692,2.653-2.625,2.653-2.625,3.1-2.818l-1.151-1.5a3.542,3.542,0,0,1-1.439.32c-2.909.256-7,.416-9.974.416a14.192,14.192,0,0,1-2.621-.16ZM187.1-1.17a11.353,11.353,0,0,1-2.525.256,8.332,8.332,0,0,1-3.74-.768,2.191,2.191,0,0,1-1.375-2.049c0-1.281,1.055-2.113,2.749-2.113C184.668-5.844,186.331-4.244,187.1-1.17Zm25.734-23.885c.16.512.192.64.511,2.049a61.462,61.462,0,0,0,2.4,9,19.575,19.575,0,0,0-4.156,2.593A6.746,6.746,0,0,0,208.74-6.1c0,2.433,1.311,4.13,3.9,5.059a22.237,22.237,0,0,0,6.777.8,62.511,62.511,0,0,0,7.1-.416,18.4,18.4,0,0,1,2.3-.16l-.256-2.177A31.967,31.967,0,0,1,219.737-2a25.854,25.854,0,0,1-5.882-.544c-2.142-.64-3.2-1.793-3.2-3.554,0-2.753,2.493-5.027,8.024-7.268a85.521,85.521,0,0,1,9.4-3.17l-.863-1.985a10.582,10.582,0,0,1-1.982.864c-6.01,2.145-6.01,2.145-7.864,2.946a55.941,55.941,0,0,1-2.493-10.726Z" transform="translate(1002.184 91.52)" fill="#fff"/>
  </g>
</svg>
