<svg xmlns="http://www.w3.org/2000/svg" xmlns:xlink="http://www.w3.org/1999/xlink" width="64" height="64" viewBox="0 0 64 64">
  <defs>
    <linearGradient id="linear-gradient" x1="0.216" y1="0.076" x2="0.617" y2="0.631" gradientUnits="objectBoundingBox">
      <stop offset="0" stop-color="#ba322f"/>
      <stop offset="1" stop-color="#6e1412"/>
    </linearGradient>
  </defs>
  <g id="pagetop" transform="translate(-1552 -4070)">
    <circle id="楕円形_27" data-name="楕円形 27" cx="32" cy="32" r="32" transform="translate(1552 4070)" fill="url(#linear-gradient)"/>
    <path id="pagetop-2" data-name="pagetop" d="M-12.06-8.871c0,.673-.127.8-.788.8h-2.363v-6.576h2.363c.661,0,.788.129.788.8Zm-4.879-7.3v16.1h1.728V-6.541h2.871a1.784,1.784,0,0,0,2.007-2.045v-5.54a1.784,1.784,0,0,0-2.007-2.045Zm10.8,10.485,1.3-9.242,1.474,9.242ZM-2.48-.069H-.727l-2.719-16.1h-2.77L-8.68-.069h1.753l.584-4.09h3.2Zm10.393-11.6v-2.459a1.784,1.784,0,0,0-2.007-2.045H3.441a1.784,1.784,0,0,0-2.007,2.045V-2.089A1.784,1.784,0,0,0,3.441-.043H5.906A1.784,1.784,0,0,0,7.913-2.089V-8.172H4.889v1.527H6.16v4.272c0,.673-.127.8-.788.8h-1.4c-.661,0-.788-.129-.788-.8V-13.842c0-.673.127-.8.788-.8h1.4c.661,0,.788.129.788.8v2.175ZM12.716-1.6V-7.681h3.405V-9.208H12.716v-5.437h4.167v-1.527H10.962v16.1h6.1V-1.6ZM-6.444,7.725h-6.81V9.253h2.541V23.828h1.728V9.253h2.541ZM.341,21.5c0,.673-.127.8-.788.8H-2.023c-.661,0-.788-.129-.788-.8V10.055c0-.673.127-.8.788-.8H-.447c.661,0,.788.129.788.8ZM-2.531,7.725A1.784,1.784,0,0,0-4.538,9.77V21.783a1.784,1.784,0,0,0,2.007,2.045H.061a1.784,1.784,0,0,0,2.007-2.045V9.77A1.784,1.784,0,0,0,.061,7.725Zm12.655,7.3c0,.673-.127.8-.788.8H6.973V9.253H9.336c.661,0,.788.129.788.8Zm-4.879-7.3v16.1H6.973V17.356H9.844a1.784,1.784,0,0,0,2.007-2.045V9.77A1.784,1.784,0,0,0,9.844,7.725Z" transform="translate(1583.94 4098.172)" fill="#fff"/>
  </g>
</svg>
