<svg xmlns="http://www.w3.org/2000/svg" width="26" height="20" viewBox="0 0 26 20">
  <path id="faq" d="M-6.411-15.775v-1.641H-13.1v17.3h1.9v-7.9h3.691V-9.655H-11.2v-6.12ZM-2.555-6.15l1.4-9.93,1.6,9.93ZM1.411-.114h1.9L.364-17.416h-3L-5.31-.114h1.9l.633-4.395H.695Zm6.114-14.8c0-.723.138-.862.854-.862h1.708c.716,0,.854.139.854.862V-2.618c0,.723-.138.862-.854.862H8.379c-.716,0-.854-.139-.854-.862ZM12.9,2.584,11.106-.142c1.157-.139,1.708-.862,1.708-2.17V-15.219a1.926,1.926,0,0,0-2.176-2.2H7.828a1.926,1.926,0,0,0-2.176,2.2V-2.312a1.926,1.926,0,0,0,2.176,2.2h1.46l1.735,2.7Z" transform="translate(13.104 17.416)" fill="#9b1613"/>
</svg>
