<svg xmlns="http://www.w3.org/2000/svg" width="59.5" height="17.444" viewBox="0 0 59.5 17.444">
  <path id="contact" d="M-22.05-12.264V-15.2a1.948,1.948,0,0,0-2.212-2.212h-2.716A1.948,1.948,0,0,0-29.19-15.2v13.02A1.948,1.948,0,0,0-26.978.028h2.716A1.948,1.948,0,0,0-22.05-2.184v-2.94h-1.932v2.632c0,.728-.14.868-.868.868h-1.54c-.728,0-.868-.14-.868-.868V-14.9c0-.728.14-.868.868-.868h1.54c.728,0,.868.14.868.868v2.632Zm8.176,9.744c0,.728-.14.868-.868.868h-1.736c-.728,0-.868-.14-.868-.868v-8.54c0-.728.14-.868.868-.868h1.736c.728,0,.868.14.868.868Zm-3.164-11.06a1.948,1.948,0,0,0-2.212,2.212v9.156A1.948,1.948,0,0,0-17.038,0h2.856A1.948,1.948,0,0,0-11.97-2.212v-9.156a1.948,1.948,0,0,0-2.212-2.212Zm11.48,0a1.422,1.422,0,0,0-1.54.924v-.924H-9.03V0H-7.1V-10.92c0-.756.28-1.008.952-1.008h1.12c.728,0,.868.14.868.868V0h1.932V-11.368A1.948,1.948,0,0,0-4.438-13.58ZM4.83-11.928V-13.58H2.9v-2.212H.966v2.212H-.266v1.652H.966v9.716A1.948,1.948,0,0,0,3.178,0H4.83V-1.792H3.766c-.728,0-.868-.14-.868-.868v-9.268ZM9.59-1.652c-.728,0-.868-.14-.868-.868v-8.54c0-.728.14-.868.868-.868h1.12c.672,0,.952.252.952,1.008v8.26c0,.756-.28,1.008-.952,1.008ZM11.662-13.58v.924a1.422,1.422,0,0,0-1.54-.924H9A1.948,1.948,0,0,0,6.79-11.368v9.156A1.948,1.948,0,0,0,9,0h1.12a1.422,1.422,0,0,0,1.54-.924V0h1.932V-13.58ZM23.534-9.548v-1.82a1.948,1.948,0,0,0-2.212-2.212H18.746a1.948,1.948,0,0,0-2.212,2.212v9.156A1.948,1.948,0,0,0,18.746,0h2.576a1.948,1.948,0,0,0,2.212-2.212v-1.82H21.6V-2.52c0,.728-.14.868-.868.868h-1.4c-.728,0-.868-.14-.868-.868v-8.54c0-.728.14-.868.868-.868h1.4c.728,0,.868.14.868.868v1.512Zm6.776-2.38V-13.58H28.378v-2.212H26.446v2.212H25.214v1.652h1.232v9.716A1.948,1.948,0,0,0,28.658,0H30.31V-1.792H29.246c-.728,0-.868-.14-.868-.868v-9.268Z" transform="translate(29.19 17.416)" fill="#ffdd91"/>
</svg>
