<svg xmlns="http://www.w3.org/2000/svg" width="94" height="20" viewBox="0 0 94 20">
  <path id="consultant" d="M9.081-13.174v-3.134a2.072,2.072,0,0,0-2.349-2.358H3.849A2.072,2.072,0,0,0,1.5-16.309V-2.428A2.072,2.072,0,0,0,3.849-.07H6.732A2.072,2.072,0,0,0,9.081-2.428V-5.563H7.029v2.806c0,.776-.149.925-.922.925H4.473c-.773,0-.922-.149-.922-.925V-15.98c0-.776.149-.925.922-.925H6.108c.773,0,.922.149.922.925v2.806ZM18.356-2.786c0,.776-.149.925-.922.925H15.591c-.773,0-.922-.149-.922-.925v-9.1c0-.776.149-.925.922-.925h1.843c.773,0,.922.149.922.925ZM15-14.577a2.072,2.072,0,0,0-2.349,2.358v9.761A2.072,2.072,0,0,0,15-.1h3.032a2.072,2.072,0,0,0,2.349-2.358v-9.761a2.072,2.072,0,0,0-2.349-2.358Zm12.783,0a1.509,1.509,0,0,0-1.635.985v-.985H24.093V-.1h2.051V-11.742c0-.806.3-1.075,1.011-1.075h1.189c.773,0,.922.149.922.925V-.1h2.051V-12.219a2.072,2.072,0,0,0-2.349-2.358ZM39.611-2.757c0,.776-.149.925-.922.925h-.8c-.773,0-.922-.149-.922-.925V-3.921H34.944v1.463A2.072,2.072,0,0,0,37.293-.1h1.992a2.072,2.072,0,0,0,2.349-2.358V-5.8A2.072,2.072,0,0,0,39.284-8.16H37.828c-.773,0-.922-.149-.922-.925v-2.836c0-.776.149-.925.922-.925h.832c.773,0,.922.149.922.925v1.164H41.6v-1.463a2.072,2.072,0,0,0-2.349-2.358H37.233a2.072,2.072,0,0,0-2.349,2.358v3.433a2.072,2.072,0,0,0,2.349,2.358H38.69c.773,0,.922.149.922.925ZM50.373-14.577V-2.936c0,.806-.3,1.075-1.011,1.075H48.173c-.773,0-.922-.149-.922-.925V-14.577H45.2V-2.458A2.072,2.072,0,0,0,47.549-.1h1.189a1.509,1.509,0,0,0,1.635-.985V-.1h2.051V-14.577ZM58.34-.1V-20.07H56.289V-.1Zm8.086-12.716v-1.761H64.375v-2.358H62.324v2.358H61.015v1.761h1.308V-2.458A2.072,2.072,0,0,0,64.672-.1h1.754V-2.01H65.3c-.773,0-.922-.149-.922-.925v-9.881ZM72.074-1.861c-.773,0-.922-.149-.922-.925v-9.1c0-.776.149-.925.922-.925h1.189c.713,0,1.011.269,1.011,1.075v8.806c0,.806-.3,1.075-1.011,1.075Zm2.2-12.716v.985a1.509,1.509,0,0,0-1.635-.985H71.45A2.072,2.072,0,0,0,69.1-12.219v9.761A2.072,2.072,0,0,0,71.45-.1h1.189a1.509,1.509,0,0,0,1.635-.985V-.1h2.051V-14.577Zm9.6,0a1.51,1.51,0,0,0-1.635.985v-.985H80.19V-.1h2.051V-11.742c0-.806.3-1.075,1.011-1.075h1.189c.773,0,.922.149.922.925V-.1h2.051V-12.219a2.072,2.072,0,0,0-2.349-2.358ZM95.5-12.816v-1.761H93.449v-2.358H91.4v2.358H90.09v1.761H91.4V-2.458A2.072,2.072,0,0,0,93.746-.1H95.5V-2.01H94.37c-.773,0-.922-.149-.922-.925v-9.881Z" transform="translate(-1.5 20.07)" fill="#9b1613"/>
</svg>
