<svg xmlns="http://www.w3.org/2000/svg" width="52" height="18" viewBox="0 0 52 18">
  <path id="before" d="M1.54-17.467V-.732H6.932A1.888,1.888,0,0,0,9.094-2.858V-7.97A1.1,1.1,0,0,0,8.081-9.207c.629-.054,1.013-.538,1.013-1.318v-4.816a1.888,1.888,0,0,0-2.162-2.126ZM7.205-3.154c0,.7-.137.834-.848.834H3.428V-8.481H6.357c.712,0,.848.135.848.834Zm0-7.749c0,.7-.137.834-.848.834H3.428V-15.88H6.357c.712,0,.848.135.848.834Zm7.472,2.691V-11.36c0-.7.137-.834.848-.834h1.368c.712,0,.848.135.848.834v3.148Zm.274-5.57a1.888,1.888,0,0,0-2.162,2.126v8.8A1.888,1.888,0,0,0,14.951-.732h2.436a1.888,1.888,0,0,0,2.162-2.126v-1.48H17.66v1.184c0,.7-.137.834-.848.834H15.525c-.712,0-.848-.135-.848-.834V-6.624h4.954v-5.031a1.888,1.888,0,0,0-2.162-2.126ZM26.938-17.01v-1.722H25.3a1.888,1.888,0,0,0-2.162,2.126v2.825H21.82v1.587h1.314V-.732h1.888V-12.194h1.916v-1.587H25.022v-2.395c0-.7.137-.834.848-.834ZM34.519-3.154c0,.7-.137.834-.848.834h-1.7c-.712,0-.848-.135-.848-.834V-11.36c0-.7.137-.834.848-.834h1.7c.712,0,.848.135.848.834ZM31.426-13.781a1.888,1.888,0,0,0-2.162,2.126v8.8A1.888,1.888,0,0,0,31.426-.732h2.792A1.888,1.888,0,0,0,36.38-2.858v-8.8a1.888,1.888,0,0,0-2.162-2.126Zm12.234,0a2.07,2.07,0,0,0-1.971,1.507v-1.507H39.8V-.732h1.888v-9.417c0-1.372.52-2.018,1.724-2.018h.821v-1.614Zm4.926,5.57V-11.36c0-.7.137-.834.848-.834H50.8c.712,0,.848.135.848.834v3.148Zm.274-5.57A1.888,1.888,0,0,0,46.7-11.656v8.8A1.888,1.888,0,0,0,48.86-.732H51.3a1.888,1.888,0,0,0,2.162-2.126v-1.48H51.569v1.184c0,.7-.137.834-.848.834H49.435c-.712,0-.848-.135-.848-.834V-6.624H53.54v-5.031a1.888,1.888,0,0,0-2.162-2.126Z" transform="translate(-1.54 18.732)" fill="#fff"/>
</svg>
