<svg xmlns="http://www.w3.org/2000/svg" width="40" height="18" viewBox="0 0 40 18">
  <path id="after" d="M3.239-6.571l1.438-9.605L6.311-6.571ZM7.3-.732H9.243L6.227-17.467H3.154L.42-.732H2.365l.648-4.251H6.565ZM16.206-17.01v-1.722H14.514c-1.494,0-2.227.7-2.227,2.126v2.825H10.934v1.587h1.353V-.732h1.945V-12.194h1.973v-1.587H14.233v-2.395c0-.7.141-.834.874-.834Zm6.54,4.816v-1.587H20.8v-2.126H18.856v2.126h-1.24v1.587h1.24v9.336c0,1.426.733,2.126,2.227,2.126h1.663V-2.454H21.674c-.733,0-.874-.135-.874-.834v-8.906Zm4.623,3.982V-11.36c0-.7.141-.834.874-.834h1.409c.733,0,.874.135.874.834v3.148Zm.282-5.57c-1.494,0-2.227.7-2.227,2.126v8.8c0,1.426.733,2.126,2.227,2.126h2.509c1.494,0,2.227-.7,2.227-2.126v-1.48H30.441v1.184c0,.7-.141.834-.874.834H28.242c-.733,0-.874-.135-.874-.834V-6.624h5.1v-5.031c0-1.426-.733-2.126-2.227-2.126Zm12.178,0a2.121,2.121,0,0,0-2.03,1.507v-1.507H35.853V-.732H37.8v-9.417c0-1.372.536-2.018,1.776-2.018h.846v-1.614Z" transform="translate(-0.42 18.732)" fill="#fff"/>
</svg>
