<svg xmlns="http://www.w3.org/2000/svg" width="36" height="18" viewBox="0 0 36 18">
  <path id="case" d="M9.056-13.344v-3.034A2.036,2.036,0,0,0,6.715-18.66H3.841A2.036,2.036,0,0,0,1.5-16.377V-2.943A2.036,2.036,0,0,0,3.841-.66H6.715A2.036,2.036,0,0,0,9.056-2.943V-5.976H7.011V-3.26c0,.751-.148.9-.919.9H4.463c-.77,0-.919-.144-.919-.9v-12.8c0-.751.148-.9.919-.9h1.63c.77,0,.919.144.919.9v2.716Zm5.333,10.95c-.77,0-.919-.144-.919-.9V-12.1c0-.751.148-.9.919-.9h1.185c.711,0,1.007.26,1.007,1.04v8.523c0,.78-.3,1.04-1.007,1.04ZM16.581-14.7v.953a1.508,1.508,0,0,0-1.63-.953H13.767a2.036,2.036,0,0,0-2.341,2.283v9.448A2.036,2.036,0,0,0,13.767-.689h1.185a1.508,1.508,0,0,0,1.63-.953v.953h2.044V-14.7ZM25.707-3.26c0,.751-.148.9-.919.9h-.8c-.77,0-.919-.144-.919-.9V-4.387H21.056v1.416A2.036,2.036,0,0,0,23.4-.689h1.985a2.036,2.036,0,0,0,2.341-2.283V-6.207A2.036,2.036,0,0,0,25.381-8.49H23.93c-.77,0-.919-.144-.919-.9V-12.13c0-.751.148-.9.919-.9h.83c.77,0,.919.144.919.9V-11h2.015v-1.416A2.036,2.036,0,0,0,25.352-14.7H23.337A2.036,2.036,0,0,0,21-12.419V-9.1a2.036,2.036,0,0,0,2.341,2.283h1.452c.77,0,.919.144.919.9Zm6.43-5.461V-12.1c0-.751.148-.9.919-.9h1.481c.77,0,.919.144.919.9v3.38Zm.3-5.981a2.036,2.036,0,0,0-2.341,2.283v9.448A2.036,2.036,0,0,0,32.433-.689H35.07a2.036,2.036,0,0,0,2.341-2.283V-4.56H35.367v1.271c0,.751-.148.9-.919.9H33.056c-.77,0-.919-.144-.919-.9V-7.016H37.5v-5.4A2.036,2.036,0,0,0,35.159-14.7Z" transform="translate(-1.5 18.66)" fill="#9b1613"/>
</svg>
