<svg xmlns="http://www.w3.org/2000/svg" width="64" height="20" viewBox="0 0 64 20">
  <path id="review" d="M3.714-16.906H6.536c.789,0,.941.149.941.925v5.433c0,.776-.152.925-.941.925H3.714ZM8.265-.1h2.246L7.659-7.891C8.933-8.04,9.54-8.816,9.54-10.219v-6.09a2.094,2.094,0,0,0-2.4-2.358H1.65V-.1H3.714V-7.861H5.5ZM15.7-8.4v-3.493c0-.776.152-.925.941-.925h1.517c.789,0,.941.149.941.925V-8.4Zm.3-6.179a2.094,2.094,0,0,0-2.4,2.358v9.761A2.094,2.094,0,0,0,16-.1h2.7a2.094,2.094,0,0,0,2.4-2.358V-4.1H19.008v1.313c0,.776-.152.925-.941.925H16.641c-.789,0-.941-.149-.941-.925V-6.637h5.493v-5.582a2.094,2.094,0,0,0-2.4-2.358Zm9.711,0H23.621L26.048-.1h3.308l2.428-14.478H29.69l-2,13.045ZM36.609-.1V-14.578H34.515V-.1ZM34.454-17.682h2.215V-20.1H34.454ZM42.648-8.4v-3.493c0-.776.152-.925.941-.925h1.517c.789,0,.941.149.941.925V-8.4Zm.3-6.179a2.094,2.094,0,0,0-2.4,2.358v9.761A2.094,2.094,0,0,0,42.951-.1h2.7a2.094,2.094,0,0,0,2.4-2.358V-4.1H45.955v1.313c0,.776-.152.925-.941.925H43.588c-.789,0-.941-.149-.941-.925V-6.637H48.14v-5.582a2.094,2.094,0,0,0-2.4-2.358Zm20.7,0L61.432-1.533,59.55-14.578H56.668L54.756-1.533,52.571-14.578h-2L53.178-.1h3.186l1.73-11.612L59.854-.1H63.04l2.61-14.478Z" transform="translate(-1.65 20.1)" fill="#9b1613"/>
</svg>
