<svg xmlns="http://www.w3.org/2000/svg" xmlns:xlink="http://www.w3.org/1999/xlink" width="416" height="186" viewBox="0 0 416 186">
  <defs>
    <linearGradient id="linear-gradient" y1="0.5" x2="1" y2="0.5" gradientUnits="objectBoundingBox">
      <stop offset="0" stop-color="#6e5927"/>
      <stop offset="1" stop-color="#c3a45f"/>
    </linearGradient>
  </defs>
  <g id="mv_mainTtl" transform="translate(-1046 -167)">
    <path id="パス_141333" data-name="パス 141333" d="M21.114-26.822a11.765,11.765,0,0,1,4.58.931,10.468,10.468,0,0,1,6.374,10.044A11.878,11.878,0,0,1,25.961-5.221a21.5,21.5,0,0,1-7.023,2.249A5.052,5.052,0,0,1,20.045-.8a26.5,26.5,0,0,0,6.3-2.133A13.929,13.929,0,0,0,34.32-15.808a12.7,12.7,0,0,0-3.7-9.269A14.21,14.21,0,0,0,20.427-28.8c-5.038,0-9.16,1.706-12.137,5.119A15.94,15.94,0,0,0,4.32-13.171c0,5.2,2.6,9.114,6.031,9.114,2.672,0,4.885-2.327,7.061-7.485A58.02,58.02,0,0,0,21.114-26.822Zm-2.252.039a55.857,55.857,0,0,1-3.55,14.7c-1.718,3.917-3.321,5.778-5,5.778-2.176,0-3.855-2.986-3.855-6.825A13.688,13.688,0,0,1,12.984-25,12.966,12.966,0,0,1,18.862-26.783Z" transform="translate(1381.68 209.8)" fill="#222"/>
    <path id="パス_141332" data-name="パス 141332" d="M11.889-4.187h3.672a20.031,20.031,0,0,1,3.43.2V-6.161a19.519,19.519,0,0,1-3.39.2H11.889V-9.947h2.7a25.827,25.827,0,0,1,3.672.161c-.081-.927-.121-2.055-.121-3.908v-6.365c0-1.732.04-2.86.121-3.746a24.21,24.21,0,0,1-3.551.161H11.889v-3.867h4.036a19.8,19.8,0,0,1,3.39.2v-2.175a19.466,19.466,0,0,1-3.43.2h-4v-.524a21.95,21.95,0,0,1,.282-3.626H9.75a21.95,21.95,0,0,1,.282,3.626v.524H6.158a19.926,19.926,0,0,1-3.511-.2v2.175a20.261,20.261,0,0,1,3.471-.2h3.915v3.867H7.611A29.631,29.631,0,0,1,3.9-23.805a31.349,31.349,0,0,1,.161,3.787v6.365A31.987,31.987,0,0,1,3.9-9.786a30.489,30.489,0,0,1,3.874-.161h2.26v3.988H5.795a19.976,19.976,0,0,1-3.471-.2v2.175a21.37,21.37,0,0,1,3.511-.2h4.2V-.722A23.136,23.136,0,0,1,9.75,2.944h2.421a22.1,22.1,0,0,1-.282-3.666Zm0-7.453v-4.552h4.439v4.552Zm0-6.123v-4.19h4.439v4.19Zm-1.856-4.19v4.19H5.875v-4.19Zm0,5.761v4.552H5.875v-4.552Zm15.82-.886c-.484,2.135-.928,3.746-1.735,6.325a80.271,80.271,0,0,1-3.471,9.427,24.179,24.179,0,0,1-2.462.161,4,4,0,0,1-.605-.04l.565,2.377a21.276,21.276,0,0,1,2.26-.4C27.386-.239,30.9-.843,35.094-1.689c.565,1.41.807,2.055,1.534,4.19l1.9-1.047a97.746,97.746,0,0,0-6.659-14.5l-1.816.765a64.674,64.674,0,0,1,4.4,8.943c-3.39.685-5.65,1.007-11.663,1.732a98.181,98.181,0,0,0,5.246-15.469h6.941a20.841,20.841,0,0,1,3.471.2v-2.3a15.722,15.722,0,0,1-3.471.242H23.108a16.131,16.131,0,0,1-3.511-.242v2.3a21.074,21.074,0,0,1,3.511-.2ZM21.211-27.471a20.782,20.782,0,0,1,3.511-.2h8.8a23.01,23.01,0,0,1,3.471.2v-2.3a15.506,15.506,0,0,1-3.471.242h-8.8a15.7,15.7,0,0,1-3.511-.242ZM46.757-5.113a17.552,17.552,0,0,1-2.825.443l.686,2.135a18.965,18.965,0,0,1,3.027-.927c1.291-.322,3.794-1.047,5-1.45a7.977,7.977,0,0,0,.888-.282v4.27a24.4,24.4,0,0,1-.242,4.149h2.381a26.687,26.687,0,0,1-.242-4.069V-29.767a6.939,6.939,0,0,1,1.695.121v-2.095a14.873,14.873,0,0,1-2.744.161H47.12a15.6,15.6,0,0,1-2.744-.2v2.175a12.477,12.477,0,0,1,2.381-.2Zm1.937-24.694h4.8v6.768h-4.8Zm0,8.46h4.843v6.2H48.694Zm0,7.9h4.843v6.526q-2.664.786-4.843,1.329ZM64.756-28.72v-.564A15.783,15.783,0,0,1,65-32.869H62.617a16.02,16.02,0,0,1,.242,3.545v.6H60.317a15.921,15.921,0,0,1-3.067-.2v1.974c.767-.081.928-.081,2.1-.121a52.534,52.534,0,0,1,1.09,5.882h-.646a21.744,21.744,0,0,1-3.471-.2v2.175a23.01,23.01,0,0,1,3.471-.2H71.738A49.713,49.713,0,0,0,73.675-6.765a28.7,28.7,0,0,1-8.717,8.1,5.574,5.574,0,0,1,1.493,1.41,29.776,29.776,0,0,0,7.91-7.493c1.614,4.23,3.551,6.768,5.125,6.768,1.534,0,2.3-1.853,2.865-7.009A5.673,5.673,0,0,1,80.5-6.322a31.56,31.56,0,0,1-.444,4.23c-.282,1.209-.525,1.934-.726,1.934,0,0-.161-.121-.283-.2a5.9,5.9,0,0,1-1.211-1.531,20.5,20.5,0,0,1-2.139-4.754,34.334,34.334,0,0,0,3.43-7.009c.444-1.168.686-1.853.928-2.336l-1.9-1.209A25.8,25.8,0,0,1,75.007-8.94a57.749,57.749,0,0,1-1.412-10.474h3.027a28.274,28.274,0,0,1,4.4.242v-2.256a23.752,23.752,0,0,1-4.4.242H73.514c-.081-2.5-.121-5.116-.121-6.929a29.235,29.235,0,0,1,.2-4.673h-2.3a15.365,15.365,0,0,1,.161,2.578c.04,5.2.04,5.2.2,9.024H66.935a41.991,41.991,0,0,0,1.412-5.882c.767.04,1.13.04,1.816.121v-1.934a17.524,17.524,0,0,1-3.188.161Zm-2.664,7.533a54.52,54.52,0,0,0-.928-5.882h5.408A31.22,31.22,0,0,1,65.2-21.187Zm6.82,8.46a30.973,30.973,0,0,1,.161-3.948,19.218,19.218,0,0,1-2.906.161H61.447a17.905,17.905,0,0,1-2.906-.161,38.878,38.878,0,0,1,.161,3.908v9.346A28.119,28.119,0,0,1,58.5.406h2.018V-2.938h5c1.9,0,2.542,0,3.471.081-.04-.645-.04-.765-.04-1.209a9.088,9.088,0,0,0-.04-1.047v-7.614Zm-8.394-2.135h6.619v4.19H60.519Zm0,5.761h6.619V-4.59H60.519Zm14.65-20.585A24.558,24.558,0,0,1,78.8-23.845l1.655-1.088a29.213,29.213,0,0,0-3.834-5.64Zm31.357,5.438H114.6c1.977,0,3.188.04,4.52.161v-2.538a28.068,28.068,0,0,1-4.56.242H96.88a28.068,28.068,0,0,1-4.56-.242v2.538c1.332-.121,2.542-.161,4.52-.161H104.1V-6H93.813a28.32,28.32,0,0,1-4.6-.242v2.578c1.372-.121,2.542-.161,4.56-.161h23.891c1.977,0,3.188.04,4.52.161V-6.241a27.775,27.775,0,0,1-4.56.242h-11.1Zm23.447,10.434a33.6,33.6,0,0,1,4.439-.161h24.133a34.487,34.487,0,0,1,4.4.161v-2.7a25.219,25.219,0,0,1-4.4.2H134.412a26.1,26.1,0,0,1-4.439-.2Zm47.863-14.3a40.6,40.6,0,0,1,9.686,5.277l1.372-2.175a59.075,59.075,0,0,0-9.766-5.076Zm-3.188,9.588a44.288,44.288,0,0,1,10.13,5.438l1.291-2.175a63.376,63.376,0,0,0-10.13-5.2ZM198.54-31.379a31.794,31.794,0,0,1,4.076,6.405l1.776-1.047a36.3,36.3,0,0,0-4.2-6.284ZM175.7.768l1.574-.4,2.22-.443a45,45,0,0,0,9.928-3.384c7.1-3.5,11.986-8.943,15.5-17.282a8.966,8.966,0,0,1-2.058-1.773,29.526,29.526,0,0,1-4.924,9.064,27.175,27.175,0,0,1-12.188,9.024,34.847,34.847,0,0,1-10.654,2.457Zm27.2-34.2a30.032,30.032,0,0,1,3.915,6.2l1.776-1.047a36.735,36.735,0,0,0-4.076-6.123Zm28.371,17.322h7.708a10.451,10.451,0,0,1,2.179.2v-2.417a19.891,19.891,0,0,1-3.592.242H223.157a20.635,20.635,0,0,1-3.551-.242v2.417a23.857,23.857,0,0,1,3.551-.161h5.852v14.1h-8.233a16.277,16.277,0,0,1-3.632-.242V.245a21.2,21.2,0,0,1,3.632-.2h19.21a27.531,27.531,0,0,1,3.672.2V-2.213a16.277,16.277,0,0,1-3.632.242h-8.757ZM259.64-26.182a45.969,45.969,0,0,1,9.484,7.815l1.695-1.974a50.725,50.725,0,0,0-9.565-7.573Zm0,26.064c.605-.2.888-.282,1.493-.443,6.336-1.37,9.565-2.5,13.358-4.633,6.457-3.666,11.058-8.943,14.65-16.839a6.472,6.472,0,0,1-2.018-1.934c-3.229,8.46-8.677,14.382-16.506,17.927a34.513,34.513,0,0,1-11.7,3.1Zm51.334,1.491a26.13,26.13,0,0,1-.2-4.23V-15.829a12.413,12.413,0,0,0-.121-1.813l1.291.645A74.591,74.591,0,0,1,327.2-8.981l1.412-2.538a92.178,92.178,0,0,0-17.838-8.46v-7.573a25.55,25.55,0,0,1,.2-4.19h-2.946a23.211,23.211,0,0,1,.242,4.109V-2.777a24.077,24.077,0,0,1-.242,4.149Zm33.617-23.284a20.107,20.107,0,0,1-2.906.242l.323,2.417a43.555,43.555,0,0,1,5.69-1.088l2.623-.4A66.831,66.831,0,0,1,345.8-7.611,39.612,39.612,0,0,1,341.565-.4l2.26,1.37c1.332-2.336,2.179-3.908,2.542-4.633a73.7,73.7,0,0,0,6.255-17.282,20.621,20.621,0,0,1,2.865-.2c4.116,0,5.367,1.37,5.367,5.761,0,4.673-.605,8.863-1.695,11.481-.565,1.41-1.372,2.095-2.421,2.095a15.18,15.18,0,0,1-6.013-1.934l.04,1.128a7.359,7.359,0,0,1-.081,1.289A15.217,15.217,0,0,0,356.739.365a4.058,4.058,0,0,0,3.753-1.853c1.614-2.336,2.623-7.573,2.623-13.656,0-3.3-.525-5.076-1.937-6.365-1.211-1.088-2.865-1.571-5.367-1.571-.969,0-1.655.04-2.785.121l.323-1.732c.363-1.974.605-3.263.686-3.908l.283-1.531a10.187,10.187,0,0,1,.363-1.41l-2.7-.322v.524a54.446,54.446,0,0,1-1.211,8.581c-1.937.282-2.744.363-3.43.483Zm21.309-2.3a32.667,32.667,0,0,1,8.273,14.059l2.058-1.289A36.2,36.2,0,0,0,367.757-25.3Zm6.5-9.225a30.031,30.031,0,0,1,3.915,6.2l1.776-1.047a36.734,36.734,0,0,0-4.076-6.123Zm-4.359,2.055a31.793,31.793,0,0,1,4.076,6.405l1.776-1.047a36.3,36.3,0,0,0-4.2-6.284ZM34.408,54.387v9.95c0,.685-.363.927-1.372.927a20.822,20.822,0,0,1-4.52-.564,7.8,7.8,0,0,1,.565,2.377,32.973,32.973,0,0,0,3.35.242c3.269,0,4-.524,4-2.78V37.266a30.927,30.927,0,0,1,.161-3.787,30.891,30.891,0,0,1-3.713.161H27.386a29.632,29.632,0,0,1-3.713-.161,34.857,34.857,0,0,1,.161,4.31,174.4,174.4,0,0,1-.686,18.853,16.307,16.307,0,0,1-4.116,9.427,5.792,5.792,0,0,1,1.695,1.491c2.986-3.827,4.237-7.291,4.681-13.173Zm0-9.668v7.9H25.529c.161-3.182.2-3.787.242-7.9Zm0-1.773H25.771l.04-2.014V35.453h8.6ZM6.481,36.581H6.2a17.788,17.788,0,0,1-3.632-.242v2.175a19.8,19.8,0,0,1,3.632-.2h.282V55.958H5.189a17.189,17.189,0,0,1-3.309-.2v2.175a17.975,17.975,0,0,1,3.309-.2H17.821c1.534,0,2.946.04,3.753.121V55.756a20.653,20.653,0,0,1-3.39.2V38.313a24.277,24.277,0,0,1,3.511.161V36.339a19.188,19.188,0,0,1-3.511.242v-.765a25.3,25.3,0,0,1,.242-3.948H16.045a23.663,23.663,0,0,1,.2,3.948v.765H8.418v-.765a27.828,27.828,0,0,1,.2-3.948H6.239a26.775,26.775,0,0,1,.242,3.948ZM8.418,55.958V50.922h7.829v5.036Zm0-6.727V44.638h7.829V49.23Zm0-6.284V38.313h7.829v4.633Zm0,16.476a12.187,12.187,0,0,1-2.3,3.223,16.541,16.541,0,0,1-3.794,3.062A4.962,4.962,0,0,1,3.9,67.318a23.326,23.326,0,0,0,6.255-6.889Zm5.367.967a22.491,22.491,0,0,0,3.955,4.472,5.665,5.665,0,0,1,1.534-1.41,13.835,13.835,0,0,1-4-4.109Zm52.747-22.4v5.68H59.51a25.8,25.8,0,0,1-3.955-.242v2.3a26.919,26.919,0,0,1,3.955-.242H72.424v5.036H59.308a25.951,25.951,0,0,1-3.915-.242v2.3a27.305,27.305,0,0,1,3.955-.242H72.424V64.1c0,.806-.283.967-1.614.967a27.9,27.9,0,0,1-5.125-.483,7.078,7.078,0,0,1,.525,2.3c1.493.081,2.785.161,3.834.161,3.592,0,4.48-.564,4.48-2.78V52.332h1.9a26.54,26.54,0,0,1,3.955.242v-2.3a26.166,26.166,0,0,1-3.955.242h-1.9V45.484h1.9a26.166,26.166,0,0,1,3.955.242v-2.3a26.385,26.385,0,0,1-4,.242H68.59v-5.68h6.3a32.693,32.693,0,0,1,3.713.2V35.977a22.635,22.635,0,0,1-3.753.242H68.59V34.486a21.333,21.333,0,0,1,.242-3.344H66.29a22.089,22.089,0,0,1,.242,3.344v1.732H61a22.1,22.1,0,0,1-3.713-.242v2.216a25.426,25.426,0,0,1,3.713-.2ZM53.456,30.982c-1.332,2.78-4.722,6.083-8.757,8.581a6.672,6.672,0,0,1,1.453,1.571A37.171,37.171,0,0,0,53.7,34.285a24.271,24.271,0,0,1,1.695-2.014Zm13.318,29.81a52.2,52.2,0,0,0-6.538-6.808L58.7,55.233A32.865,32.865,0,0,1,65,62.242ZM49.663,62.887a34.59,34.59,0,0,1-.242,4.673h2.542a33.643,33.643,0,0,1-.242-4.713V46.169A40.124,40.124,0,0,0,54.384,42.5a15.987,15.987,0,0,1,1.09-1.692l-2.018-1.128c-1.09,3.3-5.166,8.218-9.242,11.159a5.681,5.681,0,0,1,1.332,1.732,20.281,20.281,0,0,0,4.278-4.431c-.121,1.773-.161,3.021-.161,4.713ZM99.746,37.83a56.945,56.945,0,0,1-8.636-.443l-.04,2.3a9.151,9.151,0,0,1,1.009-.04h.484c1.493.04,5.448.121,6.175.121a4.4,4.4,0,0,0,.767-.04l-.161.242a1.751,1.751,0,0,0-.161.282c-2.744,5-6.336,9.628-9.242,11.844L91.8,53.984a13.3,13.3,0,0,1,3.027-3.223c3.309-2.78,6.578-4.31,9.2-4.31,1.977,0,3.067,1.088,3.39,3.464a32.7,32.7,0,0,0-6.054,3.263c-2.7,1.974-4.036,4.028-4.036,6.164,0,4.028,3.43,6,10.493,6a58.613,58.613,0,0,0,9.645-.846A11.713,11.713,0,0,1,119,64.337l-.363-2.578a34.314,34.314,0,0,1-10.816,1.531c-5.61,0-8.233-1.289-8.233-4.028,0-2.538,2.3-4.592,8.031-7.251a11.33,11.33,0,0,1,.04,1.249,49.39,49.39,0,0,1-.283,6.083h2.3a6.924,6.924,0,0,1-.081-1.249c0-.322,0-1.128.04-1.974.04-.765.04-1.692.04-2.336a25.853,25.853,0,0,0-.081-2.618,63.837,63.837,0,0,1,10.856-3.626l-1.17-2.336a9.678,9.678,0,0,1-2.664,1.168c-1.776.6-4.924,1.813-7.264,2.739-.525-2.981-2.26-4.512-5.246-4.512a10.987,10.987,0,0,0-6.255,2.095c-.444.322-.444.322-2.018,1.571l-.081-.081a29.664,29.664,0,0,0,6.054-8.46A112.479,112.479,0,0,0,115,38.676c.767-.121,1.009-.161,1.614-.242l-.242-2.256c-1.9.685-6.094,1.249-11.1,1.491-2.22.121-2.22.121-2.583.161a22.412,22.412,0,0,0,1.291-2.86,6.833,6.833,0,0,1,1.09-2.216l-2.664-.564c-.121,1.249-.646,2.739-2.018,5.64Zm39.227,23.365a16.068,16.068,0,0,1-3.874-5.116c.242-1.813.323-2.9.444-5.076a10.392,10.392,0,0,1,.081-1.289l-2.22-.2a10.922,10.922,0,0,1,.121,1.732,31.072,31.072,0,0,1-1.049,8.339,21.248,21.248,0,0,1-2.825,6.727,5.32,5.32,0,0,1,1.816,1.088,30.51,30.51,0,0,0,3.229-8.9,15.528,15.528,0,0,0,5.569,5.922c3.107,1.813,6.538,2.3,16.224,2.3,4.237,0,7.022-.04,9.968-.2a5.331,5.331,0,0,1,.848-2.336,97.4,97.4,0,0,1-12.067.524c-8.8,0-11.421-.363-14.286-2.014V54.427h2.785a18.55,18.55,0,0,1,3.309.242V52.493a19.721,19.721,0,0,1-3.269.2H140.95V46.612h2.583a22.846,22.846,0,0,1,3.794.242v-2.3a20.931,20.931,0,0,1-3.794.242H140.87v-5.72h2.341a22.384,22.384,0,0,1,3.632.2V37.064a18.735,18.735,0,0,1-3.632.2H140.87V35.493a24.366,24.366,0,0,1,.242-4.028H138.65a20.814,20.814,0,0,1,.242,4.028v1.773H135.5a18.305,18.305,0,0,1-3.511-.2V39.28a21.67,21.67,0,0,1,3.511-.2h3.39V44.8h-3.915a22.2,22.2,0,0,1-3.915-.242v2.3a23.611,23.611,0,0,1,3.874-.242h4.036Zm15.094-25.782a14,14,0,0,1-1.493,6.405c-1.049,1.934-2.341,3.142-5.085,4.592a5.255,5.255,0,0,1,1.372,1.652c3.471-2.135,5.085-3.948,6.175-6.848a17.547,17.547,0,0,0,1.049-5.8h6.78c-.121,4.592-.4,7.735-.807,8.46-.323.564-.726.725-1.937.725a24.164,24.164,0,0,1-3.672-.322,5.747,5.747,0,0,1,.444,2.095c1.17.081,1.856.121,2.7.121,2.5,0,3.309-.242,3.955-1.209.726-1.047,1.009-3.1,1.291-9.749.081-1.088.081-1.41.161-2.055a30.674,30.674,0,0,1-3.794.161h-9.121a23.06,23.06,0,0,1-3.955-.242v2.256a22.514,22.514,0,0,1,3.794-.242Zm-4.883,22.2a26.668,26.668,0,0,1-.161,3.746,31.23,31.23,0,0,1,4.278-.2h7.143a31.878,31.878,0,0,1,4.318.2,28.23,28.23,0,0,1-.161-3.948V53.057a26.912,26.912,0,0,1,.161-3.827,31.517,31.517,0,0,1-4.318.2h-7.264a28.642,28.642,0,0,1-4.157-.2,24.672,24.672,0,0,1,.161,3.626Zm2.018-6.365h11.381v8.1H151.2Zm32-16.154a57.913,57.913,0,0,0,14.609,2.82l.484-2.216a46.876,46.876,0,0,1-14.165-2.538Zm-3.511,10.273c1.13-.161,1.412-.161,2.5-.242,7.466-.443,10.937-.806,13.681-1.37l.04.04c-1.372,1.249-3.067,2.9-6.175,5.962-10.17,10.071-12.067,11.844-14.165,13.294l1.856,2.055c1.372-1.571,4.2-4.472,6.175-6.284,3.309-3.062,5.367-4.19,7.547-4.19a1.972,1.972,0,0,1,1.856.967c.282.524.363,1.007.484,2.9.242,2.9.363,3.626.807,4.431.888,1.571,2.583,2.3,5.569,2.3a41.006,41.006,0,0,0,7.466-.886,8.747,8.747,0,0,1,1.17-.161l-.4-2.538a21.924,21.924,0,0,1-8.233,1.491c-1.977,0-2.946-.322-3.511-1.209-.4-.645-.525-1.329-.726-4.028-.161-1.974-.323-2.78-.848-3.545a3.575,3.575,0,0,0-3.067-1.491c-1.251,0-2.139.322-4.278,1.571l-.04-.081a77.81,77.81,0,0,0,8.152-7.412,41.637,41.637,0,0,1,3.632-3.464l-1.534-1.853a7.306,7.306,0,0,1-1.9.443c-3.148.443-10.574.967-13.923.967-.767,0-1.291-.04-2.341-.081Zm42.092-8.017A14.371,14.371,0,0,1,224,37.1c5-.161,11.139-.483,12.349-.645a1.675,1.675,0,0,1,.605-.081v.04c-.2.2-.605.645-.686.725-5,5.116-15.941,14.382-19.573,16.557l1.493,2.095a26.172,26.172,0,0,1,17.071-6.929c5.569,0,8.919,2.377,8.919,6.325,0,3.666-2.421,6.244-6.9,7.453a12.6,12.6,0,0,0-1.856-3.908,7.984,7.984,0,0,0-6.578-3.3c-3.309,0-5.569,1.893-5.569,4.633,0,3.384,3.229,5.4,8.717,5.4,8.8,0,14.569-4.069,14.569-10.273,0-5-4.318-8.258-10.977-8.258a19.46,19.46,0,0,0-10.372,2.78l-.121-.161c.525-.322,1.776-1.209,2.3-1.611,1.856-1.45,7.3-6.244,9.484-8.419,3.35-3.3,3.35-3.3,3.915-3.545l-1.453-1.893a4.484,4.484,0,0,1-1.816.4c-3.673.322-8.838.524-12.591.524a17.975,17.975,0,0,1-3.309-.2Zm13.277,25.863a14.378,14.378,0,0,1-3.188.322,10.549,10.549,0,0,1-4.722-.967,2.756,2.756,0,0,1-1.735-2.578c0-1.611,1.332-2.659,3.471-2.659C232,57.327,234.094,59.342,235.063,63.209Zm38.622-12.73v4.149h-3.39a22.142,22.142,0,0,1-3.834-.2v2.055a22.433,22.433,0,0,1,3.834-.2h18.12a24.4,24.4,0,0,1,3.955.2V54.427a24.091,24.091,0,0,1-3.955.2H284.46V50.479h2.664a23.371,23.371,0,0,1,3.794.2V48.666a21.117,21.117,0,0,1-3.713.2H284.46a21.848,21.848,0,0,1,.2-2.7h-2.3a21.223,21.223,0,0,1,.2,2.7h-6.982a21.848,21.848,0,0,1,.2-2.7h-2.3a23.2,23.2,0,0,1,.2,2.7h-1.776a21.079,21.079,0,0,1-3.753-.2v2.014a23.07,23.07,0,0,1,3.794-.2Zm1.9,0h6.982v4.149h-6.982Zm2.179-15.751a16.961,16.961,0,0,1,.121-2.216,23.509,23.509,0,0,1-3.551.161h-4.157a17.867,17.867,0,0,1-3.188-.2v2.055a18.143,18.143,0,0,1,3.188-.2h5.771v3.424h-6.215a18.891,18.891,0,0,1-2.5-.121,15.9,15.9,0,0,1,.121,2.175v2.9c0,2.135.565,2.377,5.489,2.377,3.309,0,4.278-.161,4.8-.725.565-.6.848-1.45,1.09-3.424a6.04,6.04,0,0,1-1.776-.886,9,9,0,0,1-.4,2.739c-.323.564-.969.685-4.237.685-2.785,0-3.107-.121-3.107-1.249V39.28h6.215a20.378,20.378,0,0,1,2.462.121,14.472,14.472,0,0,1-.121-2.135Zm13.318,0a16.136,16.136,0,0,1,.121-2.216,24.149,24.149,0,0,1-3.592.161h-4.116a17.867,17.867,0,0,1-3.188-.2v2.055a17.656,17.656,0,0,1,3.148-.2h5.771v3.424h-6.215a18.478,18.478,0,0,1-2.5-.121,19.306,19.306,0,0,1,.121,2.216V42.7c0,2.135.565,2.377,5.367,2.377,5.69,0,5.932-.161,6.417-4.149a7.243,7.243,0,0,1-1.776-.886c-.121,1.692-.323,2.578-.646,2.941s-1.332.483-4.439.483a10.42,10.42,0,0,1-2.542-.2c-.444-.161-.525-.363-.525-1.047V39.28H288.7a20.648,20.648,0,0,1,2.5.121,14.111,14.111,0,0,1-.121-2.135ZM275.016,56.8a21.222,21.222,0,0,1-7.466,4.512,5.137,5.137,0,0,1,1.614,1.45,26.95,26.95,0,0,0,7.466-4.915Zm6.538,1.209a32.272,32.272,0,0,0,8.6,5,6.227,6.227,0,0,1,1.493-1.652,28.382,28.382,0,0,1-8.515-4.431Zm-23.73-24.13a35.654,35.654,0,0,1,5.731,6.889l1.695-1.45a50.645,50.645,0,0,0-5.932-6.727Zm-.807,15.711a15.774,15.774,0,0,1,2.986-.2h2.583v9.991c-2.664,2.7-4.52,4.19-6.376,5.076l1.17,2.135a14.6,14.6,0,0,1,1.372-1.168c1.332-1.168,1.332-1.168,1.856-1.652.969-.846,1.655-1.531,2.865-2.78a9.735,9.735,0,0,0,4.318,3.988c2.341,1.128,4.56,1.41,10.775,1.41,5.367,0,9.887-.081,14.165-.242a7.429,7.429,0,0,1,.847-2.457,120.451,120.451,0,0,1-15.941.765c-4.883,0-7.264-.322-9.322-1.209a6.6,6.6,0,0,1-3.713-3.908V51.607a29.108,29.108,0,0,1,.2-4.19,18.683,18.683,0,0,1-3.067.2h-1.655a15.921,15.921,0,0,1-3.067-.2Zm49.034-8.3v9.427a25.079,25.079,0,0,1-6.175,2.014l.726,2.3a20.684,20.684,0,0,1,2.018-.886c2.583-1.007,2.583-1.007,3.43-1.329v11.32c0,.886-.323,1.128-1.534,1.128a35.7,35.7,0,0,1-4.359-.282,5.24,5.24,0,0,1,.484,2.095c1.614.081,3.027.121,4,.121,2.462,0,3.471-.765,3.471-2.538V51.929c2.381-1.007,2.906-1.249,4.924-2.256V47.659c-1.9.967-2.865,1.37-3.915,1.813a8.339,8.339,0,0,1-1.009.4V41.294h2.139a23.671,23.671,0,0,1,3.107.2V39.28a17.041,17.041,0,0,1-3.027.2h-2.22V35.332a25.081,25.081,0,0,1,.242-3.908h-2.542a24.735,24.735,0,0,1,.242,3.908v4.149H303.71a24.033,24.033,0,0,1-3.511-.242v2.3a24.531,24.531,0,0,1,3.551-.242Zm17.878,6.687c1.453,9.185,4.116,14.422,10.009,19.457a6.661,6.661,0,0,1,1.655-1.853,22.68,22.68,0,0,1-6.9-8.137,26.9,26.9,0,0,1-2.7-9.467h3.43a36.9,36.9,0,0,1,3.955.161,40.389,40.389,0,0,1-.161-4.27V37.91a43.463,43.463,0,0,1,.161-4.391,40.259,40.259,0,0,1-4.238.161h-9.322c-1.978,0-3.027-.04-4.4-.161.121,1.531.161,3.182.161,6.043,0,8.983-.565,14.986-1.856,18.813a17.148,17.148,0,0,1-4.359,7.171,6.3,6.3,0,0,1,1.695,1.571,21.265,21.265,0,0,0,4.924-8.943,45.891,45.891,0,0,0,1.413-10.192Zm-6.457-1.813c.161-5.962.161-5.962.161-7.855v-2.78h13.52V46.169Zm35.191,7.573V63.974c0,1.047-.2,1.249-1.372,1.249a16.172,16.172,0,0,1-3.107-.443,6.658,6.658,0,0,1,.4,2.135c1.211.121,2.1.161,2.785.161,2.543,0,3.269-.645,3.269-2.941V36.782a32.634,32.634,0,0,1,.161-4.149,19.428,19.428,0,0,1-3.269.2h-3.309a22.053,22.053,0,0,1-3.471-.2,72.943,72.943,0,0,1,.2,7.735c0,9.185-.323,15.59-.969,19.055a17.2,17.2,0,0,1-2.462,6.607A6.205,6.205,0,0,1,343.22,67.6c2.179-3.666,2.946-6.768,3.39-13.858Zm0-11.32h-5.771l.04-1.571v-6.2h5.731Zm0,1.732V52.01h-5.932c.081-1.571.081-1.853.121-4.794,0-.645,0-1.732.04-3.062Zm12.995-4.472v6.445h-5.206a29.864,29.864,0,0,1-3.753-.2v2.216a21.939,21.939,0,0,1,2.906-.2A29.424,29.424,0,0,0,365.739,58.7,30.244,30.244,0,0,1,354.923,65.3a8.718,8.718,0,0,1,1.251,1.934,33.138,33.138,0,0,0,10.937-7.05,31.906,31.906,0,0,0,10.977,7.291,9.9,9.9,0,0,1,1.412-2.055,28.6,28.6,0,0,1-10.977-6.687,33.62,33.62,0,0,0,6.215-9.507c.363-.846.686-1.611.888-1.974l-1.251-1.289a14.276,14.276,0,0,1-2.785.161h-3.915V39.683h6.538a27.2,27.2,0,0,1,4.076.242V37.548a27.8,27.8,0,0,1-4.116.242h-6.5V35.574a25.617,25.617,0,0,1,.242-4.069h-2.5a27.053,27.053,0,0,1,.242,4.069V37.79h-5.367a27.956,27.956,0,0,1-4.076-.242v2.377a28.956,28.956,0,0,1,4.116-.242Zm7.385,8.258a28.633,28.633,0,0,1-5.892,9.346,26.485,26.485,0,0,1-5.529-9.346ZM397.177,37.83a56.946,56.946,0,0,1-8.636-.443l-.04,2.3a9.15,9.15,0,0,1,1.009-.04h.484c1.493.04,5.448.121,6.175.121a4.4,4.4,0,0,0,.767-.04l-.161.242a1.755,1.755,0,0,0-.161.282c-2.744,5-6.336,9.628-9.242,11.844l1.856,1.893a13.294,13.294,0,0,1,3.027-3.223c3.309-2.78,6.578-4.31,9.2-4.31,1.977,0,3.067,1.088,3.39,3.464a32.7,32.7,0,0,0-6.054,3.263c-2.7,1.974-4.036,4.028-4.036,6.164,0,4.028,3.43,6,10.493,6a58.613,58.613,0,0,0,9.645-.846,11.714,11.714,0,0,1,1.534-.161l-.363-2.578a34.313,34.313,0,0,1-10.816,1.531c-5.61,0-8.233-1.289-8.233-4.028,0-2.538,2.3-4.592,8.031-7.251a11.326,11.326,0,0,1,.04,1.249,49.388,49.388,0,0,1-.283,6.083h2.3a6.921,6.921,0,0,1-.081-1.249c0-.322,0-1.128.04-1.974.04-.765.04-1.692.04-2.336a25.844,25.844,0,0,0-.081-2.618,63.836,63.836,0,0,1,10.856-3.626L416.71,45.2a9.678,9.678,0,0,1-2.664,1.168c-1.776.6-4.923,1.813-7.264,2.739-.525-2.981-2.26-4.512-5.246-4.512a10.987,10.987,0,0,0-6.255,2.095c-.444.322-.444.322-2.018,1.571l-.081-.081a29.664,29.664,0,0,0,6.054-8.46,112.48,112.48,0,0,0,13.2-1.047c.767-.121,1.009-.161,1.614-.242l-.242-2.256c-1.9.685-6.094,1.249-11.1,1.491-2.22.121-2.22.121-2.583.161a22.406,22.406,0,0,0,1.291-2.86,6.833,6.833,0,0,1,1.09-2.216l-2.664-.564c-.121,1.249-.646,2.739-2.018,5.64Z" transform="translate(1044.12 285.4)" fill="#222"/>
    <rect id="長方形_9663" data-name="長方形 9663" width="328" height="56" transform="translate(1046 167)" fill="url(#linear-gradient)"/>
    <path id="パス_141377" data-name="パス 141377" d="M2.772-14.806a6.557,6.557,0,0,1,1.585-.22c3.654-.264,3.654-.264,5.679-.44V-1.18a30.73,30.73,0,0,1-.264,4.352H12.5a30.5,30.5,0,0,1-.264-4.308V-15.685c1.937-.176,2.333-.22,4.358-.527.352,1.011.484,1.451.88,2.9l1.849-.923a55.04,55.04,0,0,0-3.566-8.352L14-21.839a38.179,38.179,0,0,1,1.893,3.824,74.85,74.85,0,0,1-7.66.791,108.01,108.01,0,0,0,7.4-10.505c.572-.835,1.013-1.538,1.277-1.846a2.529,2.529,0,0,0,.352-.527L15.1-31.377c-.66,1.846-.925,2.33-4.623,7.956C9.112-25,8.848-25.312,7.439-26.806a54.841,54.841,0,0,0,4.314-7.3,9.594,9.594,0,0,1,.925-1.626L10.344-36.74c-.352,1.714-1.893,4.835-4.226,8.571-1.145-1.143-1.145-1.143-2.245-2.2L2.464-28.828a60.372,60.372,0,0,1,6.824,7.209c-.748,1.1-.748,1.1-3.434,4.484-.572.044-1.8.044-1.937.044a9.063,9.063,0,0,1-1.541-.088Zm27.735,3.385v-1.846a27.4,27.4,0,0,1,.264-4.659h-2.73a28.023,28.023,0,0,1,.264,4.7v1.8H24.168a18.447,18.447,0,0,1-4.006-.264v2.418a33.353,33.353,0,0,1,4.006-.176h4.138V-.828H21.7a28,28,0,0,1-4.094-.22V1.414a28.68,28.68,0,0,1,4.182-.264H37.639a28.483,28.483,0,0,1,4.226.264V-1.048a24.423,24.423,0,0,1-4.226.22H30.508V-9.443h5.239a32.556,32.556,0,0,1,3.962.176v-2.418a21.583,21.583,0,0,1-3.962.264Zm7.616-22.945a19.536,19.536,0,0,1-3.39.176H22.1a23.218,23.218,0,0,1-4.182-.22v2.374a20.493,20.493,0,0,1,3.434-.22,27.222,27.222,0,0,0,6.824,9.1,32.887,32.887,0,0,1-9.289,4.7,7.363,7.363,0,0,1,1.365,1.978,38.166,38.166,0,0,0,9.509-5.363,36.27,36.27,0,0,0,11.182,5.978A6.577,6.577,0,0,1,42.262-18.1a32.777,32.777,0,0,1-10.83-5.055,35.385,35.385,0,0,0,7.132-8.527c.4-.571.616-.879.925-1.275Zm-1.673,2.11A29.463,29.463,0,0,1,29.8-24.432a22.92,22.92,0,0,1-6.3-7.824ZM5.326-12.608c-.4,5.363-.969,8.264-2.509,11.78L4.841.227A44.979,44.979,0,0,0,7.395-12.081Zm9.157.4a39.092,39.092,0,0,1,2.245,9.319L18.8-3.641a57.629,57.629,0,0,0-2.465-9.275ZM54.016-31.9v10.769H51.463a14.4,14.4,0,0,1-2.95-.22v2.374a14.666,14.666,0,0,1,2.95-.22h2.553V-6.5a37.18,37.18,0,0,1-6.3,1.978l.836,2.549c.572-.264.616-.308,1.717-.747.352-.132.352-.132.792-.308,1.5-.527,1.8-.659,2.641-1.011,2.95-1.187,4.843-2.022,8.056-3.6l-.22-2.242C59.211-8.7,58.375-8.3,56.218-7.377V-19.2h1.937a20.078,20.078,0,0,1,2.95.176v-2.33a14.666,14.666,0,0,1-2.95.22H56.218V-31.9h2.333a25.358,25.358,0,0,1,3.434.176v-2.462a15.477,15.477,0,0,1-3.522.264h-6.78a16.736,16.736,0,0,1-3.7-.264v2.505a19.314,19.314,0,0,1,3.61-.22ZM73.3-15.07v5.451H67.312a25.109,25.109,0,0,1-4.182-.22v2.418a25.435,25.435,0,0,1,4.182-.22H73.3V-.652H63.834a24.241,24.241,0,0,1-4.094-.22V1.59a26.437,26.437,0,0,1,4.182-.22H83.953a27.058,27.058,0,0,1,4.226.22V-.872A25.435,25.435,0,0,1,84-.652H75.456V-7.641h6.78a26.436,26.436,0,0,1,4.182.22V-9.839a25.435,25.435,0,0,1-4.182.22h-6.78V-15.07h5.019c2.465,0,3.874.044,5.415.176a53.625,53.625,0,0,1-.176-5.538v-8.7A52.382,52.382,0,0,1,85.89-34.5a40.32,40.32,0,0,1-5.591.22H68.809a42.313,42.313,0,0,1-5.635-.22A39.98,39.98,0,0,1,63.438-29v9.143c-.044,2.2-.044,2.2-.044,3.341a9.722,9.722,0,0,1-.176,1.626c1.233-.132,2.906-.176,5.547-.176Zm0-17.275v6.725h-7.7v-6.725Zm2.157,0h8.1v6.725h-8.1ZM73.3-23.729V-17h-7.7v-6.725Zm2.157,0h8.1V-17h-8.1ZM113.581-19.9a3.154,3.154,0,0,0-3.17,3.165,3.182,3.182,0,0,0,3.17,3.165,3.211,3.211,0,0,0,3.17-3.165A3.182,3.182,0,0,0,113.581-19.9Zm56.175-4.571a43.373,43.373,0,0,1-5.591,9.846,32.88,32.88,0,0,1-8.5,8.088,8.019,8.019,0,0,1,1.8,1.846,39.007,39.007,0,0,0,7.924-8,45.493,45.493,0,0,0,5.723-9.846c-.088,1.275-.088,2.637-.088,4.659v1.714l.088,14.989c0,1.1-.22,1.275-1.761,1.275a28.757,28.757,0,0,1-5.107-.615,7.731,7.731,0,0,1,.616,2.505,39.9,39.9,0,0,0,4.887.308c2.729,0,3.7-.791,3.7-3.077l-.264-23.692h2.289a26.164,26.164,0,0,1,3.918.264v-2.549a26.376,26.376,0,0,1-4.05.264H173.19l-.044-5.319v-.264a23.283,23.283,0,0,1,.264-3.648h-2.774a16.994,16.994,0,0,1,.264,3.912l.044,5.319H161.7a40.334,40.334,0,0,1-4.226-.22v2.462a41.68,41.68,0,0,1,4.226-.22ZM151.882-7.817c1.8,0,2.818.044,3.918.132-.088-.923-.132-2.154-.132-3.956V-30.454c0-1.8.044-3.209.132-4.176-.881.088-2.157.132-3.918.132h-5.151c-1.189,0-2.333-.044-3.874-.132.132,1.407.176,2.813.176,4.176v18.637c0,1.758-.044,3.3-.132,4.132,1.057-.088,2.2-.132,3.786-.132Zm-6.692-24.747h8.365v6.11h-8.365Zm0,7.956h8.365v6.2h-8.365Zm0,8.044h8.365v6.857h-8.365Zm.352,10.418a20.866,20.866,0,0,1-5.635,7.78,8.822,8.822,0,0,1,1.849,1.538A29.821,29.821,0,0,0,147.48-5Zm5.547,1.055a42.952,42.952,0,0,0,4.843,7.385A7.9,7.9,0,0,1,157.694.71,33.008,33.008,0,0,1,152.807-6.1Zm73.785-27.033a27.686,27.686,0,0,1-4.27.22H209.466c.484-.923.792-1.626,1.321-2.813a12.064,12.064,0,0,1,.66-1.451l-2.2-.659a20.851,20.851,0,0,1-2.421,5.67,23.347,23.347,0,0,1-5.151,6.066,6.228,6.228,0,0,1,1.585,1.363,28.017,28.017,0,0,0,3.962-4.484,23.519,23.519,0,0,0,5.239,6.2A31.973,31.973,0,0,1,202.642-17a5.2,5.2,0,0,1,1.233,1.89c4.843-1.978,7.792-3.56,10.214-5.626a35.491,35.491,0,0,0,10.742,5.319,6.564,6.564,0,0,1,1.057-2.154,32.431,32.431,0,0,1-10.3-4.484,22.735,22.735,0,0,0,5.327-7.956,32.1,32.1,0,0,1,3.962.176Zm-16.465,2.11h10.214a18.043,18.043,0,0,1-4.667,6.725,21.668,21.668,0,0,1-5.635-6.637Zm-14.352,9.363c-2.289,6.505-5.239,11.165-9.333,14.857A6.786,6.786,0,0,1,186.4-4.081,36.98,36.98,0,0,0,194.454-17l.088,16.659c0,.7-.352.967-1.321.967a30.676,30.676,0,0,1-4.8-.44,5.53,5.53,0,0,1,.528,2.154c1.981.176,3.17.264,4.535.264,2.289,0,3.17-.747,3.17-2.637l-.22-20.615h4.8a20.871,20.871,0,0,1-2.818,5.8,6.32,6.32,0,0,1,1.8.923,29.956,29.956,0,0,0,2.95-6.242,12,12,0,0,1,.616-1.363l-.969-1.187a27.885,27.885,0,0,1-3.17.132h-3.17l1.233-1.143c-.66-.747-.88-1.055-1.321-1.538a36.194,36.194,0,0,0,4.711-5.055,22.255,22.255,0,0,1,2.333-2.945L202.2-34.674a15.356,15.356,0,0,1-2.069.132h-9.421a24.193,24.193,0,0,1-4.138-.22v2.418a21.482,21.482,0,0,1,4.006-.264h9.773a29.8,29.8,0,0,1-5.239,6.022,46.016,46.016,0,0,0-4.358-3.868L189.3-29.224a34.46,34.46,0,0,1,6.736,6.637h-6.428a23.341,23.341,0,0,1-4.05-.22v2.418a20.715,20.715,0,0,1,3.918-.264Zm18.534,8.527a25.331,25.331,0,0,0,.484-2.857c.132-.791.264-1.626.4-2.2l-2.641-.132a8.38,8.38,0,0,1,.088.879,17.215,17.215,0,0,1-.484,4.308h-5.371a25.018,25.018,0,0,1-4.27-.22v2.418a25.385,25.385,0,0,1,4.226-.22h4.975C208.277-4.608,205.02-1.487,198.5.93a5.462,5.462,0,0,1,1.409,1.89c6.824-2.945,10.3-6.637,12.195-12.967h8.629a58.76,58.76,0,0,1-.748,6.154c-.7,3.429-1.145,4.132-2.73,4.132A21.925,21.925,0,0,1,211.887-.7a7.878,7.878,0,0,1,.4,2.374,29.575,29.575,0,0,0,5.239.527c1.629,0,2.509-.4,3.17-1.407.836-1.231,1.629-4.791,2.069-9.275.264-2.9.264-2.9.4-3.824a23.417,23.417,0,0,1-3.61.176ZM249.352-30.5v3.56h-9.685a26.946,26.946,0,0,1-3.61-.176,23.36,23.36,0,0,1,.176,3.033V-15.9a22.692,22.692,0,0,1-.176,2.989,29.592,29.592,0,0,1,3.61-.176h18.974v3.341H236.365a28.537,28.537,0,0,1-4.314-.264v2.462a30.644,30.644,0,0,1,4.314-.264h22.276v7.3c0,.879-.308,1.055-1.893,1.055a41.949,41.949,0,0,1-5.239-.352,5.915,5.915,0,0,1,.7,2.33c1.585.088,3.082.132,4.314.132,3.39,0,4.314-.615,4.314-2.9v-7.56h4.931a29.779,29.779,0,0,1,4.314.264v-2.462a28.943,28.943,0,0,1-4.314.264h-4.931v-3.341H262.3a29.889,29.889,0,0,1,3.654.176,21.411,21.411,0,0,1-.176-2.989v-8.176a22.06,22.06,0,0,1,.176-3.033,27.369,27.369,0,0,1-3.61.176H251.465V-30.5h14.264a30.208,30.208,0,0,1,4.314.264V-32.7a28.945,28.945,0,0,1-4.314.264H251.465v-.527a22.875,22.875,0,0,1,.264-3.736h-2.641a16.17,16.17,0,0,1,.264,3.736v.527H236.365a28.538,28.538,0,0,1-4.314-.264v2.462a29.779,29.779,0,0,1,4.314-.264Zm0,5.407v3.868H238.434v-3.868Zm2.113,0h12.107v3.868H251.465Zm-2.113,5.67v4.484H238.434v-4.484Zm2.113,0h12.107v4.484H251.465ZM248.692-1.136a46.844,46.844,0,0,0-6.6-5.451l-1.673,1.319a37.459,37.459,0,0,1,6.6,5.714Zm33.194-19.516h8.1c1.893,0,3.566.044,4.578.132-.088-1.143-.132-2.242-.132-4.088v-6.374c0-1.846.044-2.989.132-4.22a39.67,39.67,0,0,1-4.49.176h-6.031a41.947,41.947,0,0,1-4.579-.176c.132,1.407.176,2.681.176,4.835V-1.883a31.987,31.987,0,0,1-.264,4.791h2.774a29.659,29.659,0,0,1-.264-4.791Zm0-12.527H292.32v4.22H281.886Zm0,6.022H292.32V-22.5H281.886Zm32.27-3.253a40.3,40.3,0,0,1,.22-4.791,42.332,42.332,0,0,1-4.623.176h-6.56a40.549,40.549,0,0,1-4.535-.176c.088,1.319.132,2.637.132,4.22v6.374c0,1.626-.044,2.769-.132,4.088,1.013-.088,2.6-.132,4.623-.132h8.629V-1.136c0,1.011-.352,1.187-2.2,1.187a40.75,40.75,0,0,1-5.767-.484,7.278,7.278,0,0,1,.7,2.462c1.981.088,4.05.176,5.591.176,3.038,0,3.918-.791,3.918-3.56ZM300.9-33.18h11.006v4.22H300.9Zm0,6.022h11.006V-22.5H300.9Z" transform="translate(1051.624 211.828)" fill="#fff"/>
  </g>
</svg>
