<svg xmlns="http://www.w3.org/2000/svg" width="106" height="18" viewBox="0 0 106 18">
  <path id="achievements" d="M-52.573-6.59l1.376-9.591,1.565,9.591Zm3.886,5.83h1.862l-2.887-16.71h-2.941L-55.272-.76h1.862L-52.789-5h3.4Zm10.632-9.161v-1.746a1.873,1.873,0,0,0-2.132-2.122H-42.67A1.873,1.873,0,0,0-44.8-11.667v8.785A1.873,1.873,0,0,0-42.67-.76h2.483a1.873,1.873,0,0,0,2.132-2.122V-4.629h-1.862v1.451c0,.7-.135.833-.837.833H-42.1c-.7,0-.837-.134-.837-.833v-8.194c0-.7.135-.833.837-.833h1.349c.7,0,.837.134.837.833v1.451Zm6.045-3.869a1.371,1.371,0,0,0-1.484.887v-5.83h-1.862V-.76h1.862V-11.238c0-.725.27-.967.918-.967H-31.5c.7,0,.837.134.837.833V-.76H-28.8V-11.667a1.873,1.873,0,0,0-2.132-2.122ZM-23.969-.76V-13.79h-1.862V-.76Zm-1.916-15.824h1.97V-18.76h-1.97Zm6.746,8.355v-3.143c0-.7.135-.833.837-.833h1.349c.7,0,.837.134.837.833v3.143Zm.27-5.561A1.873,1.873,0,0,0-21-11.667v8.785A1.873,1.873,0,0,0-18.868-.76h2.4a1.873,1.873,0,0,0,2.132-2.122V-4.36H-16.2v1.182c0,.7-.135.833-.837.833H-18.3c-.7,0-.837-.134-.837-.833V-6.644h4.884v-5.024a1.873,1.873,0,0,0-2.132-2.122Zm8.1,0h-1.862L-10.476-.76h2.941l2.159-13.03H-7.237L-9.018-2.05Zm9.148,5.561v-3.143c0-.7.135-.833.837-.833H.561c.7,0,.837.134.837.833v3.143Zm.27-5.561a1.873,1.873,0,0,0-2.132,2.122v8.785A1.873,1.873,0,0,0-1.354-.76h2.4A1.873,1.873,0,0,0,3.179-2.882V-4.36H1.317v1.182c0,.7-.135.833-.837.833H-.788c-.7,0-.837-.134-.837-.833V-6.644H3.26v-5.024A1.873,1.873,0,0,0,1.128-13.79ZM14-13.79c-.837,0-1.457.3-1.646,1.075a1.875,1.875,0,0,0-1.97-1.075H9.3a1.371,1.371,0,0,0-1.484.887v-.887H5.959V-.76H7.821V-11.238c0-.725.27-.967.918-.967H9.818c.7,0,.837.134.837.833V-.76h1.862V-11.238c0-.725.27-.967.918-.967h1.079c.7,0,.837.134.837.833V-.76h1.862V-11.667A1.873,1.873,0,0,0,15.08-13.79Zm7.907,5.561v-3.143c0-.7.135-.833.837-.833h1.349c.7,0,.837.134.837.833v3.143Zm.27-5.561a1.873,1.873,0,0,0-2.132,2.122v8.785A1.873,1.873,0,0,0,22.177-.76h2.4a1.873,1.873,0,0,0,2.132-2.122V-4.36H24.849v1.182c0,.7-.135.833-.837.833H22.744c-.7,0-.837-.134-.837-.833V-6.644h4.884v-5.024A1.873,1.873,0,0,0,24.66-13.79Zm10.659,0a1.371,1.371,0,0,0-1.484.887v-.887H29.49V-.76h1.862V-11.238c0-.725.27-.967.918-.967h1.079c.7,0,.837.134.837.833V-.76h1.862V-11.667a1.873,1.873,0,0,0-2.132-2.122ZM42.848-12.2V-13.79H40.986v-2.122H39.124v2.122H37.937V-12.2h1.187v9.322A1.873,1.873,0,0,0,41.256-.76h1.592V-2.479H41.823c-.7,0-.837-.134-.837-.833V-12.2Zm6.045,9.054c0,.7-.135.833-.837.833h-.729c-.7,0-.837-.134-.837-.833V-4.2H44.656v1.316A1.873,1.873,0,0,0,46.788-.76H48.6a1.873,1.873,0,0,0,2.132-2.122V-5.891A1.873,1.873,0,0,0,48.6-8.014H47.274c-.7,0-.837-.134-.837-.833V-11.4c0-.7.135-.833.837-.833h.756c.7,0,.837.134.837.833v1.048H50.7v-1.316a1.873,1.873,0,0,0-2.132-2.122H46.734A1.873,1.873,0,0,0,44.6-11.667v3.09a1.873,1.873,0,0,0,2.132,2.122h1.322c.7,0,.837.134.837.833Z" transform="translate(55.272 18.76)" fill="#9b1613"/>
</svg>
