<svg xmlns="http://www.w3.org/2000/svg" width="70" height="18" viewBox="0 0 70 18">
  <path id="interview" d="M-36.05-17.47V-.76h1.806V-17.47ZM-27.5-13.79a1.348,1.348,0,0,0-1.461.887v-.887H-30.79V-.76h1.833V-11.238c0-.725.266-.967.9-.967h1.063c.691,0,.824.134.824.833V-.76h1.833V-11.667a1.859,1.859,0,0,0-2.1-2.122ZM-17.64-12.2V-13.79h-1.833v-2.122h-1.833v2.122h-1.169V-12.2h1.169v9.322a1.859,1.859,0,0,0,2.1,2.122h1.567V-2.479H-18.65c-.691,0-.824-.134-.824-.833V-12.2Zm3.825,3.976v-3.143c0-.7.133-.833.824-.833h1.328c.691,0,.824.134.824.833v3.143Zm.266-5.561a1.859,1.859,0,0,0-2.1,2.122v8.785a1.859,1.859,0,0,0,2.1,2.122h2.364a1.859,1.859,0,0,0,2.1-2.122V-4.36h-1.833v1.182c0,.7-.133.833-.824.833h-1.249c-.691,0-.824-.134-.824-.833V-6.644h4.808v-5.024a1.859,1.859,0,0,0-2.1-2.122Zm10.945,0a2.021,2.021,0,0,0-1.913,1.5v-1.5H-6.35V-.76h1.833v-9.4c0-1.37.5-2.015,1.674-2.015h.8V-13.79Zm3.188,0H-1.249L.876-.76h2.9L5.9-13.79H4.064L2.311-2.05ZM9.589-.76V-13.79H7.756V-.76ZM7.7-16.584H9.643V-18.76H7.7Zm6.641,8.355v-3.143c0-.7.133-.833.824-.833H16.5c.691,0,.824.134.824.833v3.143Zm.266-5.561a1.859,1.859,0,0,0-2.1,2.122v8.785A1.859,1.859,0,0,0,14.61-.76h2.364a1.859,1.859,0,0,0,2.1-2.122V-4.36H17.24v1.182c0,.7-.133.833-.824.833H15.168c-.691,0-.824-.134-.824-.833V-6.644h4.808v-5.024a1.859,1.859,0,0,0-2.1-2.122Zm17.586,0L30.257-2.05,28.61-13.79H26.087L24.413-2.05,22.5-13.79H20.747L23.032-.76h2.789l1.514-10.451L28.876-.76h2.789L33.95-13.79Z" transform="translate(36.05 18.76)" fill="#c3a45f"/>
</svg>
