<svg xmlns="http://www.w3.org/2000/svg" width="50" height="18" viewBox="0 0 50 18">
  <path id="search" d="M-21.491-3.154c0,.7-.134.834-.829.834h-1.2c-.7,0-.829-.135-.829-.834V-5.441H-26.2v2.583A1.866,1.866,0,0,0-24.084-.732h2.326a1.866,1.866,0,0,0,2.112-2.126V-8.023a1.866,1.866,0,0,0-2.112-2.126h-1.818c-.7,0-.829-.135-.829-.834v-4.063c0-.7.134-.834.829-.834h1.23c.7,0,.829.135.829.834v2.287h1.845v-2.583a1.866,1.866,0,0,0-2.112-2.126h-2.353a1.866,1.866,0,0,0-2.112,2.126v4.655a1.866,1.866,0,0,0,2.112,2.126h1.818c.7,0,.829.135.829.834Zm6.5-5.058V-11.36c0-.7.134-.834.829-.834h1.337c.7,0,.829.135.829.834v3.148Zm.267-5.57a1.866,1.866,0,0,0-2.112,2.126v8.8A1.866,1.866,0,0,0-14.726-.732h2.38a1.866,1.866,0,0,0,2.112-2.126v-1.48h-1.845v1.184c0,.7-.134.834-.829.834h-1.257c-.7,0-.829-.135-.829-.834V-6.624h4.84v-5.031a1.866,1.866,0,0,0-2.112-2.126ZM-4.94-2.319c-.7,0-.829-.135-.829-.834V-11.36c0-.7.134-.834.829-.834h1.07c.642,0,.909.242.909.969v7.937c0,.726-.267.969-.909.969Zm1.979-11.462v.888a1.357,1.357,0,0,0-1.471-.888H-5.5a1.866,1.866,0,0,0-2.112,2.126v8.8A1.866,1.866,0,0,0-5.5-.732h1.07A1.357,1.357,0,0,0-2.961-1.62v.888h1.845V-13.781Zm8.556,0A2.032,2.032,0,0,0,3.67-12.275v-1.507H1.825V-.732H3.67v-9.417c0-1.372.508-2.018,1.684-2.018h.8v-1.614Zm8.984,3.874v-1.749a1.866,1.866,0,0,0-2.112-2.126h-2.46a1.866,1.866,0,0,0-2.112,2.126v8.8A1.866,1.866,0,0,0,10.007-.732h2.46a1.866,1.866,0,0,0,2.112-2.126V-4.606H12.734v1.453c0,.7-.134.834-.829.834H10.568c-.7,0-.829-.135-.829-.834V-11.36c0-.7.134-.834.829-.834h1.337c.7,0,.829.135.829.834v1.453Zm5.989-3.874a1.357,1.357,0,0,0-1.471.888v-5.839H17.253v18H19.1V-11.225c0-.726.267-.969.909-.969h1.07c.7,0,.829.135.829.834V-.732H23.75V-11.656a1.866,1.866,0,0,0-2.112-2.126Z" transform="translate(26.25 18.732)" fill="#9b1613"/>
</svg>
