<svg xmlns="http://www.w3.org/2000/svg" width="74" height="22" viewBox="0 0 74 22">
  <path id="company" d="M-27.655-12.111v-3.028a2.014,2.014,0,0,0-2.3-2.278h-2.82a2.014,2.014,0,0,0-2.3,2.278V-1.731a2.014,2.014,0,0,0,2.3,2.278h2.82a2.014,2.014,0,0,0,2.3-2.278V-4.758h-2.006v2.71c0,.75-.145.894-.9.894h-1.6c-.756,0-.9-.144-.9-.894V-14.821c0-.75.145-.894.9-.894h1.6c.756,0,.9.144.9.894v2.71Zm8.49,10.034c0,.75-.145.894-.9.894h-1.8c-.756,0-.9-.144-.9-.894v-8.794c0-.75.145-.894.9-.894h1.8c.756,0,.9.144.9.894Zm-3.286-11.389a2.014,2.014,0,0,0-2.3,2.278v9.429a2.014,2.014,0,0,0,2.3,2.278h2.966a2.014,2.014,0,0,0,2.3-2.278v-9.429a2.014,2.014,0,0,0-2.3-2.278Zm16.981,0c-.9,0-1.57.317-1.774,1.153a2.021,2.021,0,0,0-2.123-1.153h-1.163a1.478,1.478,0,0,0-1.6.952v-.952h-2.006V.518h2.006V-10.727c0-.779.291-1.038.989-1.038h1.163c.756,0,.9.144.9.894V.518h2.006V-10.727c0-.779.291-1.038.989-1.038h1.163c.756,0,.9.144.9.894V.518H-2.01V-11.188a2.014,2.014,0,0,0-2.3-2.278ZM6.1-2.077c0,.75-.145.894-.9.894H4.038c-.7,0-.989-.26-.989-1.038v-8.506c0-.779.291-1.038.989-1.038H5.2c.756,0,.9.144.9.894ZM4.649-13.466a1.478,1.478,0,0,0-1.6.952v-.952H1.043V4.584H3.049V-.433a1.478,1.478,0,0,0,1.6.952H5.812a2.014,2.014,0,0,0,2.3-2.278v-9.429a2.014,2.014,0,0,0-2.3-2.278ZM13.924-1.183c-.756,0-.9-.144-.9-.894v-8.794c0-.75.145-.894.9-.894h1.163c.7,0,.989.26.989,1.038v8.506c0,.779-.291,1.038-.989,1.038Zm2.152-12.283v.952a1.478,1.478,0,0,0-1.6-.952H13.313a2.014,2.014,0,0,0-2.3,2.278v9.429a2.014,2.014,0,0,0,2.3,2.278h1.163a1.478,1.478,0,0,0,1.6-.952V.518h2.006V-13.466Zm8.81,0a1.478,1.478,0,0,0-1.6.952v-.952H21.28V.518h2.006V-10.727c0-.779.291-1.038.989-1.038h1.163c.756,0,.9.144.9.894V.518h2.006V-11.188a2.014,2.014,0,0,0-2.3-2.278Zm5.641,0L33.231.518h1.308l-.349,1.471c-.174.721-.7.894-1.454.894h-.96v1.7h1.57A2.555,2.555,0,0,0,36.11,2.306l2.82-15.772H36.924L34.8-.866l-2.268-12.6Z" transform="translate(35.07 17.416)" fill="#9b1613"/>
</svg>
