<svg xmlns="http://www.w3.org/2000/svg" width="42" height="18" viewBox="0 0 42 18">
  <path id="movie" d="M-15.895-4.387l2.323-9.027V-.76H-12V-17.47h-2L-16.882-6.724-19.739-17.47h-2V-.76h1.575V-13.414l2.323,9.027ZM-3.8-3.178c0,.7-.134.833-.828.833H-6.282c-.694,0-.828-.134-.828-.833v-8.194c0-.7.134-.833.828-.833h1.655c.694,0,.828.134.828.833ZM-6.816-13.79a1.863,1.863,0,0,0-2.109,2.122v8.785A1.863,1.863,0,0,0-6.816-.76h2.723A1.863,1.863,0,0,0-1.984-2.882v-8.785A1.863,1.863,0,0,0-4.093-13.79Zm8.411,0H-.248L1.888-.76H4.8L6.934-13.79H5.092L3.33-2.05ZM10.646-.76V-13.79H8.8V-.76ZM8.75-16.584H10.7V-18.76H8.75Zm6.675,8.355v-3.143c0-.7.134-.833.828-.833h1.335c.694,0,.828.134.828.833v3.143Zm.267-5.561a1.863,1.863,0,0,0-2.109,2.122v8.785A1.863,1.863,0,0,0,15.692-.76h2.376a1.863,1.863,0,0,0,2.109-2.122V-4.36H18.336v1.182c0,.7-.134.833-.828.833H16.253c-.694,0-.828-.134-.828-.833V-6.644h4.833v-5.024a1.863,1.863,0,0,0-2.109-2.122Z" transform="translate(21.742 18.76)" fill="#9b1613"/>
</svg>
