<svg xmlns="http://www.w3.org/2000/svg" xmlns:xlink="http://www.w3.org/1999/xlink" width="56" height="56" viewBox="0 0 56 56">
  <defs>
    <clipPath id="clip-path">
      <rect id="長方形_9137" data-name="長方形 9137" width="56" height="56" transform="translate(-4 -4)" fill="none"/>
    </clipPath>
  </defs>
  <g id="icon01" transform="translate(4 4)">
    <g id="グループ_706" data-name="グループ 706" transform="translate(0 0)" clip-path="url(#clip-path)">
      <path id="パス_5932" data-name="パス 5932" d="M44.422,6.168a.6.6,0,0,0-.8-.266c-3.867,1.927-6.812,1.953-9,.081a10.621,10.621,0,0,0-7.668-2.765,6.275,6.275,0,0,0-4.124,2.1V2.84a1.483,1.483,0,1,0-1.186,0V5.322a6.275,6.275,0,0,0-4.123-2.1A10.627,10.627,0,0,0,9.857,5.982C7.669,7.855,4.725,7.828.858,5.9A.593.593,0,0,0,.329,6.964,13.077,13.077,0,0,0,6.062,8.543c.106,0,.208-.008.311-.012L.421,23.639v0l-.005.012a.617.617,0,0,0-.018.1.569.569,0,0,0-.023.114v.02c.014,2.826,2.952,5.12,6.563,5.12s6.55-2.295,6.564-5.12v-.02a.614.614,0,0,0-.023-.114.564.564,0,0,0-.019-.1l0-.012v0L7.49,8.5a.618.618,0,0,0-.047-.081,6.709,6.709,0,0,0,3.186-1.532A9.4,9.4,0,0,1,17.4,4.4a5.075,5.075,0,0,1,3.622,2.021.593.593,0,0,0,.47.231h.154V41.518H14.23a.593.593,0,1,0,0,1.186H30.253a.593.593,0,1,0,0-1.186H22.835V6.649h.154a.6.6,0,0,0,.47-.231A5.076,5.076,0,0,1,27.08,4.4a9.41,9.41,0,0,1,6.775,2.486A6.715,6.715,0,0,0,37.04,8.416a.566.566,0,0,0-.047.08L31.021,23.654a.563.563,0,0,0-.02.112.558.558,0,0,0-.021.1v.021c.015,2.825,2.953,5.12,6.564,5.12s6.549-2.295,6.564-5.12v-.021a.529.529,0,0,0-.021-.106.557.557,0,0,0-.02-.112l-.005-.014L38.11,8.53a12.681,12.681,0,0,0,6.045-1.566.594.594,0,0,0,.266-.8M6.938,27.825c-2.692,0-4.928-1.461-5.318-3.361H12.257c-.391,1.9-2.627,3.361-5.319,3.361m5.1-4.547H1.837l5.1-12.946ZM37.545,10.331l5.1,12.946h-10.2Zm0,17.494c-2.692,0-4.929-1.461-5.319-3.361H42.864c-.391,1.9-2.627,3.361-5.319,3.361" transform="translate(2 3)" fill="#fff"/>
    </g>
  </g>
</svg>
