<svg xmlns="http://www.w3.org/2000/svg" xmlns:xlink="http://www.w3.org/1999/xlink" width="56" height="56" viewBox="0 0 56 56">
  <defs>
    <clipPath id="clip-path">
      <rect id="長方形_9137" data-name="長方形 9137" width="56" height="56" transform="translate(-4 -4)" fill="none"/>
    </clipPath>
    <clipPath id="clip-path-2">
      <rect id="長方形_9660" data-name="長方形 9660" width="43.104" height="56" fill="none"/>
    </clipPath>
  </defs>
  <g id="icon06" transform="translate(4 4)">
    <g id="グループ_706" data-name="グループ 706" transform="translate(0 0)" clip-path="url(#clip-path)">
      <g id="グループ_25384" data-name="グループ 25384" transform="translate(2.384 -4)">
        <g id="グループ_25383" data-name="グループ 25383" clip-path="url(#clip-path-2)">
          <path id="パス_141298" data-name="パス 141298" d="M67.437,42.2a.758.758,0,1,0,1.264-.835l-2.2-3.5a.757.757,0,0,0-1.263.836Z" transform="translate(-55.867 -32.203)" fill="#fff"/>
          <path id="パス_141299" data-name="パス 141299" d="M142.014,7.781a.758.758,0,0,0,1.169-.628l.052-6.388a.758.758,0,0,0-1.516-.017l-.052,6.387a.76.76,0,0,0,.346.645" transform="translate(-121.561 0)" fill="#fff"/>
          <path id="パス_141300" data-name="パス 141300" d="M203.566,46.816a.749.749,0,0,0,.407.109.758.758,0,0,0,.633-.364l2.123-3.515a.758.758,0,0,0-1.3-.785l-2.122,3.514a.757.757,0,0,0,.255,1.04" transform="translate(-174.36 -35.95)" fill="#fff"/>
          <path id="パス_141301" data-name="パス 141301" d="M261.06,73.26A.758.758,0,0,0,260,73.124l-5.511,4.305a.757.757,0,0,0-.136,1.062.749.749,0,0,0,.34.248.757.757,0,0,0,.722-.112l5.512-4.305a.758.758,0,0,0,.136-1.062" transform="translate(-218.115 -62.61)" fill="#fff"/>
          <path id="パス_141302" data-name="パス 141302" d="M1.221,73.124A.757.757,0,0,0,.5,73.012a.749.749,0,0,0-.34.248.757.757,0,0,0,.136,1.062l4.931,3.865a.758.758,0,0,0,.927-1.2Z" transform="translate(0 -62.61)" fill="#fff"/>
          <path id="パス_141303" data-name="パス 141303" d="M64.027,134.443a.546.546,0,0,1-.532-.431,11.5,11.5,0,0,0-1.405-3.585,17.163,17.163,0,0,0-1.916-2.437c-.194-.218-.376-.422-.555-.629a17.393,17.393,0,0,1-4.234-7.641,13.787,13.787,0,0,1,.943-8.383,13.312,13.312,0,0,1,11.365-8.166c.244-.016.493-.023.739-.023a13.146,13.146,0,0,1,7.168,2.2,13.648,13.648,0,0,1,4.55,5.084,14.631,14.631,0,0,1,1.631,6.912,14.289,14.289,0,0,1-2.994,8.169,32.247,32.247,0,0,1-2.13,2.538l-.612.684a11.159,11.159,0,0,0-2.125,3.423,12.24,12.24,0,0,0-.541,1.839.547.547,0,0,1-.532.431.568.568,0,0,1-.116-.012.542.542,0,0,1-.343-.237.536.536,0,0,1-.075-.409,13.245,13.245,0,0,1,.588-2,12.248,12.248,0,0,1,2.327-3.755l.6-.67a31.8,31.8,0,0,0,2.079-2.472,13.225,13.225,0,0,0,2.784-7.54,13.556,13.556,0,0,0-1.509-6.395A12.562,12.562,0,0,0,75,106.255a12.055,12.055,0,0,0-6.568-2.016c-.223,0-.448.008-.668.021a12.221,12.221,0,0,0-10.431,7.505,12.715,12.715,0,0,0-.88,7.721,16.362,16.362,0,0,0,3.993,7.161c.154.178.532.606.532.606a18.178,18.178,0,0,1,2.046,2.61,12.563,12.563,0,0,1,1.539,3.922.544.544,0,0,1-.419.647.523.523,0,0,1-.114.012" transform="translate(-47.28 -88.509)" fill="#fff"/>
          <path id="パス_141304" data-name="パス 141304" d="M112.526,350.425l.019.04.044.006.132.02a1.529,1.529,0,0,0,.244.026h0q4.671-.009,9.342-.023c.282,0,.461-.009.564-.117s.1-.277.1-.547c-.008-.425-.124-.536-.56-.536h0q-4.546.007-9.1.018a4.183,4.183,0,0,0-.543.025.356.356,0,0,0-.351.421,1.552,1.552,0,0,1,0,.192,1.582,1.582,0,0,0,.006.229.513.513,0,0,0,.074.186c.011.02.023.041.033.061" transform="translate(-96.453 -299.719)" fill="#fff"/>
          <path id="パス_141305" data-name="パス 141305" d="M122.928,333.53a1.4,1.4,0,0,0-.33-.037q-3.949.006-7.9.016l-.718,0c-.079,0-.161,0-.241,0a5.157,5.157,0,0,0-.629.015c-.114.012-.42.112-.435.266,0,.047-.011.1-.019.144a.818.818,0,0,0,.1.659.2.2,0,0,0,.065.051l.046.028.036.012.094.01a2.453,2.453,0,0,0,.28.021h0q3.168,0,6.335-.012l1.923,0c.377,0,.754,0,1.13,0a.575.575,0,0,0,.438-.124.547.547,0,0,0,.108-.413V334.1a1.79,1.79,0,0,1,0-.2.324.324,0,0,0-.286-.372" transform="translate(-96.646 -286.16)" fill="#fff"/>
          <path id="パス_141306" data-name="パス 141306" d="M122.491,364.747h0l-8.908.022a.8.8,0,0,0-.683.384.815.815,0,0,0-.035.8,5.7,5.7,0,0,0,5.118,3.029h.04a5.655,5.655,0,0,0,5.2-3.063.817.817,0,0,0-.047-.793.8.8,0,0,0-.679-.375m-4.476,3.121a4.673,4.673,0,0,1-3.912-1.99l7.877-.019a4.656,4.656,0,0,1-3.965,2.009" transform="translate(-96.77 -312.978)" fill="#fff"/>
          <path id="パス_141307" data-name="パス 141307" d="M170.624,137.36a.635.635,0,0,0,1.124-.59,6.932,6.932,0,0,0-4.625-3.552.635.635,0,1,0-.277,1.238,5.668,5.668,0,0,1,3.779,2.9" transform="translate(-142.739 -114.297)" fill="#fff"/>
        </g>
      </g>
    </g>
  </g>
</svg>
