<svg xmlns="http://www.w3.org/2000/svg" xmlns:xlink="http://www.w3.org/1999/xlink" width="56" height="56" viewBox="0 0 56 56">
  <defs>
    <clipPath id="clip-path">
      <rect id="長方形_9137" data-name="長方形 9137" width="56" height="56" transform="translate(-4 -4)" fill="none"/>
    </clipPath>
    <clipPath id="clip-path-2">
      <rect id="長方形_9659" data-name="長方形 9659" width="54.899" height="56" fill="none"/>
    </clipPath>
  </defs>
  <g id="icon03" transform="translate(4 4)">
    <g id="グループ_706" data-name="グループ 706" transform="translate(0 0)" clip-path="url(#clip-path)">
      <g id="グループ_25382" data-name="グループ 25382" transform="translate(-3.449 -4)">
        <g id="グループ_25381" data-name="グループ 25381" clip-path="url(#clip-path-2)">
          <path id="パス_141294" data-name="パス 141294" d="M6.765,226.644a.361.361,0,0,1-.181-.673c6.316-3.658,11.422-6.609,13.166-7.616l.328-.189-7.592-12.654-.324.211c-1.215.792-4.669,3-10.484,6.433a.361.361,0,0,1-.367-.621c7.541-4.448,11.054-6.809,11.088-6.832a.361.361,0,0,1,.51.114l7.773,12.955,2.5-1.476-6.556-10.457-1.161.744a.355.355,0,0,1-.186.052.361.361,0,0,1-.191-.667l.84-.523a1.036,1.036,0,0,1,.586-.178,1.134,1.134,0,0,1,.232.024,1.071,1.071,0,0,1,.69.484l.369.59.313-.185a20.364,20.364,0,0,1,4.319-2.147,16.632,16.632,0,0,1,3.792-.525,10.611,10.611,0,0,1,1.212.069c.787.089,1.647.217,2.478.341l.022,0c1.019.152,1.981.3,2.729.357.17.014.415.021.751.021,1.109,0,3.014-.078,4.545-.14,1.461-.059,2.382-.1,2.873-.1.113,0,.2,0,.266.006,2.462.161,3.4,1.266,3.753,2.165a.348.348,0,0,1-.26.482l-.164.036-.134-.106a.354.354,0,0,1-.113-.148c-.4-1.024-1.455-1.6-3.128-1.708-.048,0-.122-.005-.217-.005-.508,0-1.683.048-2.819.095H38c-1.619.066-3.438.14-4.568.14-.361,0-.636-.008-.817-.022-.775-.064-1.747-.209-2.776-.363-.841-.125-1.7-.253-2.475-.341a9.832,9.832,0,0,0-1.119-.062,16.257,16.257,0,0,0-3.641.5,19.589,19.589,0,0,0-4.085,2.047l-.328.194,4.08,6.524.263-.067a.356.356,0,0,1,.068-.011c.339-.02.675-.03,1-.03a12.818,12.818,0,0,1,2.268.188,60.865,60.865,0,0,0,9.188,1,10.354,10.354,0,0,0,1.628-.1,67.557,67.557,0,0,0,12.644-4.2,39.53,39.53,0,0,0,5.559-6.027l.031-.053.013-.061a1.132,1.132,0,0,0-.461-1.232,1.051,1.051,0,0,0-.548-.141,2.767,2.767,0,0,0-1.793.9c-.251.231-.5.462-.741.69l-.049.046a12.664,12.664,0,0,1-3.958,2.91,3.453,3.453,0,0,1-.981.2h-.029a.361.361,0,0,1-.263-.6.358.358,0,0,1,.248-.121,2.715,2.715,0,0,0,.78-.16,12.2,12.2,0,0,0,3.708-2.756l.076-.071c.237-.222.476-.447.721-.671a3.6,3.6,0,0,1,2.3-1.093,1.726,1.726,0,0,1,.9.244,1.865,1.865,0,0,1,.77,2.107c-.19.685-4.611,5.665-5.892,6.491A66.8,66.8,0,0,1,36.8,215.192a11.1,11.1,0,0,1-1.74.111,62.706,62.706,0,0,1-9.323-1.013,12.065,12.065,0,0,0-2.126-.173l-.291,0-.657.012.923,1.476a1.081,1.081,0,0,1-.368,1.5L21.3,218.245a.357.357,0,0,1-.137.041l-.184.024-.092.161a.365.365,0,0,1-.131.136l.084-.023c-.208.094-.919.5-4.05,2.315-2.473,1.43-5.926,3.427-9.844,5.7a.361.361,0,0,1-.18.049m24.6-15.954a.388.388,0,0,1-.067-.007.361.361,0,0,1-.082-.686l.119-.059a19.2,19.2,0,0,1,3.866-1.595,31.18,31.18,0,0,1,3.677-.151l.107,0c.315,0,.58-.009.758-.013a23.386,23.386,0,0,0,2.779-.281c1.017-.166,1.311-.354,1.454-.5a.355.355,0,0,1,.179-.1l.164-.036.163.127a.36.36,0,0,1,.009.512,3.39,3.39,0,0,1-1.853.706,24.169,24.169,0,0,1-2.877.29c-.2.005-.508.01-.873.015a33.589,33.589,0,0,0-3.524.132,17.892,17.892,0,0,0-3.7,1.535.692.692,0,0,1-.3.109" transform="translate(-0.959 -170.82)" fill="#fff"/>
          <path id="パス_141295" data-name="パス 141295" d="M5.806,225.862a.536.536,0,0,1-.269-1c6.317-3.658,11.422-6.609,13.166-7.617l.173-.1L11.469,204.8l-.171.111c-1.215.792-4.671,3-10.49,6.437a.536.536,0,0,1-.734-.189.536.536,0,0,1,.189-.734c7.507-4.428,11.045-6.8,11.078-6.826a.543.543,0,0,1,.417-.078.537.537,0,0,1,.342.248l7.683,12.806,2.2-1.3-6.366-10.155-1.012.648a.536.536,0,0,1-.565-.911l.841-.523a1.255,1.255,0,0,1,1.75.386l.278.445.166-.1a20.425,20.425,0,0,1,4.369-2.167,16.787,16.787,0,0,1,3.832-.529,10.787,10.787,0,0,1,1.232.07c.792.089,1.652.218,2.484.341l.022,0c1.018.152,1.977.294,2.718.356.165.014.406.02.737.02,1.1,0,3-.077,4.522-.139,1.833-.074,2.823-.114,3.174-.09,2.554.167,3.533,1.329,3.9,2.275a.536.536,0,0,1-.3.695.449.449,0,0,1-.072.02l-.255.056-.2-.158a.528.528,0,0,1-.168-.222c-.375-.956-1.376-1.493-2.976-1.6-.305-.021-1.683.035-3.017.09h-.027c-1.612.066-3.441.14-4.575.14-.366,0-.646-.008-.832-.023-.782-.064-1.756-.21-2.787-.364-.836-.124-1.7-.252-2.469-.34a9.726,9.726,0,0,0-1.1-.061,16.1,16.1,0,0,0-3.6.5,19.539,19.539,0,0,0-4.036,2.027l-.174.1,3.917,6.264.139-.035a.528.528,0,0,1,.1-.016,14.191,14.191,0,0,1,3.306.161,60.677,60.677,0,0,0,9.157,1,10.186,10.186,0,0,0,1.6-.1,67.229,67.229,0,0,0,12.578-4.175,39.142,39.142,0,0,0,5.5-5.969l.017-.028.006-.032a.961.961,0,0,0-.379-1.047.88.88,0,0,0-.458-.116,2.6,2.6,0,0,0-1.675.857c-.251.23-.5.461-.739.689l-.049.046a12.777,12.777,0,0,1-4.019,2.947,3.624,3.624,0,0,1-1.03.212h-.032a.541.541,0,0,1-.535-.5.536.536,0,0,1,.5-.567,2.551,2.551,0,0,0,.731-.15,12.1,12.1,0,0,0,3.648-2.718l.076-.072c.237-.223.478-.448.723-.673a3.769,3.769,0,0,1,2.416-1.139,1.9,1.9,0,0,1,.993.269,2.038,2.038,0,0,1,.849,2.3c-.226.816-4.743,5.805-5.967,6.594a67.133,67.133,0,0,1-12.984,4.332,11.274,11.274,0,0,1-1.768.114A62.9,62.9,0,0,1,24.75,213.5a12.281,12.281,0,0,0-2.383-.168l-.348.006.759,1.213a1.256,1.256,0,0,1-.427,1.748l-1.922,1.134a.52.52,0,0,1-.2.064l-.1.013-.049.085a.552.552,0,0,1-.136.161l.009.026c-.2.09-.936.515-4.032,2.305-2.475,1.431-5.928,3.428-9.847,5.7a.535.535,0,0,1-.268.072m5.777-21.554,7.778,12.963-.482.278c-1.744,1.007-6.85,3.958-13.166,7.616a.186.186,0,0,0-.068.253.19.19,0,0,0,.254.068c3.918-2.27,7.371-4.267,9.844-5.7,1.324-.766,2.212-1.279,2.814-1.625h0l1.154-.667a.192.192,0,0,0,.066-.071l.135-.237.27-.035a.2.2,0,0,0,.07-.018L22.173,216a.906.906,0,0,0,.308-1.26L21.394,213l.967-.017a12.6,12.6,0,0,1,2.451.173,62.546,62.546,0,0,0,9.292,1.01,10.931,10.931,0,0,0,1.711-.109,66.486,66.486,0,0,0,12.851-4.28,25.449,25.449,0,0,0,3.32-3.268,19.765,19.765,0,0,0,2.5-3.123,1.691,1.691,0,0,0-.691-1.91,1.555,1.555,0,0,0-.813-.219,3.431,3.431,0,0,0-2.179,1.047c-.244.224-.483.448-.719.67l-.076.071a12.308,12.308,0,0,1-3.769,2.793,2.885,2.885,0,0,1-.829.171.185.185,0,0,0-.174.2.187.187,0,0,0,.178.175h.021a3.276,3.276,0,0,0,.929-.191,12.545,12.545,0,0,0,3.9-2.872l.049-.046c.243-.229.49-.46.742-.692a2.931,2.931,0,0,1,1.912-.949,1.224,1.224,0,0,1,.638.166,1.3,1.3,0,0,1,.542,1.418l-.018.089-.046.079a39.9,39.9,0,0,1-5.615,6.086,67.877,67.877,0,0,1-12.711,4.226,10.525,10.525,0,0,1-1.657.107,61.009,61.009,0,0,1-9.219-1.007,13.851,13.851,0,0,0-3.224-.155.192.192,0,0,0-.036.006l-.386.1-4.243-6.785.482-.286a19.659,19.659,0,0,1,4.135-2.067,16.426,16.426,0,0,1,3.681-.509,10.062,10.062,0,0,1,1.138.064c.779.088,1.642.217,2.476.341,1.03.154,2,.3,2.769.362.176.015.446.022.8.022,1.127,0,2.951-.074,4.561-.14h.027c1.137-.047,2.312-.095,2.826-.095.1,0,.178,0,.229.006,1.746.114,2.85.726,3.279,1.819a.182.182,0,0,0,.059.075l.069.055.083-.018.03-.007a.185.185,0,0,0,.1-.24c-.334-.851-1.23-1.9-3.6-2.054-.062,0-.147-.006-.255-.006-.486,0-1.406.036-2.866.1-1.542.063-3.443.14-4.552.14-.34,0-.591-.007-.765-.021-.753-.062-1.717-.206-2.737-.358l-.025,0c-.829-.123-1.686-.251-2.472-.34a10.445,10.445,0,0,0-1.192-.068,16.469,16.469,0,0,0-3.753.52,20.3,20.3,0,0,0-4.27,2.127l-.46.273-.46-.735a.9.9,0,0,0-1.263-.278l-.845.527a.186.186,0,0,0-.059.256.193.193,0,0,0,.251.062l1.308-.838,6.745,10.76-2.807,1.656-7.862-13.1a.188.188,0,0,0-.118-.086.192.192,0,0,0-.144.027c-.033.023-3.58,2.4-11.1,6.837a.183.183,0,0,0-.085.113.185.185,0,0,0,.274.206c5.813-3.429,9.263-5.638,10.477-6.429Zm18.821,5.6a.573.573,0,0,1-.1-.009.536.536,0,0,1-.121-1.02l.111-.055a19.353,19.353,0,0,1,3.9-1.608,30.2,30.2,0,0,1,3.714-.155l.107,0c.314,0,.579-.009.756-.013a23.19,23.19,0,0,0,2.755-.278c.977-.159,1.242-.332,1.357-.449a.528.528,0,0,1,.266-.147l.244-.054.242.19a.535.535,0,0,1,.165.381.529.529,0,0,1-.153.38,3.53,3.53,0,0,1-1.949.756,24.341,24.341,0,0,1-2.9.292c-.2.005-.509.01-.875.015a34.8,34.8,0,0,0-3.488.128,17.743,17.743,0,0,0-3.662,1.521.83.83,0,0,1-.376.128M43.315,206.5l-.083.018a.181.181,0,0,0-.092.05c-.172.175-.49.377-1.55.549a23.553,23.553,0,0,1-2.8.283c-.178,0-.444.009-.76.013l-.107,0a32.235,32.235,0,0,0-3.641.146,19.062,19.062,0,0,0-3.825,1.58l-.12.06a.191.191,0,0,0-.117.142.185.185,0,0,0,.151.215c.057.01.089,0,.255-.086a18.048,18.048,0,0,1,3.743-1.55,32.383,32.383,0,0,1,3.561-.136c.364-.005.672-.01.871-.015a23.938,23.938,0,0,0,2.853-.288,3.257,3.257,0,0,0,1.756-.656.18.18,0,0,0,.052-.13.187.187,0,0,0-.053-.128Z" transform="translate(0 -169.862)" fill="#fff"/>
          <path id="パス_141296" data-name="パス 141296" d="M193.5,56.815v1.629a.25.25,0,0,0,.25.25h3.082a.25.25,0,0,1,.25.25v.586a.25.25,0,0,1-.25.25h-3.082a.25.25,0,0,0-.25.25v3.164a.25.25,0,0,1-.25.25H192.1a.25.25,0,0,1-.25-.25V60.027a.25.25,0,0,0-.25-.25h-3.1a.25.25,0,0,1-.25-.25v-.586a.25.25,0,0,1,.25-.25h3.1a.25.25,0,0,0,.25-.25V56.815a.25.25,0,0,0-.25-.25h-3.1a.25.25,0,0,1-.25-.25V55.73a.25.25,0,0,1,.25-.25h2.466a.25.25,0,0,0,.205-.392L187.1,49.222a.25.25,0,0,1,.205-.392h1.472a.25.25,0,0,1,.212.117l3.522,5.624a.251.251,0,0,0,.424,0c1.189-1.875,2.346-3.749,3.519-5.624a.25.25,0,0,1,.212-.118h1.468a.25.25,0,0,1,.2.393l-4.132,5.863a.25.25,0,0,0,.2.393h2.42a.25.25,0,0,1,.25.25v.585a.25.25,0,0,1-.25.25h-3.082a.25.25,0,0,0-.25.25" transform="translate(-158.151 -41.284)" fill="#fff"/>
          <path id="パス_141297" data-name="パス 141297" d="M145.076,28.535A14.268,14.268,0,1,1,155.723,4.769a.5.5,0,0,1-.746.666,13.22,13.22,0,1,0,2.163,3.3.5.5,0,0,1,.909-.417,14.274,14.274,0,0,1-12.973,20.215" transform="translate(-110.593)" fill="#fff"/>
        </g>
      </g>
    </g>
  </g>
</svg>
