<svg xmlns="http://www.w3.org/2000/svg" xmlns:xlink="http://www.w3.org/1999/xlink" width="56" height="56" viewBox="0 0 56 56">
  <defs>
    <clipPath id="clip-path">
      <rect id="長方形_9137" data-name="長方形 9137" width="56" height="56" transform="translate(-4 -4)" fill="none"/>
    </clipPath>
    <clipPath id="clip-path-2">
      <rect id="長方形_9661" data-name="長方形 9661" width="52.712" height="56" fill="none"/>
    </clipPath>
  </defs>
  <g id="icon02" transform="translate(4 4)">
    <g id="グループ_706" data-name="グループ 706" transform="translate(0 0)" clip-path="url(#clip-path)">
      <g id="グループ_25386" data-name="グループ 25386" transform="translate(-2.356 -4)">
        <g id="グループ_25385" data-name="グループ 25385" clip-path="url(#clip-path-2)">
          <path id="パス_141308" data-name="パス 141308" d="M19.7,158.275a.652.652,0,0,1-.461-1.113,5.664,5.664,0,0,0,0-8.009l-1.508-1.505L3.39,133.3l-1.353-1.378a6.968,6.968,0,0,1,0-9.85.652.652,0,1,1,.922.922,5.664,5.664,0,0,0,0,8.01l1.353,1.378,14.338,14.338,1.508,1.505a6.922,6.922,0,0,1,2.041,4.927,7.062,7.062,0,0,1-.091,1.133l14.82-14.819a5.661,5.661,0,0,0,1.075-6.512.652.652,0,0,1,1.169-.577,6.965,6.965,0,0,1-1.323,8.012L20.163,158.084a.65.65,0,0,1-.461.191" transform="translate(0 -103.191)" fill="#fff"/>
          <path id="パス_141309" data-name="パス 141309" d="M132.561,70.715a.65.65,0,0,1-.461-.191l-3.631-3.631a.652.652,0,0,1,.922-.922l3.632,3.631a.652.652,0,0,1-.461,1.113" transform="translate(-108.604 -55.691)" fill="#fff"/>
          <path id="パス_141310" data-name="パス 141310" d="M19.634,20.842a.65.65,0,0,1-.461-.191,5.635,5.635,0,0,0-7.321-.588.65.65,0,0,1-.364.124.652.652,0,0,1-.609-1.1L27.933,2.037a6.976,6.976,0,0,1,9.854,0,.652.652,0,0,1,0,.922L20.1,20.651a.65.65,0,0,1-.461.191M15.17,17.677a6.937,6.937,0,0,1,4.443,1.612L36.377,2.525a5.665,5.665,0,0,0-7.522.435L14.046,17.769a6.9,6.9,0,0,1,1.124-.092" transform="translate(-9.049 0)" fill="#fff"/>
          <path id="パス_141311" data-name="パス 141311" d="M83.41,308.887q-.268,0-.545-.024a7.82,7.82,0,0,1-4.314-1.881.652.652,0,0,1-.05-.945l6.767-7.136a.652.652,0,1,1,.946.9l-6.271,6.613c2.127,1.486,4.58,1.474,5.607.446a.652.652,0,1,1,.922.922,4.282,4.282,0,0,1-3.063,1.107" transform="translate(-66.311 -252.887)" fill="#fff"/>
          <path id="パス_141312" data-name="パス 141312" d="M148.961,71.934a.652.652,0,0,1-.652-.653.646.646,0,0,1,.039-.222c1.193-3.292,4.181-12.214,4.181-15.235,0-.1,0-.2-.011-.288,0-.018,0-.036,0-.053a.652.652,0,0,1,.369-.587l11.267-5.425h0a.65.65,0,0,1,.456-.04h0a.65.65,0,0,1,.128.05.658.658,0,0,1,.169.127l5.731,5.731a.641.641,0,0,1,.128.171.652.652,0,0,1,.01.582h0l-5.425,11.267a.639.639,0,0,1-.6.369H164.7c-2.854,0-12.152,3-15.519,4.167a.647.647,0,0,1-.216.037m4.87-16.045c-.024,1.644-.709,4.656-2.04,8.972-.66,2.139-1.338,4.136-1.767,5.372,3.145-1.053,11.074-3.606,14.324-3.8L169.4,55.946l-5.1-5.1Z" transform="translate(-125.563 -41.829)" fill="#fff"/>
          <path id="パス_141313" data-name="パス 141313" d="M251.149,16.235a.65.65,0,0,1-.458-.188l-7.818-7.729a.652.652,0,0,1,0-.925l6.371-6.371a.652.652,0,0,1,.92,0l7.818,7.728a.652.652,0,0,1,0,.925l-6.371,6.371a.65.65,0,0,1-.461.191m-6.893-8.383,6.89,6.812L256.6,9.214,249.7,2.4Z" transform="translate(-205.46 -0.703)" fill="#fff"/>
          <path id="パス_141314" data-name="パス 141314" d="M204.106,105.986h0a3.44,3.44,0,1,1,2.432-1.007,3.417,3.417,0,0,1-2.432,1.007m0-5.575a2.135,2.135,0,1,0,1.51.625,2.121,2.121,0,0,0-1.51-.625" transform="translate(-169.892 -83.907)" fill="#fff"/>
        </g>
      </g>
    </g>
  </g>
</svg>
