<svg xmlns="http://www.w3.org/2000/svg" xmlns:xlink="http://www.w3.org/1999/xlink" width="56" height="56" viewBox="0 0 56 56">
  <defs>
    <clipPath id="clip-path">
      <rect id="長方形_9137" data-name="長方形 9137" width="56" height="56" transform="translate(-4 -4)" fill="none"/>
    </clipPath>
    <clipPath id="clip-path-2">
      <rect id="長方形_9662" data-name="長方形 9662" width="35.586" height="47.104" fill="none"/>
    </clipPath>
  </defs>
  <g id="icon04" transform="translate(4 4)">
    <g id="グループ_706" data-name="グループ 706" transform="translate(0 0)" clip-path="url(#clip-path)">
      <g id="グループ_25388" data-name="グループ 25388" transform="translate(6.207 0.448)">
        <g id="グループ_25387" data-name="グループ 25387" clip-path="url(#clip-path-2)">
          <path id="パス_141315" data-name="パス 141315" d="M99.12,275.466H80.9a.552.552,0,0,1,0-1.1H99.12a.552.552,0,0,1,0,1.1" transform="translate(-69.269 -236.52)" fill="#fff"/>
          <path id="パス_141316" data-name="パス 141316" d="M41.951,275.466H38.133a.552.552,0,0,1,0-1.1h3.818a.552.552,0,0,1,0,1.1" transform="translate(-32.397 -236.52)" fill="#fff"/>
          <path id="パス_141317" data-name="パス 141317" d="M155.885,236.041h-9.134a.552.552,0,1,1,0-1.1h9.134a.552.552,0,0,1,0,1.1" transform="translate(-126.034 -202.533)" fill="#fff"/>
          <path id="パス_141318" data-name="パス 141318" d="M51.7,236.041H38.133a.552.552,0,1,1,0-1.1H51.7a.552.552,0,0,1,0,1.1" transform="translate(-32.397 -202.533)" fill="#fff"/>
          <path id="パス_141319" data-name="パス 141319" d="M190.181,196.616h-3.646a.552.552,0,1,1,0-1.1h3.646a.552.552,0,1,1,0,1.1" transform="translate(-160.33 -168.546)" fill="#fff"/>
          <path id="パス_141320" data-name="パス 141320" d="M56.71,196.616H38.133a.552.552,0,1,1,0-1.1H56.71a.552.552,0,1,1,0,1.1" transform="translate(-32.397 -168.546)" fill="#fff"/>
          <path id="パス_141321" data-name="パス 141321" d="M156.949,157.19h-8.964a.552.552,0,1,1,0-1.1h8.964a.552.552,0,1,1,0,1.1" transform="translate(-127.098 -134.558)" fill="#fff"/>
          <path id="パス_141322" data-name="パス 141322" d="M51.382,157.19H38.133a.552.552,0,1,1,0-1.1H51.382a.552.552,0,1,1,0,1.1" transform="translate(-32.397 -134.558)" fill="#fff"/>
          <path id="パス_141323" data-name="パス 141323" d="M149.858,77.359h-10.1a.552.552,0,0,1-.339-.987l6.114-4.763a.552.552,0,0,1,.678.87l-4.847,3.776h8.492a.552.552,0,1,1,0,1.1" transform="translate(-120.007 -61.631)" fill="#fff"/>
          <path id="パス_141324" data-name="パス 141324" d="M147.256,52.322a.552.552,0,0,1-.337-.989l1.315-1.011H139.76a.552.552,0,1,1,0-1.1h10.1a.552.552,0,0,1,.336.989l-2.6,2a.549.549,0,0,1-.336.114" transform="translate(-120.007 -42.43)" fill="#fff"/>
          <path id="パス_141325" data-name="パス 141325" d="M35.035,47.1H.552A.552.552,0,0,1,0,46.552V.636A.552.552,0,0,1,.552.085H32.293a.552.552,0,0,1,0,1.1H1.1V46h33.38V.552a.552.552,0,1,1,1.1,0v46a.552.552,0,0,1-.552.552" fill="#fff"/>
          <path id="パス_141326" data-name="パス 141326" d="M59.581,54.692a1.94,1.94,0,0,1-1.389-.6,2,2,0,0,1-.579-1.386A2.084,2.084,0,0,1,58.2,51.27a1.968,1.968,0,0,1,1.406-.629h.014a2.015,2.015,0,0,1,1.915,2.031,2.054,2.054,0,0,1-.558,1.428,1.909,1.909,0,0,1-1.393.592m-.586-2.661a.972.972,0,0,0-.279.664.9.9,0,0,0,.266.624.841.841,0,0,0,.6.27.817.817,0,0,0,.6-.251.956.956,0,0,0,.252-.666.908.908,0,0,0-.821-.927.864.864,0,0,0-.613.287" transform="translate(-49.666 -43.656)" fill="#fff"/>
          <path id="パス_141327" data-name="パス 141327" d="M55.075,87.575a.552.552,0,0,1-.552-.552V85.076a1.133,1.133,0,0,0-.839-1.176,8.68,8.68,0,0,0-2.4,0,1.134,1.134,0,0,0-.842,1.177v1.946a.552.552,0,1,1-1.1,0V85.076a2.219,2.219,0,0,1,1.793-2.27,10.138,10.138,0,0,1,1.378-.094,9.8,9.8,0,0,1,1.328.094,2.218,2.218,0,0,1,1.79,2.269v1.946a.552.552,0,0,1-.552.552" transform="translate(-42.532 -71.304)" fill="#fff"/>
          <path id="パス_141328" data-name="パス 141328" d="M43.943,41.194H34.259a.552.552,0,0,1-.552-.552V29.11a.552.552,0,0,1,.552-.552h9.684a.552.552,0,0,1,.552.552V40.642a.552.552,0,0,1-.552.552m-9.132-1.1h8.58V29.661H34.81Z" transform="translate(-29.058 -24.619)" fill="#fff"/>
        </g>
      </g>
    </g>
  </g>
</svg>
