<svg xmlns="http://www.w3.org/2000/svg" xmlns:xlink="http://www.w3.org/1999/xlink" width="56" height="56" viewBox="0 0 56 56">
  <defs>
    <clipPath id="clip-path">
      <rect id="長方形_9137" data-name="長方形 9137" width="56" height="56" transform="translate(-4 -4)" fill="none"/>
    </clipPath>
    <clipPath id="clip-path-2">
      <rect id="長方形_9658" data-name="長方形 9658" width="56" height="45.664" fill="none"/>
    </clipPath>
  </defs>
  <g id="icon05" transform="translate(4 4)">
    <g id="グループ_706" data-name="グループ 706" transform="translate(0 0)" clip-path="url(#clip-path)">
      <g id="グループ_25380" data-name="グループ 25380" transform="translate(-4 1.168)">
        <g id="グループ_25379" data-name="グループ 25379" clip-path="url(#clip-path-2)">
          <path id="パス_141290" data-name="パス 141290" d="M96.387,0h-43.4a2.735,2.735,0,0,0-2.731,2.732V6.452a.628.628,0,1,0,1.256,0V2.732a1.478,1.478,0,0,1,1.476-1.476h43.4a1.478,1.478,0,0,1,1.476,1.476V31.855a1.477,1.477,0,0,1-1.476,1.476H62.7a.628.628,0,0,0,0,1.256H96.387a2.735,2.735,0,0,0,2.731-2.732V2.732A2.735,2.735,0,0,0,96.387,0" transform="translate(-43.119)" fill="#fff"/>
          <path id="パス_141291" data-name="パス 141291" d="M22.912,82.525h.023a5.746,5.746,0,0,0,4.2-1.781,6.287,6.287,0,0,0,1.7-4.372,6.111,6.111,0,0,0-5.77-6.195h-.041a5.951,5.951,0,0,0-4.244,1.917,6.382,6.382,0,0,0-1.8,4.383,6.091,6.091,0,0,0,1.769,4.216,5.847,5.847,0,0,0,4.165,1.832m-3.229-9.564a4.692,4.692,0,0,1,3.332-1.528h.035a4.838,4.838,0,0,1,4.523,4.938,5.038,5.038,0,0,1-1.35,3.505,4.5,4.5,0,0,1-3.285,1.393h-.02a4.6,4.6,0,0,1-3.271-1.452,4.842,4.842,0,0,1-1.413-3.348,5.117,5.117,0,0,1,1.449-3.508" transform="translate(-14.567 -60.212)" fill="#fff"/>
          <path id="パス_141292" data-name="パス 141292" d="M23.97,148.508a.627.627,0,0,0,.61-.3l4.042-6.61a2.657,2.657,0,0,0-.865-3.643,2.332,2.332,0,0,0-1.9-.361c-1.517.39-2.574,2.348-3.423,3.922-.263.486-.514.952-.733,1.281-11.849-1.74-16.795-2.334-19.4-.043-2.449,2.15-2.381,6.41-2.243,14.9.026,1.607.056,3.428.069,5.384a.628.628,0,0,0,.628.624h0a.628.628,0,0,0,.624-.632c-.013-1.962-.043-3.786-.069-5.4-.127-7.844-.2-12.165,1.816-13.932,2.305-2.024,7.806-1.215,18.764.4a.627.627,0,0,0,.57-.214,11.126,11.126,0,0,0,1.08-1.768c.695-1.287,1.646-3.049,2.631-3.3a1.088,1.088,0,0,1,.917.207,1.4,1.4,0,0,1,.462,1.925l-3.832,6.267L15.2,146.2a.628.628,0,0,0-.7.682c.027.506.051,9.922.06,16.15a.628.628,0,0,0,.628.627h0a.628.628,0,0,0,.627-.629c-.006-4.088-.022-12.822-.052-15.5Z" transform="translate(0 -117.999)" fill="#fff"/>
          <path id="パス_141293" data-name="パス 141293" d="M145.327,61.817a.628.628,0,0,0-1.015-.03l-4.383,5.656-2.2-3.1a.628.628,0,1,0-1.025.726l2.688,3.8a.628.628,0,0,0,.5.265.634.634,0,0,0,.51-.243l4.376-5.646c.736,1.068,2.2,3.186,3.706,5.289,4.454,6.231,4.835,6.266,5.238,6.3.022,0,.043,0,.065,0a.676.676,0,0,0,.479-.2c.456-.456,9.193-11.336,11.149-13.773l.164,2.248a.628.628,0,0,0,.626.582l.046,0a.628.628,0,0,0,.58-.672l-.285-3.891a.628.628,0,0,0-.788-.561l-4.205,1.118a.628.628,0,0,0,.323,1.214l2.414-.642c-3.847,4.793-9.16,11.39-10.574,13.092-1.244-1.335-5.072-6.677-8.391-11.532" transform="translate(-117.194 -50.232)" fill="#fff"/>
        </g>
      </g>
    </g>
  </g>
</svg>
