<svg xmlns="http://www.w3.org/2000/svg" width="620" height="90" viewBox="0 0 620 90">
  <g id="mv_mainTtl" transform="translate(-1029 -183)">
    <path id="パス_141335" data-name="パス 141335" d="M10.272-28.512v.425a27.657,27.657,0,0,1-.309,3.905A50.9,50.9,0,0,1,6.481-10.957,26.508,26.508,0,0,1,.95-2.527a20.805,20.805,0,0,1,5.3,3.944A36.73,36.73,0,0,0,13.1-11.073a71,71,0,0,0,2.94-13.108,27.81,27.81,0,0,1,.5-3.209Zm11.681,1.083a22.367,22.367,0,0,1,.5,2.939,67.449,67.449,0,0,0,3.52,14A41.252,41.252,0,0,0,32.589,1.456,19.84,19.84,0,0,1,37.733-2.72a34.249,34.249,0,0,1-4.487-6.419A45.489,45.489,0,0,1,29.185-19.85a53.841,53.841,0,0,1-1.547-8.662ZM68.909-31.1c-1.16,1.933-3.752,4.524-7.156,7.154A57.172,57.172,0,0,1,41.369-13.9,19.141,19.141,0,0,1,44.5-8.636c7-2.591,9.206-3.6,13.228-5.994V-2.875A37.841,37.841,0,0,1,57.5,2.732H63.88a48.207,48.207,0,0,1-.193-5.723V-18.226a65.438,65.438,0,0,0,9.051-7.888,13.137,13.137,0,0,1,1.47-1.392Zm22.666-.7a14.9,14.9,0,0,1-1.857,4.911A30.221,30.221,0,0,1,79.584-15.4a14.265,14.265,0,0,1,4.6,3.944,38.67,38.67,0,0,0,8.935-9.86l10.985-.116C100.934-11.691,94.9-5.62,84.457-1.56a14.966,14.966,0,0,1,3.984,4.988C94.591.605,99-2.527,102.482-6.51a41.308,41.308,0,0,0,7.929-15.081,8.464,8.464,0,0,1,1.006-2.513l-2.824-2.784a8.413,8.413,0,0,1-2.785.425l-10.056.116c.425-.851.58-1.2.928-1.972A17.187,17.187,0,0,1,97.8-30.6Zm33.767,7.192c1.2-.116,2.746-.193,5.222-.193h12.88a36.185,36.185,0,0,1,5.183.193v-5.607a23.44,23.44,0,0,1-5.26.309H130.678a30.279,30.279,0,0,1-5.338-.309Zm-3.249,9.512a49.445,49.445,0,0,1,5.763-.193h17.6A19.051,19.051,0,0,1,139.342-6.9c-2.862,2.243-5.8,3.6-10.482,4.795A16.937,16.937,0,0,1,132.5,3.273c5.3-2.088,7.929-3.441,10.559-5.568a28.669,28.669,0,0,0,8.78-13.224,11.724,11.724,0,0,1,1.083-2.436l-2.591-2.861a9.9,9.9,0,0,1-3.752.387H127.932a34.477,34.477,0,0,1-5.84-.271Zm71.44,12.683c-6.614-6.3-7.581-7.154-12.571-10.711A50.391,50.391,0,0,0,186.8-23.64a6.356,6.356,0,0,1,1.276-2.165L185.1-28.9c-.928.425-1.122.464-3.249.464l-13.189.232h-.735a28.81,28.81,0,0,1-4.719-.232l.077,5.878A34.851,34.851,0,0,1,168.7-22.9l11.294-.193c-.89,1.972-1.547,3.364-2.05,4.215A35.692,35.692,0,0,1,167.81-7.708a34.952,34.952,0,0,1-8.587,4.718,17.487,17.487,0,0,1,3.713,5.143A44.5,44.5,0,0,0,177.364-8.636,68.873,68.873,0,0,1,188.851,2.616ZM214.959-25.38v1.469h-7.736c-2.011,0-2.824-.039-3.868-.116a29.488,29.488,0,0,1,.155,3.248v7.347a29.031,29.031,0,0,1-.155,3.248c1.083-.077,1.934-.116,3.868-.116h16.322v1.547H204.593a25.28,25.28,0,0,1-4.293-.232v4.64c1.276-.116,2.824-.193,4.177-.193H210.2l-3.4,2.552a28.553,28.553,0,0,1,5.57,5.336L216.313.18a25.742,25.742,0,0,0-5.26-4.718h12.493v3.055c0,.735-.232.851-1.663.851A37.05,37.05,0,0,1,217.551-.9a14.782,14.782,0,0,1,1.392,4.563c1.508.077,2.591.116,3.017.116,4.912,0,6.421-.889,6.421-3.828V-4.538h2.553c1.431,0,2.862.077,4.177.193v-4.64a25.011,25.011,0,0,1-4.293.232h-2.437V-10.3c2.05,0,2.553.039,3.636.116a27.713,27.713,0,0,1-.155-3.248v-7.347a27.713,27.713,0,0,1,.155-3.248c-1.044.077-1.857.116-3.868.116h-8.355V-25.38h11.1a40.441,40.441,0,0,1,4.177.193v-4.6a25.01,25.01,0,0,1-4.293.232H219.794a15.211,15.211,0,0,1,.232-2.668h-5.3a18.043,18.043,0,0,1,.232,2.668H204.593a25.28,25.28,0,0,1-4.293-.232v4.6a31.841,31.841,0,0,1,4.177-.193Zm0,4.95v1.663h-6.614V-20.43Zm4.835,0h7.194v1.663h-7.194Zm-4.835,4.911v1.74h-6.614v-1.74Zm4.835,0h7.194v1.74h-7.194Zm27.114-.464h6.846c1.16,0,2.282.039,3.365.077-.039-.773-.077-1.508-.077-3.4v-8.236c0-1.508.039-2.475.116-3.6a31.875,31.875,0,0,1-3.945.155h-7.426a33.523,33.523,0,0,1-3.945-.155A43.586,43.586,0,0,1,242-26.733V-1.29a40.847,40.847,0,0,1-.232,4.988h5.376a37.506,37.506,0,0,1-.232-4.988Zm0-11.02h5.608v1.817h-5.608Zm0,5.375h5.608v1.817h-5.608ZM274.8-26.772c0-2.011.039-3.016.155-4.369a33.523,33.523,0,0,1-3.945.155H263.23a32.279,32.279,0,0,1-3.945-.155c.077,1.16.116,2.281.116,3.6v8.275c0,1.663-.039,2.668-.077,3.441.928-.039,2.05-.077,3.365-.077h7.156v13.65c0,.773-.232.928-1.392.928a49.614,49.614,0,0,1-5.222-.309,17.44,17.44,0,0,1,1.2,4.988c1.354,0,2.437.039,3.094.039,6.111,0,7.272-.773,7.272-4.872ZM264-27h5.841v1.817H264Zm0,5.375h5.841v1.895H264Z" transform="translate(1028.05 215.224)" fill="#9b1613"/>
    <path id="パス_141337" data-name="パス 141337" d="M27.151-8.248v7.88c0,.542-.286.734-1.082.734a16.349,16.349,0,0,1-3.564-.447A6.2,6.2,0,0,1,22.951,1.8a25.884,25.884,0,0,0,2.641.191c2.577,0,3.15-.415,3.15-2.2v-21.6a24.6,24.6,0,0,1,.127-3,24.25,24.25,0,0,1-2.927.128H21.614a23.261,23.261,0,0,1-2.927-.128,27.727,27.727,0,0,1,.127,3.414,138.726,138.726,0,0,1-.541,14.931A12.942,12.942,0,0,1,15.027,1a4.573,4.573,0,0,1,1.336,1.18C18.719-.847,19.705-3.59,20.055-8.248Zm0-7.657v6.253h-7c.127-2.52.159-3,.191-6.253Zm0-1.4H20.341l.032-1.6v-4.339h6.778ZM5.131-22.349H4.909a13.965,13.965,0,0,1-2.864-.191v1.723a15.546,15.546,0,0,1,2.864-.16h.223V-7H4.113A13.494,13.494,0,0,1,1.5-7.164v1.723A14.111,14.111,0,0,1,4.113-5.6h9.96c1.209,0,2.323.032,2.959.1V-7.164A16.213,16.213,0,0,1,14.359-7V-20.978a19.058,19.058,0,0,1,2.768.128v-1.691a15.064,15.064,0,0,1-2.768.191v-.606a20.126,20.126,0,0,1,.191-3.127H12.673a18.821,18.821,0,0,1,.159,3.127v.606H6.659v-.606a22.135,22.135,0,0,1,.159-3.127H4.941a21.3,21.3,0,0,1,.191,3.127ZM6.659-7v-3.988h6.173V-7Zm0-5.328v-3.637h6.173v3.637Zm0-4.977v-3.669h6.173v3.669Zm0,13.048A9.651,9.651,0,0,1,4.845-1.708,13.053,13.053,0,0,1,1.854.717,3.922,3.922,0,0,1,3.095,1.993,18.445,18.445,0,0,0,8.027-3.463Zm4.232.766A17.788,17.788,0,0,0,14.009.047,4.474,4.474,0,0,1,15.218-1.07a10.934,10.934,0,0,1-3.15-3.254ZM52.48-21.233v4.5H46.943a20.253,20.253,0,0,1-3.118-.191v1.818a21.132,21.132,0,0,1,3.118-.191H57.125v3.988H46.784A20.373,20.373,0,0,1,43.7-11.5v1.818a21.436,21.436,0,0,1,3.118-.191h10.31V-.56c0,.638-.223.766-1.273.766a21.907,21.907,0,0,1-4.041-.383,5.627,5.627,0,0,1,.414,1.818c1.177.064,2.2.128,3.023.128,2.832,0,3.532-.447,3.532-2.2V-9.875h1.5a20.834,20.834,0,0,1,3.118.191V-11.5a20.541,20.541,0,0,1-3.118.191h-1.5V-15.3h1.5a20.541,20.541,0,0,1,3.118.191v-1.818a20.713,20.713,0,0,1-3.15.191H54.1v-4.5h4.964a25.665,25.665,0,0,1,2.927.16v-1.755a17.77,17.77,0,0,1-2.959.191H54.1v-1.372a16.968,16.968,0,0,1,.191-2.648h-2a17.569,17.569,0,0,1,.191,2.648v1.372H48.12a17.346,17.346,0,0,1-2.927-.191v1.755a19.96,19.96,0,0,1,2.927-.16ZM42.17-26.784c-1.05,2.2-3.723,4.817-6.9,6.8a5.275,5.275,0,0,1,1.146,1.244,29.354,29.354,0,0,0,5.95-5.424,19.2,19.2,0,0,1,1.336-1.6ZM52.67-3.176a41.259,41.259,0,0,0-5.155-5.392l-1.209.989A25.988,25.988,0,0,1,51.27-2.027ZM39.179-1.517a27.513,27.513,0,0,1-.191,3.7h2A26.76,26.76,0,0,1,40.8-1.549V-14.756a31.774,31.774,0,0,0,2.1-2.9A12.666,12.666,0,0,1,43.761-19l-1.591-.893c-.859,2.616-4.073,6.508-7.287,8.837a4.5,4.5,0,0,1,1.05,1.372,16.03,16.03,0,0,0,3.373-3.509c-.1,1.4-.127,2.393-.127,3.733ZM78.667-21.36a44.7,44.7,0,0,1-6.809-.351l-.032,1.818a7.183,7.183,0,0,1,.8-.032H73c1.177.032,4.3.1,4.868.1a3.456,3.456,0,0,0,.6-.032l-.127.191a1.387,1.387,0,0,0-.127.223c-2.164,3.956-5,7.625-7.287,9.38l1.464,1.5a10.512,10.512,0,0,1,2.386-2.552c2.609-2.2,5.187-3.414,7.255-3.414,1.559,0,2.418.861,2.673,2.744A25.744,25.744,0,0,0,79.94-9.205c-2.132,1.563-3.182,3.19-3.182,4.881,0,3.19,2.7,4.754,8.273,4.754a46.016,46.016,0,0,0,7.6-.67,9.2,9.2,0,0,1,1.209-.128L93.559-2.41A26.945,26.945,0,0,1,85.031-1.2c-4.423,0-6.491-1.021-6.491-3.19,0-2.01,1.814-3.637,6.332-5.743a9.014,9.014,0,0,1,.032.989,39.286,39.286,0,0,1-.223,4.817H86.5a5.507,5.507,0,0,1-.064-.989c0-.255,0-.893.032-1.563.032-.606.032-1.34.032-1.85a20.565,20.565,0,0,0-.064-2.074,50.176,50.176,0,0,1,8.56-2.871l-.923-1.85a7.615,7.615,0,0,1-2.1.925c-1.4.479-3.882,1.436-5.728,2.169C85.827-14.788,84.459-16,82.1-16a8.638,8.638,0,0,0-4.932,1.659c-.35.255-.35.255-1.591,1.244l-.064-.064a23.489,23.489,0,0,0,4.773-6.7A88.3,88.3,0,0,0,90.7-20.69c.6-.1.8-.128,1.273-.191l-.191-1.787a37.045,37.045,0,0,1-8.75,1.18c-1.75.1-1.75.1-2.036.128a17.787,17.787,0,0,0,1.018-2.265,5.42,5.42,0,0,1,.859-1.755l-2.1-.447a14.453,14.453,0,0,1-1.591,4.466ZM109.6-2.857a12.719,12.719,0,0,1-3.055-4.052c.191-1.436.255-2.3.35-4.02a8.265,8.265,0,0,1,.064-1.021l-1.75-.16a8.687,8.687,0,0,1,.1,1.372,24.71,24.71,0,0,1-.827,6.6A16.867,16.867,0,0,1,102.246,1.2a4.191,4.191,0,0,1,1.432.861,24.231,24.231,0,0,0,2.546-7.051A12.275,12.275,0,0,0,110.615-.3c2.45,1.436,5.155,1.818,12.792,1.818,3.341,0,5.537-.032,7.86-.16a4.234,4.234,0,0,1,.668-1.85,76.464,76.464,0,0,1-9.514.415c-6.937,0-9.005-.287-11.264-1.6v-6.54h2.2a14.563,14.563,0,0,1,2.609.191V-9.748a15.482,15.482,0,0,1-2.577.16h-2.227v-4.817h2.036a17.935,17.935,0,0,1,2.991.191v-1.818a16.432,16.432,0,0,1-2.991.191h-2.1v-4.53h1.846a17.573,17.573,0,0,1,2.864.16v-1.755a14.708,14.708,0,0,1-2.864.16h-1.846v-1.4a19.382,19.382,0,0,1,.191-3.19h-1.941a16.555,16.555,0,0,1,.191,3.19v1.4H106.86a14.37,14.37,0,0,1-2.768-.16v1.755a17.012,17.012,0,0,1,2.768-.16h2.673v4.53h-3.087a17.43,17.43,0,0,1-3.087-.191v1.818a18.535,18.535,0,0,1,3.055-.191H109.6Zm11.9-20.418A11.124,11.124,0,0,1,120.32-18.2a8.408,8.408,0,0,1-4.009,3.637,4.157,4.157,0,0,1,1.082,1.308c2.737-1.691,4.009-3.127,4.868-5.424a13.951,13.951,0,0,0,.827-4.594h5.346c-.1,3.637-.318,6.125-.636,6.7-.255.447-.573.574-1.527.574a18.97,18.97,0,0,1-2.9-.255,4.568,4.568,0,0,1,.35,1.659c.923.064,1.464.1,2.132.1,1.973,0,2.609-.191,3.118-.957.573-.829.8-2.457,1.018-7.721.064-.861.064-1.117.127-1.627a24.08,24.08,0,0,1-2.991.128h-7.191a18.1,18.1,0,0,1-3.118-.191v1.787a17.675,17.675,0,0,1,2.991-.191ZM117.647-5.7a21.208,21.208,0,0,1-.127,2.967,24.517,24.517,0,0,1,3.373-.16h5.632a25.025,25.025,0,0,1,3.4.16,22.454,22.454,0,0,1-.127-3.127V-9.3a21.405,21.405,0,0,1,.127-3.031,24.741,24.741,0,0,1-3.4.16H120.8a22.485,22.485,0,0,1-3.277-.16,19.62,19.62,0,0,1,.127,2.871Zm1.591-5.041h8.973v6.413h-8.973ZM144.471-23.53A45.485,45.485,0,0,0,155.99-21.3l.382-1.755a36.815,36.815,0,0,1-11.169-2.01ZM141.7-15.395c.891-.128,1.114-.128,1.973-.191a78.392,78.392,0,0,0,10.787-1.085l.032.032c-1.082.989-2.418,2.3-4.868,4.722-8.019,7.976-9.514,9.38-11.169,10.528L139.921.238C141-1.006,143.23-3.3,144.789-4.739c2.609-2.425,4.232-3.318,5.95-3.318a1.553,1.553,0,0,1,1.464.766,5.348,5.348,0,0,1,.382,2.3c.191,2.3.286,2.871.636,3.509.7,1.244,2.036,1.818,4.391,1.818a32.2,32.2,0,0,0,5.887-.7,6.869,6.869,0,0,1,.923-.128l-.318-2.01a17.219,17.219,0,0,1-6.491,1.18c-1.559,0-2.323-.255-2.768-.957-.318-.51-.414-1.053-.573-3.19A5.373,5.373,0,0,0,153.6-8.28a2.815,2.815,0,0,0-2.418-1.18c-.986,0-1.686.255-3.373,1.244l-.032-.064a61.445,61.445,0,0,0,6.428-5.87,32.888,32.888,0,0,1,2.864-2.744l-1.209-1.468a5.74,5.74,0,0,1-1.5.351c-2.482.351-8.337.766-10.978.766-.6,0-1.018-.032-1.846-.064Zm33.188-6.349a11.282,11.282,0,0,1,1.75-.191c3.946-.128,8.782-.383,9.737-.51a1.316,1.316,0,0,1,.477-.064v.032c-.159.16-.477.51-.541.574-3.946,4.052-12.569,11.389-15.433,13.112l1.177,1.659a20.587,20.587,0,0,1,13.46-5.487c4.391,0,7.032,1.882,7.032,5.009,0,2.9-1.909,4.945-5.441,5.9A10,10,0,0,0,185.646-4.8a6.286,6.286,0,0,0-5.187-2.616c-2.609,0-4.391,1.5-4.391,3.669,0,2.68,2.546,4.275,6.873,4.275,6.937,0,11.487-3.222,11.487-8.135,0-3.956-3.4-6.54-8.655-6.54a15.292,15.292,0,0,0-8.178,2.2l-.1-.128c.414-.255,1.4-.957,1.814-1.276,1.464-1.149,5.759-4.945,7.478-6.668,2.641-2.616,2.641-2.616,3.087-2.807l-1.146-1.5a3.522,3.522,0,0,1-1.432.319c-2.9.255-6.969.415-9.928.415a14.111,14.111,0,0,1-2.609-.16ZM185.36-1.261a11.289,11.289,0,0,1-2.514.255,8.286,8.286,0,0,1-3.723-.766,2.183,2.183,0,0,1-1.368-2.042c0-1.276,1.05-2.106,2.737-2.106C182.941-5.919,184.6-4.324,185.36-1.261Zm30.452-10.081v3.286h-2.673a17.383,17.383,0,0,1-3.023-.16v1.627a17.611,17.611,0,0,1,3.023-.16h14.287a19.152,19.152,0,0,1,3.118.16V-8.216a18.913,18.913,0,0,1-3.118.16h-3.118v-3.286h2.1a18.348,18.348,0,0,1,2.991.16v-1.6a16.578,16.578,0,0,1-2.927.16h-2.164a17.381,17.381,0,0,1,.159-2.138h-1.814a16.872,16.872,0,0,1,.159,2.138h-5.5a17.372,17.372,0,0,1,.159-2.138h-1.814a18.459,18.459,0,0,1,.159,2.138h-1.4a16.547,16.547,0,0,1-2.959-.16v1.6a18.11,18.11,0,0,1,2.991-.16Zm1.5,0h5.5v3.286h-5.5Zm1.718-12.474a13.5,13.5,0,0,1,.1-1.755,18.453,18.453,0,0,1-2.8.128h-3.277a14.026,14.026,0,0,1-2.514-.16v1.627a14.243,14.243,0,0,1,2.514-.16h4.55v2.712h-4.9a14.831,14.831,0,0,1-1.973-.1,12.639,12.639,0,0,1,.1,1.723v2.3c0,1.691.445,1.882,4.328,1.882,2.609,0,3.373-.128,3.787-.574.445-.479.668-1.149.859-2.712a4.754,4.754,0,0,1-1.4-.7,7.155,7.155,0,0,1-.318,2.169c-.255.447-.764.542-3.341.542-2.2,0-2.45-.1-2.45-.989v-2.329h4.9a16,16,0,0,1,1.941.1,11.517,11.517,0,0,1-.1-1.691Zm10.5,0a12.83,12.83,0,0,1,.1-1.755,18.958,18.958,0,0,1-2.832.128h-3.246a14.026,14.026,0,0,1-2.514-.16v1.627a13.861,13.861,0,0,1,2.482-.16h4.55v2.712h-4.9a14.5,14.5,0,0,1-1.973-.1,15.362,15.362,0,0,1,.1,1.755V-17.5c0,1.691.445,1.882,4.232,1.882,4.487,0,4.678-.128,5.059-3.286a5.7,5.7,0,0,1-1.4-.7,4.581,4.581,0,0,1-.509,2.329c-.255.287-1.05.383-3.5.383a8.181,8.181,0,0,1-2-.16c-.35-.128-.414-.287-.414-.829v-2.329h4.9a16.211,16.211,0,0,1,1.973.1,11.219,11.219,0,0,1-.1-1.691ZM216.861-6.334a16.72,16.72,0,0,1-5.887,3.573,4.056,4.056,0,0,1,1.273,1.149A21.241,21.241,0,0,0,218.134-5.5Zm5.155.957a25.419,25.419,0,0,0,6.778,3.956,4.924,4.924,0,0,1,1.177-1.308,22.344,22.344,0,0,1-6.714-3.509Zm-18.71-19.11a28.206,28.206,0,0,1,4.518,5.455l1.336-1.149a40.052,40.052,0,0,0-4.678-5.328Zm-.636,12.442a12.384,12.384,0,0,1,2.355-.16h2.036v7.912a18.72,18.72,0,0,1-5.028,4.02l.923,1.691a11.521,11.521,0,0,1,1.082-.925c1.05-.925,1.05-.925,1.464-1.308.764-.67,1.3-1.212,2.259-2.2a7.688,7.688,0,0,0,3.4,3.158c1.846.893,3.6,1.117,8.5,1.117,4.232,0,7.8-.064,11.169-.191A5.9,5.9,0,0,1,231.5-.879a94.559,94.559,0,0,1-12.569.606c-3.85,0-5.728-.255-7.35-.957a5.217,5.217,0,0,1-2.927-3.095V-10.45a23.152,23.152,0,0,1,.159-3.318,14.667,14.667,0,0,1-2.418.16h-1.3a12.5,12.5,0,0,1-2.418-.16Zm38.661-6.572v7.465a19.71,19.71,0,0,1-4.868,1.6l.573,1.818a16.271,16.271,0,0,1,1.591-.7c2.036-.8,2.036-.8,2.7-1.053V-.528c0,.7-.255.893-1.209.893a28.025,28.025,0,0,1-3.437-.223,4.165,4.165,0,0,1,.382,1.659c1.273.064,2.387.1,3.15.1,1.941,0,2.737-.606,2.737-2.01V-10.194c1.877-.8,2.291-.989,3.882-1.787v-1.6c-1.5.766-2.259,1.085-3.087,1.436a6.555,6.555,0,0,1-.8.319v-6.8h1.686a18.583,18.583,0,0,1,2.45.16v-1.755a13.378,13.378,0,0,1-2.386.16h-1.75v-3.286a19.954,19.954,0,0,1,.191-3.095h-2a19.672,19.672,0,0,1,.191,3.095v3.286h-1.846a18.868,18.868,0,0,1-2.768-.191v1.818a19.258,19.258,0,0,1,2.8-.191Zm14.1,5.3c1.146,7.274,3.246,11.421,7.891,15.409a5.268,5.268,0,0,1,1.3-1.468,17.941,17.941,0,0,1-5.441-6.444,21.375,21.375,0,0,1-2.132-7.5h2.7a28.968,28.968,0,0,1,3.118.128,32.132,32.132,0,0,1-.127-3.382V-21.3a34.577,34.577,0,0,1,.127-3.477,31.6,31.6,0,0,1-3.341.128h-7.35c-1.559,0-2.386-.032-3.468-.128.1,1.212.127,2.52.127,4.785,0,7.114-.445,11.868-1.464,14.9A13.59,13.59,0,0,1,243.94.589a4.978,4.978,0,0,1,1.336,1.244,16.863,16.863,0,0,0,3.882-7.083,36.5,36.5,0,0,0,1.114-8.072Zm-5.091-1.436c.127-4.722.127-4.722.127-6.221v-2.2h10.66v8.422Zm27.747,6v8.1c0,.829-.159.989-1.082.989a12.7,12.7,0,0,1-2.45-.351,5.293,5.293,0,0,1,.318,1.691c.955.1,1.655.128,2.2.128,2,0,2.577-.51,2.577-2.329V-22.19a25.969,25.969,0,0,1,.127-3.286,15.251,15.251,0,0,1-2.577.16h-2.609a17.312,17.312,0,0,1-2.737-.16,58.027,58.027,0,0,1,.159,6.125c0,7.274-.255,12.347-.764,15.09A13.66,13.66,0,0,1,269.3.972a4.9,4.9,0,0,1,1.336,1.244c1.718-2.9,2.323-5.36,2.673-10.975Zm0-8.965h-4.55l.032-1.244v-4.913h4.518Zm0,1.372v6.221h-4.678c.064-1.244.064-1.468.1-3.8,0-.51,0-1.372.032-2.425Zm10.246-3.541v5.1h-4.1a23.443,23.443,0,0,1-2.959-.16v1.755a17.222,17.222,0,0,1,2.291-.16,23.328,23.328,0,0,0,4.837,8.518A23.829,23.829,0,0,1,279.865.4a6.91,6.91,0,0,1,.986,1.531,26.116,26.116,0,0,0,8.623-5.583A25.15,25.15,0,0,0,298.13,2.12,7.84,7.84,0,0,1,299.243.493a22.529,22.529,0,0,1-8.655-5.3,26.636,26.636,0,0,0,4.9-7.529c.286-.67.541-1.276.7-1.563l-.986-1.021a11.207,11.207,0,0,1-2.2.128H289.92v-5.1h5.155a21.354,21.354,0,0,1,3.214.191v-1.882a21.825,21.825,0,0,1-3.246.191H289.92v-1.755a20.372,20.372,0,0,1,.191-3.222h-1.973a21.523,21.523,0,0,1,.191,3.222v1.755H284.1a21.946,21.946,0,0,1-3.214-.191V-19.7a22.733,22.733,0,0,1,3.246-.191Zm5.823,6.54a22.69,22.69,0,0,1-4.646,7.4,21,21,0,0,1-4.359-7.4ZM313.18-21.36a44.7,44.7,0,0,1-6.809-.351l-.032,1.818a7.184,7.184,0,0,1,.8-.032h.382c1.177.032,4.3.1,4.868.1a3.456,3.456,0,0,0,.6-.032l-.127.191a1.388,1.388,0,0,0-.127.223c-2.164,3.956-5,7.625-7.287,9.38l1.464,1.5A10.512,10.512,0,0,1,309.3-11.12c2.609-2.2,5.187-3.414,7.255-3.414,1.559,0,2.418.861,2.673,2.744a25.743,25.743,0,0,0-4.773,2.584c-2.132,1.563-3.182,3.19-3.182,4.881,0,3.19,2.7,4.754,8.273,4.754a46.017,46.017,0,0,0,7.6-.67,9.2,9.2,0,0,1,1.209-.128l-.286-2.042A26.945,26.945,0,0,1,319.544-1.2c-4.423,0-6.491-1.021-6.491-3.19,0-2.01,1.814-3.637,6.332-5.743a9.019,9.019,0,0,1,.032.989,39.287,39.287,0,0,1-.223,4.817h1.814a5.506,5.506,0,0,1-.064-.989c0-.255,0-.893.032-1.563.032-.606.032-1.34.032-1.85a20.56,20.56,0,0,0-.064-2.074,50.176,50.176,0,0,1,8.56-2.871l-.923-1.85a7.615,7.615,0,0,1-2.1.925c-1.4.479-3.882,1.436-5.728,2.169C320.34-14.788,318.972-16,316.617-16a8.638,8.638,0,0,0-4.932,1.659c-.35.255-.35.255-1.591,1.244l-.064-.064a23.49,23.49,0,0,0,4.773-6.7,88.3,88.3,0,0,0,10.405-.829c.6-.1.8-.128,1.273-.191l-.191-1.787a37.045,37.045,0,0,1-8.75,1.18c-1.75.1-1.75.1-2.036.128a17.79,17.79,0,0,0,1.018-2.265,5.42,5.42,0,0,1,.859-1.755l-2.1-.447a14.453,14.453,0,0,1-1.591,4.466Z" transform="translate(1027.496 270.784)" fill="#222"/>
    <path id="パス_141336" data-name="パス 141336" d="M17.567-21.385a10.009,10.009,0,0,1,3.848.771A8.664,8.664,0,0,1,26.771-12.3a9.813,9.813,0,0,1-5.131,8.8,18.251,18.251,0,0,1-5.9,1.863,4.164,4.164,0,0,1,.93,1.8A22.484,22.484,0,0,0,21.961-1.6a11.522,11.522,0,0,0,6.7-10.664,10.442,10.442,0,0,0-3.111-7.677,12.041,12.041,0,0,0-8.563-3.084,13.017,13.017,0,0,0-10.2,4.24,13.094,13.094,0,0,0-3.335,8.7c0,4.3,2.181,7.548,5.067,7.548,2.245,0,4.105-1.927,5.933-6.2A47.49,47.49,0,0,0,17.567-21.385Zm-1.892.032A45.72,45.72,0,0,1,12.692-9.18c-1.443,3.244-2.79,4.786-4.2,4.786-1.828,0-3.239-2.473-3.239-5.653a11.3,11.3,0,0,1,5.484-9.829A11.009,11.009,0,0,1,15.675-21.353ZM43.448-3.43h2.918a15.866,15.866,0,0,1,2.726.161V-5a15.46,15.46,0,0,1-2.694.161h-2.95v-3.18H45.6a20.456,20.456,0,0,1,2.918.128c-.064-.739-.1-1.638-.1-3.116v-5.075c0-1.381.032-2.281.1-2.987a19.176,19.176,0,0,1-2.822.128H43.448v-3.084h3.207a15.686,15.686,0,0,1,2.694.161V-23.6a15.418,15.418,0,0,1-2.726.161H43.448v-.418a17.558,17.558,0,0,1,.224-2.891H41.748a17.558,17.558,0,0,1,.224,2.891v.418H38.894A15.783,15.783,0,0,1,36.1-23.6v1.734a16.047,16.047,0,0,1,2.758-.161h3.111v3.084H40.048a23.469,23.469,0,0,1-2.95-.128,25.078,25.078,0,0,1,.128,3.019v5.075A25.588,25.588,0,0,1,37.1-7.895a24.149,24.149,0,0,1,3.079-.128h1.8v3.18H38.605A15.822,15.822,0,0,1,35.847-5v1.734a16.927,16.927,0,0,1,2.79-.161h3.335V-.668a18.508,18.508,0,0,1-.224,2.923h1.924a17.675,17.675,0,0,1-.224-2.923Zm0-5.942V-13h3.528v3.63Zm0-4.882v-3.34h3.528v3.34Zm-1.475-3.34v3.34h-3.3v-3.34Zm0,4.593v3.63h-3.3V-13Zm12.572-.707c-.385,1.7-.738,2.987-1.379,5.043A64.142,64.142,0,0,1,50.407-1.15a19.152,19.152,0,0,1-1.956.128,3.166,3.166,0,0,1-.481-.032l.449,1.9a16.856,16.856,0,0,1,1.8-.321c5.548-.8,8.338-1.285,11.674-1.959C62.338-.314,62.53.2,63.107,1.9l1.507-.835A78.059,78.059,0,0,0,59.323-10.5l-1.443.61a51.639,51.639,0,0,1,3.5,7.131c-2.694.546-4.49.8-9.268,1.381a78.462,78.462,0,0,0,4.169-12.334h5.516a16.508,16.508,0,0,1,2.758.161v-1.831a12.453,12.453,0,0,1-2.758.193H52.364a12.777,12.777,0,0,1-2.79-.193v1.831a16.692,16.692,0,0,1,2.79-.161ZM50.856-22a16.46,16.46,0,0,1,2.79-.161h6.991A18.226,18.226,0,0,1,63.4-22v-1.831a12.282,12.282,0,0,1-2.758.193H53.646a12.433,12.433,0,0,1-2.79-.193Zm20.3,17.827a13.905,13.905,0,0,1-2.245.353l.545,1.7a15.034,15.034,0,0,1,2.405-.739c1.026-.257,3.015-.835,3.977-1.156a6.325,6.325,0,0,0,.706-.225v3.4a19.516,19.516,0,0,1-.192,3.308h1.892a21.348,21.348,0,0,1-.192-3.244V-23.826a5.5,5.5,0,0,1,1.347.1V-25.4a11.781,11.781,0,0,1-2.181.128H71.446a12.355,12.355,0,0,1-2.181-.161V-23.7a9.883,9.883,0,0,1,1.892-.161ZM72.7-23.858h3.816v5.4H72.7Zm0,6.745h3.848v4.946H72.7Zm0,6.3h3.848v5.2q-2.117.626-3.848,1.06ZM85.46-22.991v-.45a12.625,12.625,0,0,1,.192-2.859H83.761a12.815,12.815,0,0,1,.192,2.827v.482h-2.02a12.611,12.611,0,0,1-2.437-.161v1.574c.609-.064.738-.064,1.668-.1a42.014,42.014,0,0,1,.866,4.69h-.513a17.222,17.222,0,0,1-2.758-.161v1.734a18.226,18.226,0,0,1,2.758-.161h9.493A39.759,39.759,0,0,0,92.548-5.486,22.835,22.835,0,0,1,85.621.97a4.436,4.436,0,0,1,1.187,1.124A23.7,23.7,0,0,0,93.093-3.88c1.283,3.373,2.822,5.4,4.073,5.4,1.219,0,1.828-1.478,2.277-5.589a4.509,4.509,0,0,1-1.475-1.06,25.246,25.246,0,0,1-.353,3.373C97.391-.8,97.2-.218,97.038-.218c0,0-.128-.1-.225-.161A4.7,4.7,0,0,1,95.851-1.6a16.373,16.373,0,0,1-1.7-3.79,27.415,27.415,0,0,0,2.726-5.589c.353-.931.545-1.478.738-1.863L96.108-13.8a20.616,20.616,0,0,1-2.5,6.585,46.191,46.191,0,0,1-1.122-8.351h2.405a22.394,22.394,0,0,1,3.5.193v-1.8a18.813,18.813,0,0,1-3.5.193H92.42c-.064-1.991-.1-4.079-.1-5.525a23.387,23.387,0,0,1,.16-3.726H90.656a12.291,12.291,0,0,1,.128,2.056c.032,4.143.032,4.143.16,7.195H87.192a33.576,33.576,0,0,0,1.122-4.69c.609.032.9.032,1.443.1V-23.12a13.88,13.88,0,0,1-2.534.128Zm-2.117,6.006a43.606,43.606,0,0,0-.738-4.69h4.3a24.962,24.962,0,0,1-1.09,4.69Zm5.42,6.745a24.777,24.777,0,0,1,.128-3.148,15.222,15.222,0,0,1-2.309.128H82.831a14.182,14.182,0,0,1-2.309-.128,31.1,31.1,0,0,1,.128,3.116V-2.82a22.494,22.494,0,0,1-.16,3.051h1.6V-2.434H86.07c1.507,0,2.02,0,2.758.064-.032-.514-.032-.61-.032-.964a7.272,7.272,0,0,0-.032-.835v-6.071Zm-6.671-1.7h5.26V-8.6h-5.26Zm0,4.593h5.26v3.6h-5.26ZM93.735-23.762A19.591,19.591,0,0,1,96.621-19.1l1.315-.867a23.3,23.3,0,0,0-3.047-4.5Zm24.919,4.336h6.414c1.571,0,2.534.032,3.592.128v-2.024a22.231,22.231,0,0,1-3.624.193H110.989a22.232,22.232,0,0,1-3.624-.193V-19.3c1.058-.1,2.02-.128,3.592-.128h5.773v14.55h-8.178a22.431,22.431,0,0,1-3.656-.193v2.056c1.09-.1,2.02-.128,3.624-.128H127.5c1.571,0,2.534.032,3.592.128V-5.068a22,22,0,0,1-3.624.193h-8.819Zm18.633,8.319a26.614,26.614,0,0,1,3.528-.128h19.178a27.316,27.316,0,0,1,3.5.128v-2.152a19.975,19.975,0,0,1-3.5.161H140.814a20.673,20.673,0,0,1-3.528-.161Zm38.036-11.4a32.227,32.227,0,0,1,7.7,4.208l1.09-1.734a46.889,46.889,0,0,0-7.761-4.047Zm-2.534,7.645a35.156,35.156,0,0,1,8.05,4.336l1.026-1.734a50.3,50.3,0,0,0-8.05-4.143Zm18.986-10.246A25.362,25.362,0,0,1,195.013-20l1.411-.835a28.947,28.947,0,0,0-3.335-5.011ZM173.622.521,174.873.2l1.764-.353a35.675,35.675,0,0,0,7.889-2.7c5.644-2.794,9.525-7.131,12.315-13.779a7.132,7.132,0,0,1-1.636-1.413,23.566,23.566,0,0,1-3.913,7.227,21.6,21.6,0,0,1-9.685,7.195,27.614,27.614,0,0,1-8.467,1.959Zm21.616-27.27a23.956,23.956,0,0,1,3.111,4.946l1.411-.835a29.3,29.3,0,0,0-3.239-4.882Zm22.546,13.812h6.125a8.278,8.278,0,0,1,1.732.161V-14.7a15.755,15.755,0,0,1-2.854.193H211.337a16.345,16.345,0,0,1-2.822-.193v1.927a18.9,18.9,0,0,1,2.822-.128h4.65V-1.663h-6.542a12.893,12.893,0,0,1-2.886-.193V.1a16.8,16.8,0,0,1,2.886-.161h15.266A21.806,21.806,0,0,1,227.629.1V-1.856a12.893,12.893,0,0,1-2.886.193h-6.959Zm22.546-8.03a36.556,36.556,0,0,1,7.537,6.231l1.347-1.574a40.333,40.333,0,0,0-7.6-6.039Zm0,20.782c.481-.161.706-.225,1.187-.353,5.035-1.092,7.6-1.991,10.615-3.694,5.131-2.923,8.787-7.131,11.642-13.426a5.15,5.15,0,0,1-1.6-1.542A24.475,24.475,0,0,1,249.052-4.908a27.354,27.354,0,0,1-9.3,2.473ZM281.123,1a20.9,20.9,0,0,1-.16-3.373V-12.713a9.926,9.926,0,0,0-.1-1.445l1.026.514a59.207,59.207,0,0,1,12.123,6.392l1.122-2.024a73.141,73.141,0,0,0-14.175-6.745V-22.06a20.431,20.431,0,0,1,.16-3.34h-2.341a18.565,18.565,0,0,1,.192,3.276V-2.306A19.257,19.257,0,0,1,278.782,1Zm26.715-18.565a15.927,15.927,0,0,1-2.309.193l.257,1.927a34.509,34.509,0,0,1,4.522-.867l2.085-.321A53.41,53.41,0,0,1,308.8-6.16a31.609,31.609,0,0,1-3.367,5.749l1.8,1.092c1.058-1.863,1.732-3.116,2.02-3.694a58.888,58.888,0,0,0,4.971-13.779,16.334,16.334,0,0,1,2.277-.161c3.271,0,4.265,1.092,4.265,4.593a25.888,25.888,0,0,1-1.347,9.154c-.449,1.124-1.09,1.67-1.924,1.67a12.034,12.034,0,0,1-4.779-1.542l.032.9a5.887,5.887,0,0,1-.064,1.028A12.061,12.061,0,0,0,317.491.2a3.221,3.221,0,0,0,2.983-1.478c1.283-1.863,2.085-6.039,2.085-10.889,0-2.634-.417-4.047-1.539-5.075a6,6,0,0,0-4.265-1.253c-.77,0-1.315.032-2.213.1l.257-1.381c.289-1.574.481-2.6.545-3.116l.224-1.221a8.146,8.146,0,0,1,.289-1.124l-2.149-.257v.418a43.549,43.549,0,0,1-.962,6.842c-1.539.225-2.181.289-2.726.385Zm16.933-1.831a26.065,26.065,0,0,1,6.574,11.21l1.636-1.028a28.877,28.877,0,0,0-6.735-11.049Zm5.163-7.355a23.956,23.956,0,0,1,3.111,4.946l1.411-.835a29.3,29.3,0,0,0-3.239-4.882Zm-3.464,1.638A25.364,25.364,0,0,1,329.71-20l1.411-.835a28.946,28.946,0,0,0-3.335-5.011Z" transform="translate(1314.544 213.52)" fill="#222"/>
  </g>
</svg>
