<svg xmlns="http://www.w3.org/2000/svg" width="444.98" height="194" viewBox="0 0 444.98 194">
  <g id="mv_mainTtl" transform="translate(-1029 -183)">
    <path id="パス_141335" data-name="パス 141335" d="M13.54-27.21v.575a37.356,37.356,0,0,1-.418,5.275A68.744,68.744,0,0,1,8.421-3.5,35.8,35.8,0,0,1,.95,7.887a28.1,28.1,0,0,1,7.157,5.327,49.61,49.61,0,0,0,9.247-16.87,95.9,95.9,0,0,0,3.97-17.705A37.56,37.56,0,0,1,22-25.7Zm15.777,1.462A30.211,30.211,0,0,1,30-21.778,91.1,91.1,0,0,0,34.751-2.872a55.719,55.719,0,0,0,8.933,16.138,26.8,26.8,0,0,1,6.948-5.641,46.259,46.259,0,0,1-6.06-8.67,61.441,61.441,0,0,1-5.485-14.467A72.721,72.721,0,0,1,37-27.21ZM92.74-30.709c-1.567,2.611-5.068,6.111-9.665,9.662A77.22,77.22,0,0,1,55.543-7.468a25.853,25.853,0,0,1,4.232,7.1c9.456-3.5,12.434-4.857,17.867-8.1V7.417a51.11,51.11,0,0,1-.313,7.573h8.62a65.109,65.109,0,0,1-.261-7.73V-13.317A88.385,88.385,0,0,0,97.912-23.972a17.744,17.744,0,0,1,1.985-1.88Zm30.614-.94a20.126,20.126,0,0,1-2.508,6.633A40.818,40.818,0,0,1,107.159-9.5a19.267,19.267,0,0,1,6.217,5.327A52.231,52.231,0,0,0,125.444-17.5l14.837-.157C136-4.491,127.847,3.709,113.741,9.193a20.214,20.214,0,0,1,5.381,6.737c8.307-3.813,14.262-8.043,18.964-13.423,4.545-5.171,8.2-12.221,10.71-20.369a11.431,11.431,0,0,1,1.358-3.395l-3.814-3.76a11.363,11.363,0,0,1-3.761.575L129-24.285c.575-1.149.784-1.619,1.254-2.664a23.212,23.212,0,0,1,1.515-3.081Zm45.608,9.714c1.62-.157,3.709-.261,7.053-.261h17.4a48.875,48.875,0,0,1,7,.261v-7.573c-1.881.366-2.873.418-7.1.418H176.171a40.9,40.9,0,0,1-7.209-.418ZM164.573-9.087a66.784,66.784,0,0,1,7.784-.261h23.77a25.732,25.732,0,0,1-8.254,11.333c-3.866,3.029-7.836,4.857-14.158,6.476a22.876,22.876,0,0,1,4.911,7.26c7.157-2.82,10.71-4.648,14.262-7.521,5.172-4.178,9.195-10.184,11.859-17.862a15.835,15.835,0,0,1,1.463-3.29l-3.5-3.865c-1.515.47-2.037.522-5.068.522H172.462a46.567,46.567,0,0,1-7.889-.366ZM261.065,8.044c-8.934-8.513-10.24-9.662-16.979-14.467a68.062,68.062,0,0,0,7.889-14.206,8.584,8.584,0,0,1,1.724-2.925l-4.023-4.178c-1.254.575-1.515.627-4.388.627l-17.815.313h-.993a38.912,38.912,0,0,1-6.374-.313l.1,7.939a47.072,47.072,0,0,1,7.314-.47L242.78-19.9c-1.2,2.664-2.09,4.544-2.769,5.693A48.209,48.209,0,0,1,226.324.889a47.209,47.209,0,0,1-11.6,6.372,23.619,23.619,0,0,1,5.015,6.946c7.941-3.865,14.837-9.035,19.486-14.572a93.024,93.024,0,0,1,15.516,15.2ZM290.007-22.98v1.985H279.559c-2.717,0-3.814-.052-5.224-.157a39.828,39.828,0,0,1,.209,4.387v9.923a39.21,39.21,0,0,1-.209,4.387c1.463-.1,2.612-.157,5.224-.157h22.046V-.522h-25.6a34.145,34.145,0,0,1-5.8-.313V5.432c1.724-.157,3.814-.261,5.642-.261h7.732l-4.6,3.447a38.564,38.564,0,0,1,7.523,7.207l5.329-4.283a34.769,34.769,0,0,0-7.1-6.372h16.874V9.3c0,.992-.314,1.149-2.246,1.149a50.042,50.042,0,0,1-5.851-.366,19.966,19.966,0,0,1,1.881,6.163c2.037.1,3.5.157,4.075.157,6.635,0,8.672-1.2,8.672-5.171V5.171h3.448c1.933,0,3.866.1,5.642.261V-.835a33.781,33.781,0,0,1-5.8.313h-3.291V-2.611c2.769,0,3.448.052,4.911.157a37.425,37.425,0,0,1-.209-4.387v-9.923a37.425,37.425,0,0,1,.209-4.387c-1.411.1-2.508.157-5.224.157H296.538V-22.98h14.994a54.622,54.622,0,0,1,5.642.261v-6.215a33.78,33.78,0,0,1-5.8.313H296.538a20.549,20.549,0,0,1,.313-3.6h-7.157a24.372,24.372,0,0,1,.313,3.6h-14a34.144,34.144,0,0,1-5.8-.313v6.215a43.008,43.008,0,0,1,5.642-.261Zm0,6.685v2.246h-8.933v-2.246Zm6.53,0h9.717v2.246h-9.717Zm-6.53,6.633v2.35h-8.933v-2.35Zm6.53,0h9.717v2.35h-9.717Zm36.622-.627h9.247c1.567,0,3.082.052,4.545.1-.052-1.045-.1-2.037-.1-4.6V-25.9c0-2.037.052-3.343.157-4.857a43.053,43.053,0,0,1-5.329.209H331.645a45.28,45.28,0,0,1-5.329-.209,58.859,58.859,0,0,1,.209,5.954V9.558a55.173,55.173,0,0,1-.313,6.737h7.262a50.654,50.654,0,0,1-.314-6.737Zm0-14.885h7.575v2.455H333.16Zm0,7.26h7.575v2.455H333.16Zm37.667-6.946c0-2.716.052-4.074.209-5.9a45.278,45.278,0,0,1-5.329.209h-10.5a43.6,43.6,0,0,1-5.329-.209c.1,1.567.157,3.081.157,4.857v11.177c0,2.246-.052,3.6-.1,4.648,1.254-.052,2.769-.1,4.545-.1h9.665V8.253c0,1.045-.314,1.253-1.881,1.253a67.01,67.01,0,0,1-7.053-.418,23.559,23.559,0,0,1,1.62,6.737c1.828,0,3.291.052,4.179.052,8.254,0,9.822-1.045,9.822-6.581Zm-14.576-.313h7.889v2.455h-7.889Zm0,7.26h7.889v2.559h-7.889Z" transform="translate(1028.05 215.224)" fill="#9b1613"/>
    <path id="パス_141337" data-name="パス 141337" d="M36.3-1.638V9.053c0,.736-.389,1-1.468,1A22.18,22.18,0,0,1,30,9.442,8.409,8.409,0,0,1,30.6,12a35.115,35.115,0,0,0,3.583.26c3.5,0,4.274-.563,4.274-2.986v-29.3a33.372,33.372,0,0,1,.173-4.068,32.9,32.9,0,0,1-3.971.173H28.786a31.558,31.558,0,0,1-3.971-.173,37.616,37.616,0,0,1,.173,4.631c0,9.262-.259,17.01-.734,20.256a17.557,17.557,0,0,1-4.4,10.128,6.2,6.2,0,0,1,1.813,1.6C24.858,8.4,26.2,4.681,26.671-1.638Zm0-10.387v8.483H26.8c.173-3.419.216-4.068.259-8.483Zm0-1.9H27.06l.043-2.164V-21.98H36.3ZM6.425-20.768h-.3a18.945,18.945,0,0,1-3.885-.26v2.337a21.091,21.091,0,0,1,3.885-.216h.3V.05H5.044A18.307,18.307,0,0,1,1.5-.166V2.171a19.144,19.144,0,0,1,3.54-.216H18.555c1.64,0,3.151.043,4.015.13V-.166A22,22,0,0,1,18.944.05V-18.907a25.855,25.855,0,0,1,3.756.173v-2.294a20.436,20.436,0,0,1-3.756.26v-.822a27.3,27.3,0,0,1,.259-4.242H16.656a25.534,25.534,0,0,1,.216,4.242v.822H8.5v-.822a30.029,30.029,0,0,1,.216-4.242H6.166a28.892,28.892,0,0,1,.259,4.242ZM8.5.05V-5.36h8.375V.05Zm0-7.228v-4.934h8.375v4.934Zm0-6.752v-4.977h8.375v4.977Zm0,17.7A13.093,13.093,0,0,1,6.037,7.235a17.708,17.708,0,0,1-4.058,3.289,5.321,5.321,0,0,1,1.684,1.731,25.023,25.023,0,0,0,6.691-7.4Zm5.741,1.039a24.131,24.131,0,0,0,4.23,4.8A6.07,6.07,0,0,1,20.11,8.1a14.834,14.834,0,0,1-4.274-4.415ZM70.66-19.253v6.1H63.148a27.476,27.476,0,0,1-4.23-.26v2.467a28.669,28.669,0,0,1,4.23-.26H76.962v5.41H62.933a27.639,27.639,0,0,1-4.187-.26v2.467a29.081,29.081,0,0,1,4.231-.26H76.962V8.793c0,.866-.3,1.039-1.727,1.039a29.72,29.72,0,0,1-5.482-.519,7.633,7.633,0,0,1,.561,2.467c1.6.087,2.979.173,4.1.173,3.842,0,4.792-.606,4.792-2.986V-3.845h2.029a28.265,28.265,0,0,1,4.23.26V-6.052a27.867,27.867,0,0,1-4.23.26H79.207V-11.2h2.029a27.867,27.867,0,0,1,4.23.26V-13.41a28.1,28.1,0,0,1-4.274.26H72.861v-6.1H79.6a34.818,34.818,0,0,1,3.971.216v-2.38a24.108,24.108,0,0,1-4.015.26H72.861v-1.861a23.019,23.019,0,0,1,.259-3.592H70.4a23.835,23.835,0,0,1,.259,3.592v1.861H64.746a23.532,23.532,0,0,1-3.971-.26v2.38a27.078,27.078,0,0,1,3.971-.216ZM56.673-26.784c-1.425,2.986-5.051,6.535-9.368,9.219a7.156,7.156,0,0,1,1.554,1.688,39.824,39.824,0,0,0,8.072-7.358A26.048,26.048,0,0,1,58.745-25.4ZM70.919,5.244A55.973,55.973,0,0,0,63.925-2.07L62.285-.729A35.257,35.257,0,0,1,69.019,6.8Zm-18.3,2.251a37.324,37.324,0,0,1-.259,5.021h2.72a36.3,36.3,0,0,1-.259-5.064V-10.467a43.107,43.107,0,0,0,2.849-3.939,17.182,17.182,0,0,1,1.166-1.818l-2.158-1.212c-1.166,3.549-5.526,8.829-9.886,11.989a6.1,6.1,0,0,1,1.425,1.861,21.747,21.747,0,0,0,4.576-4.761c-.13,1.9-.173,3.246-.173,5.064Zm53.572-26.921a60.647,60.647,0,0,1-9.238-.476l-.043,2.467a9.744,9.744,0,0,1,1.079-.043H98.5c1.6.043,5.828.13,6.6.13a4.688,4.688,0,0,0,.82-.043l-.173.26a1.882,1.882,0,0,0-.173.3C102.647-11.462,98.805-6.485,95.7-4.1L97.683-2.07a14.26,14.26,0,0,1,3.238-3.462c3.54-2.986,7.036-4.631,9.842-4.631,2.115,0,3.281,1.169,3.626,3.722a34.925,34.925,0,0,0-6.475,3.506C105.022-.815,103.6,1.392,103.6,3.686c0,4.328,3.669,6.449,11.224,6.449a62.427,62.427,0,0,0,10.317-.909,12.476,12.476,0,0,1,1.64-.173l-.389-2.77c-2.374.952-7.123,1.645-11.569,1.645-6,0-8.806-1.385-8.806-4.328,0-2.727,2.461-4.934,8.59-7.791a12.23,12.23,0,0,1,.043,1.342,53.3,53.3,0,0,1-.3,6.535h2.461a7.471,7.471,0,0,1-.086-1.342c0-.346,0-1.212.043-2.121.043-.822.043-1.818.043-2.51A27.9,27.9,0,0,0,116.72-5.1,68.071,68.071,0,0,1,128.333-9l-1.252-2.51a10.33,10.33,0,0,1-2.849,1.255c-1.9.649-5.267,1.948-7.77,2.943-.561-3.2-2.417-4.848-5.612-4.848A11.718,11.718,0,0,0,104.158-9.9c-.475.346-.475.346-2.158,1.688l-.086-.087a31.866,31.866,0,0,0,6.475-9.089A119.8,119.8,0,0,0,122.5-18.517c.82-.13,1.079-.173,1.727-.26l-.259-2.424c-2.029.736-6.518,1.342-11.871,1.6-2.374.13-2.374.13-2.763.173A24.13,24.13,0,0,0,110.72-22.5a7.353,7.353,0,0,1,1.166-2.38l-2.849-.606c-.13,1.342-.691,2.943-2.158,6.059Zm41.96,25.1A17.255,17.255,0,0,1,144,.18c.259-1.948.345-3.116.475-5.453a11.215,11.215,0,0,1,.086-1.385l-2.374-.216a11.786,11.786,0,0,1,.13,1.861A33.521,33.521,0,0,1,141.2,3.946a22.882,22.882,0,0,1-3.022,7.228,5.686,5.686,0,0,1,1.943,1.169,32.873,32.873,0,0,0,3.453-9.565,16.653,16.653,0,0,0,5.957,6.362c3.324,1.948,6.993,2.467,17.354,2.467,4.533,0,7.511-.043,10.663-.216a5.744,5.744,0,0,1,.907-2.51,103.734,103.734,0,0,1-12.907.563c-9.411,0-12.217-.39-15.282-2.164V-1.594h2.979a19.757,19.757,0,0,1,3.54.26V-3.672a21,21,0,0,1-3.5.216h-3.022V-9.991h2.763a24.331,24.331,0,0,1,4.058.26V-12.2a22.292,22.292,0,0,1-4.058.26h-2.849v-6.146h2.5a23.84,23.84,0,0,1,3.885.216v-2.38a19.954,19.954,0,0,1-3.885.216h-2.5v-1.9a26.294,26.294,0,0,1,.259-4.328H147.8a22.461,22.461,0,0,1,.259,4.328v1.9h-3.626a19.5,19.5,0,0,1-3.756-.216v2.38a23.079,23.079,0,0,1,3.756-.216h3.626v6.146h-4.187a23.646,23.646,0,0,1-4.187-.26v2.467a25.146,25.146,0,0,1,4.144-.26h4.317Zm16.145-27.7a15.091,15.091,0,0,1-1.6,6.882c-1.122,2.078-2.5,3.376-5.439,4.934a5.64,5.64,0,0,1,1.468,1.775c3.712-2.294,5.439-4.242,6.6-7.358a18.926,18.926,0,0,0,1.122-6.233H173.7c-.13,4.934-.432,8.31-.863,9.089-.345.606-.777.779-2.072.779a25.736,25.736,0,0,1-3.928-.346,6.2,6.2,0,0,1,.475,2.251c1.252.087,1.986.13,2.892.13,2.676,0,3.54-.26,4.23-1.3.777-1.125,1.079-3.333,1.381-10.474.086-1.169.086-1.515.173-2.207a32.667,32.667,0,0,1-4.058.173h-9.756a24.56,24.56,0,0,1-4.23-.26v2.424a23.979,23.979,0,0,1,4.058-.26ZM159.068,1.825A28.772,28.772,0,0,1,158.9,5.85a33.26,33.26,0,0,1,4.576-.216h7.641a33.949,33.949,0,0,1,4.619.216,30.465,30.465,0,0,1-.173-4.242V-3.066a29.042,29.042,0,0,1,.173-4.112,33.565,33.565,0,0,1-4.619.216h-7.77a30.5,30.5,0,0,1-4.446-.216,26.618,26.618,0,0,1,.173,3.9Zm2.158-6.838H173.4v8.7H161.227Zm34.232-17.356c4.964,1.645,8.418,2.337,15.627,3.03l.518-2.38a49.944,49.944,0,0,1-15.152-2.727ZM191.7-11.333c1.209-.173,1.511-.173,2.676-.26,7.986-.476,11.7-.866,14.634-1.472l.043.043c-1.468,1.342-3.281,3.116-6.6,6.406C191.574,4.205,189.545,6.11,187.3,7.668l1.986,2.207c1.468-1.688,4.49-4.8,6.6-6.752,3.54-3.289,5.741-4.5,8.072-4.5a2.107,2.107,0,0,1,1.986,1.039c.3.563.389,1.082.518,3.116.259,3.116.389,3.9.863,4.761.95,1.688,2.763,2.467,5.957,2.467a43.678,43.678,0,0,0,7.986-.952,9.318,9.318,0,0,1,1.252-.173l-.432-2.727a23.36,23.36,0,0,1-8.806,1.6c-2.115,0-3.151-.346-3.756-1.3-.432-.693-.561-1.428-.777-4.328-.173-2.121-.345-2.986-.907-3.809a3.819,3.819,0,0,0-3.281-1.6c-1.338,0-2.288.346-4.576,1.688l-.043-.087a83.358,83.358,0,0,0,8.72-7.964,44.619,44.619,0,0,1,3.885-3.722l-1.64-1.991a7.787,7.787,0,0,1-2.029.476c-3.367.476-11.31,1.039-14.893,1.039-.82,0-1.381-.043-2.5-.087Zm45.025-8.613a15.306,15.306,0,0,1,2.374-.26c5.353-.173,11.914-.519,13.209-.693a1.785,1.785,0,0,1,.648-.087v.043c-.216.216-.648.693-.734.779-5.353,5.5-17.051,15.451-20.937,17.789l1.6,2.251a27.929,27.929,0,0,1,18.26-7.444c5.957,0,9.54,2.554,9.54,6.8,0,3.939-2.59,6.709-7.382,8.007a13.566,13.566,0,0,0-1.986-4.2,8.528,8.528,0,0,0-7.036-3.549c-3.54,0-5.957,2.034-5.957,4.977,0,3.636,3.453,5.8,9.324,5.8,9.411,0,15.584-4.371,15.584-11.037,0-5.367-4.619-8.873-11.742-8.873A20.746,20.746,0,0,0,240.4-6.658l-.129-.173c.561-.346,1.9-1.3,2.461-1.731,1.986-1.558,7.813-6.709,10.145-9.046,3.583-3.549,3.583-3.549,4.187-3.809l-1.554-2.034a4.778,4.778,0,0,1-1.943.433c-3.928.346-9.454.563-13.469.563a19.144,19.144,0,0,1-3.54-.216Zm14.2,27.787a15.315,15.315,0,0,1-3.41.346,11.241,11.241,0,0,1-5.051-1.039,2.962,2.962,0,0,1-1.856-2.77c0-1.731,1.425-2.857,3.712-2.857C247.65,1.522,249.895,3.686,250.931,7.841ZM292.243-5.836v4.458h-3.626a23.583,23.583,0,0,1-4.1-.216V.613a23.891,23.891,0,0,1,4.1-.216H308a25.981,25.981,0,0,1,4.23.216V-1.594a25.657,25.657,0,0,1-4.23.216h-4.23V-5.836h2.849a24.892,24.892,0,0,1,4.058.216V-7.784a22.49,22.49,0,0,1-3.971.216h-2.935a23.578,23.578,0,0,1,.216-2.9h-2.461a22.89,22.89,0,0,1,.216,2.9h-7.468a23.553,23.553,0,0,1,.216-2.9h-2.461a25.04,25.04,0,0,1,.216,2.9h-1.9a22.448,22.448,0,0,1-4.015-.216v2.164a24.569,24.569,0,0,1,4.058-.216Zm2.029,0h7.468v4.458h-7.468ZM296.6-22.759a18.31,18.31,0,0,1,.13-2.38,25.034,25.034,0,0,1-3.8.173h-4.446a19.028,19.028,0,0,1-3.41-.216v2.207a19.323,19.323,0,0,1,3.41-.216h6.173v3.679h-6.648a20.119,20.119,0,0,1-2.676-.13,17.143,17.143,0,0,1,.13,2.337v3.116c0,2.294.6,2.554,5.871,2.554,3.54,0,4.576-.173,5.137-.779.6-.649.907-1.558,1.166-3.679a6.449,6.449,0,0,1-1.9-.952,9.707,9.707,0,0,1-.432,2.943c-.345.606-1.036.736-4.533.736-2.979,0-3.324-.13-3.324-1.342v-3.16H294.1a21.7,21.7,0,0,1,2.633.13,15.622,15.622,0,0,1-.13-2.294Zm14.246,0a17.407,17.407,0,0,1,.13-2.38,25.718,25.718,0,0,1-3.842.173h-4.4a19.029,19.029,0,0,1-3.41-.216v2.207a18.8,18.8,0,0,1,3.367-.216h6.173v3.679h-6.648a19.676,19.676,0,0,1-2.676-.13,20.85,20.85,0,0,1,.129,2.38v3.073c0,2.294.6,2.554,5.741,2.554,6.087,0,6.346-.173,6.864-4.458a7.733,7.733,0,0,1-1.9-.952c-.13,1.818-.345,2.77-.691,3.16s-1.425.519-4.749.519a11.1,11.1,0,0,1-2.72-.216c-.475-.173-.561-.39-.561-1.125v-3.16H308.3a21.992,21.992,0,0,1,2.676.13,15.222,15.222,0,0,1-.13-2.294ZM293.667.959a22.684,22.684,0,0,1-7.986,4.848,5.5,5.5,0,0,1,1.727,1.558,28.817,28.817,0,0,0,7.986-5.28Zm6.993,1.3a34.484,34.484,0,0,0,9.195,5.367,6.681,6.681,0,0,1,1.6-1.775,30.313,30.313,0,0,1-9.108-4.761ZM275.277-23.668a38.265,38.265,0,0,1,6.13,7.4l1.813-1.558a54.334,54.334,0,0,0-6.346-7.228Zm-.863,16.88A16.8,16.8,0,0,1,277.609-7h2.763V3.729c-2.849,2.9-4.835,4.5-6.821,5.453l1.252,2.294a15.626,15.626,0,0,1,1.468-1.255c1.425-1.255,1.425-1.255,1.986-1.775,1.036-.909,1.77-1.645,3.065-2.986a10.43,10.43,0,0,0,4.619,4.285c2.5,1.212,4.878,1.515,11.526,1.515,5.741,0,10.576-.087,15.152-.26a8.007,8.007,0,0,1,.907-2.64,128.283,128.283,0,0,1-17.052.822c-5.223,0-7.77-.346-9.972-1.3-1.943-.866-2.892-1.861-3.972-4.2v-8.31a31.408,31.408,0,0,1,.216-4.5,19.9,19.9,0,0,1-3.281.216h-1.77a16.957,16.957,0,0,1-3.281-.216ZM326.864-15.7V-5.576a26.74,26.74,0,0,1-6.6,2.164l.777,2.467a22.075,22.075,0,0,1,2.158-.952c2.763-1.082,2.763-1.082,3.669-1.428V8.836c0,.952-.345,1.212-1.64,1.212a38.02,38.02,0,0,1-4.662-.3A5.651,5.651,0,0,1,321.079,12c1.727.087,3.238.13,4.274.13,2.633,0,3.712-.822,3.712-2.727V-4.278c2.547-1.082,3.108-1.342,5.267-2.424V-8.866c-2.029,1.039-3.065,1.472-4.187,1.948a8.891,8.891,0,0,1-1.079.433V-15.7h2.288a25.211,25.211,0,0,1,3.324.216v-2.38a18.15,18.15,0,0,1-3.238.216h-2.374V-22.11a27.075,27.075,0,0,1,.259-4.2H326.6a26.692,26.692,0,0,1,.259,4.2v4.458h-2.5a25.6,25.6,0,0,1-3.756-.26v2.467a26.126,26.126,0,0,1,3.8-.26Zm19.124,7.185c1.554,9.868,4.4,15.495,10.706,20.9a7.147,7.147,0,0,1,1.77-1.991,24.34,24.34,0,0,1-7.382-8.743,29,29,0,0,1-2.892-10.171h3.669a39.3,39.3,0,0,1,4.23.173,43.587,43.587,0,0,1-.173-4.588V-19.34a46.9,46.9,0,0,1,.173-4.718,42.874,42.874,0,0,1-4.533.173h-9.972c-2.115,0-3.238-.043-4.705-.173.13,1.645.173,3.419.173,6.492,0,9.652-.6,16.1-1.986,20.212a18.438,18.438,0,0,1-4.662,7.7,6.754,6.754,0,0,1,1.813,1.688,22.877,22.877,0,0,0,5.267-9.608,49.511,49.511,0,0,0,1.511-10.95Zm-6.907-1.948c.173-6.406.173-6.406.173-8.44v-2.986h14.461v11.426ZM376.723-2.33V8.663c0,1.125-.216,1.342-1.468,1.342a17.228,17.228,0,0,1-3.324-.476,7.182,7.182,0,0,1,.432,2.294c1.295.13,2.245.173,2.979.173,2.72,0,3.5-.692,3.5-3.16V-20.552a35.226,35.226,0,0,1,.173-4.458,20.691,20.691,0,0,1-3.5.216h-3.54a23.487,23.487,0,0,1-3.712-.216,78.722,78.722,0,0,1,.216,8.31c0,9.868-.345,16.75-1.036,20.472a18.531,18.531,0,0,1-2.633,7.1,6.649,6.649,0,0,1,1.813,1.688c2.331-3.939,3.151-7.271,3.626-14.889Zm0-12.162H370.55l.043-1.688v-6.665h6.13Zm0,1.861v8.44h-6.346c.086-1.688.086-1.991.13-5.15,0-.693,0-1.861.043-3.289Zm13.9-4.8v6.925h-5.569a31.8,31.8,0,0,1-4.015-.216v2.38a23.364,23.364,0,0,1,3.108-.216A31.648,31.648,0,0,0,390.71,2.994a32.327,32.327,0,0,1-11.569,7.1,9.375,9.375,0,0,1,1.338,2.078,35.429,35.429,0,0,0,11.7-7.574,34.119,34.119,0,0,0,11.742,7.834,10.637,10.637,0,0,1,1.511-2.207,30.565,30.565,0,0,1-11.742-7.185,36.135,36.135,0,0,0,6.648-10.214c.388-.909.734-1.731.95-2.121l-1.338-1.385a15.2,15.2,0,0,1-2.979.173h-4.187v-6.925h6.993a28.97,28.97,0,0,1,4.36.26v-2.554a29.609,29.609,0,0,1-4.4.26h-6.95v-2.38a27.641,27.641,0,0,1,.259-4.371h-2.676a29.2,29.2,0,0,1,.259,4.371v2.38h-5.741a29.772,29.772,0,0,1-4.36-.26v2.554a30.84,30.84,0,0,1,4.4-.26Zm7.9,8.873a30.783,30.783,0,0,1-6.3,10.041,28.483,28.483,0,0,1-5.914-10.041Zm25.815-10.864A60.647,60.647,0,0,1,415.1-19.9l-.043,2.467a9.746,9.746,0,0,1,1.079-.043h.518c1.6.043,5.828.13,6.6.13a4.688,4.688,0,0,0,.82-.043l-.173.26a1.881,1.881,0,0,0-.173.3C420.8-11.462,416.956-6.485,413.848-4.1l1.986,2.034a14.261,14.261,0,0,1,3.238-3.462c3.54-2.986,7.036-4.631,9.842-4.631,2.115,0,3.281,1.169,3.626,3.722a34.924,34.924,0,0,0-6.475,3.506c-2.892,2.121-4.317,4.328-4.317,6.622,0,4.328,3.669,6.449,11.224,6.449a62.428,62.428,0,0,0,10.317-.909,12.475,12.475,0,0,1,1.64-.173l-.389-2.77c-2.374.952-7.123,1.645-11.569,1.645-6,0-8.806-1.385-8.806-4.328,0-2.727,2.461-4.934,8.591-7.791a12.232,12.232,0,0,1,.043,1.342,53.3,53.3,0,0,1-.3,6.535h2.461a7.469,7.469,0,0,1-.086-1.342c0-.346,0-1.212.043-2.121.043-.822.043-1.818.043-2.51a27.892,27.892,0,0,0-.086-2.813A68.07,68.07,0,0,1,446.483-9l-1.252-2.51a10.331,10.331,0,0,1-2.849,1.255c-1.9.649-5.267,1.948-7.77,2.943-.561-3.2-2.417-4.848-5.612-4.848A11.718,11.718,0,0,0,422.309-9.9c-.475.346-.475.346-2.158,1.688l-.086-.087a31.867,31.867,0,0,0,6.475-9.089,119.8,119.8,0,0,0,14.116-1.125c.82-.13,1.079-.173,1.727-.26l-.259-2.424c-2.029.736-6.518,1.342-11.871,1.6-2.374.13-2.374.13-2.763.173A24.138,24.138,0,0,0,428.87-22.5a7.353,7.353,0,0,1,1.165-2.38l-2.849-.606c-.13,1.342-.691,2.943-2.158,6.059Z" transform="translate(1027.496 364.441)" fill="#222"/>
    <path id="パス_141336" data-name="パス 141336" d="M22.515-20.8a13.468,13.468,0,0,1,5.2,1.046A11.757,11.757,0,0,1,34.947-8.469a13.323,13.323,0,0,1-6.931,11.94A24.575,24.575,0,0,1,20.046,6,5.657,5.657,0,0,1,21.3,8.438a30.277,30.277,0,0,0,7.147-2.4A15.637,15.637,0,0,0,37.5-8.425,14.2,14.2,0,0,0,33.3-18.84c-2.729-2.7-6.844-4.183-11.566-4.183-5.718,0-10.4,1.917-13.775,5.752a17.809,17.809,0,0,0-4.5,11.809C3.456.377,6.4,4.778,10.3,4.778c3.032,0,5.545-2.615,8.014-8.41A64.66,64.66,0,0,0,22.515-20.8Zm-2.556.044A62.249,62.249,0,0,1,15.931-4.242C13.982.159,12.163,2.25,10.257,2.25,7.788,2.25,5.882-1.1,5.882-5.419a15.346,15.346,0,0,1,7.407-13.334A14.822,14.822,0,0,1,19.96-20.757Z" transform="translate(1415.89 216.194)" fill="#222"/>
    <path id="パス_141339" data-name="パス 141339" d="M46.113,5.161h3.942a21.336,21.336,0,0,1,3.682.218V3.026a20.792,20.792,0,0,1-3.639.218H46.113V-1.07h2.9A27.509,27.509,0,0,1,52.957-.9c-.087-1-.13-2.222-.13-4.227v-6.885c0-1.874.043-3.094.13-4.053a25.788,25.788,0,0,1-3.812.174H46.113v-4.183h4.332a21.1,21.1,0,0,1,3.639.218V-22.2a20.735,20.735,0,0,1-3.682.218H46.113v-.566a23.923,23.923,0,0,1,.3-3.922h-2.6a23.923,23.923,0,0,1,.3,3.922v.566H39.962a21.225,21.225,0,0,1-3.769-.218v2.353a21.581,21.581,0,0,1,3.725-.218h4.2v4.183h-2.6a31.56,31.56,0,0,1-3.985-.174,34.171,34.171,0,0,1,.173,4.1v6.885A34.866,34.866,0,0,1,37.537-.9,32.474,32.474,0,0,1,41.7-1.07h2.426V3.244H39.572a21.278,21.278,0,0,1-3.725-.218V5.379a22.763,22.763,0,0,1,3.769-.218h4.5V8.909a25.216,25.216,0,0,1-.3,3.965h2.6a24.082,24.082,0,0,1-.3-3.965Zm0-8.061V-7.824h4.765V-2.9Zm0-6.623v-4.532h4.765v4.532Zm-1.993-4.532v4.532H39.659v-4.532Zm0,6.231V-2.9H39.659V-7.824ZM61.1-8.783c-.52,2.309-1,4.053-1.863,6.841a87.264,87.264,0,0,1-3.725,10.2,25.755,25.755,0,0,1-2.642.174,4.258,4.258,0,0,1-.65-.044l.606,2.571a22.677,22.677,0,0,1,2.426-.436c7.494-1.089,11.262-1.743,15.767-2.658.606,1.525.866,2.222,1.646,4.532L74.7,11.262A106.122,106.122,0,0,0,67.555-4.425L65.606-3.6a70.186,70.186,0,0,1,4.722,9.674c-3.639.741-6.064,1.089-12.519,1.874A106.77,106.77,0,0,0,63.44-8.783h7.451a22.2,22.2,0,0,1,3.725.218v-2.484a16.748,16.748,0,0,1-3.725.261H58.155a17.183,17.183,0,0,1-3.769-.261v2.484a22.448,22.448,0,0,1,3.769-.218ZM56.12-20.025a22.136,22.136,0,0,1,3.769-.218h9.443a24.511,24.511,0,0,1,3.725.218v-2.484a16.518,16.518,0,0,1-3.725.261H59.888a16.72,16.72,0,0,1-3.769-.261ZM83.539,4.159a18.7,18.7,0,0,1-3.032.479l.736,2.309a20.24,20.24,0,0,1,3.249-1c1.386-.349,4.072-1.133,5.371-1.569a8.516,8.516,0,0,0,.953-.305V8.691a26.589,26.589,0,0,1-.26,4.488h2.556a29.088,29.088,0,0,1-.26-4.4V-22.509a7.392,7.392,0,0,1,1.819.131v-2.266a15.843,15.843,0,0,1-2.946.174h-7.8a16.616,16.616,0,0,1-2.946-.218v2.353a13.291,13.291,0,0,1,2.556-.218Zm2.079-26.712h5.155v7.321H85.618Zm0,9.151h5.2v6.711h-5.2Zm0,8.541h5.2V2.2q-2.859.85-5.2,1.438Zm17.24-16.515v-.61a17.2,17.2,0,0,1,.26-3.878h-2.556a17.46,17.46,0,0,1,.26,3.835v.654H98.094a16.96,16.96,0,0,1-3.292-.218v2.135c.823-.087,1-.087,2.252-.131a57.224,57.224,0,0,1,1.17,6.362h-.693a23.161,23.161,0,0,1-3.725-.218v2.353a24.51,24.51,0,0,1,3.725-.218h12.822a54.157,54.157,0,0,0,2.079,13.683,30.9,30.9,0,0,1-9.356,8.759,6,6,0,0,1,1.6,1.525,32.065,32.065,0,0,0,8.49-8.105c1.733,4.575,3.812,7.321,5.5,7.321,1.646,0,2.469-2,3.075-7.582a6.09,6.09,0,0,1-1.993-1.438,34.4,34.4,0,0,1-.476,4.575c-.3,1.307-.563,2.092-.78,2.092,0,0-.173-.131-.3-.218a6.376,6.376,0,0,1-1.3-1.656A22.261,22.261,0,0,1,114.6,2.5a37.26,37.26,0,0,0,3.682-7.582c.476-1.264.736-2,1-2.527L117.24-8.913A28.044,28.044,0,0,1,113.861.02a62.924,62.924,0,0,1-1.516-11.33h3.249a30.116,30.116,0,0,1,4.722.261v-2.44a25.3,25.3,0,0,1-4.722.261h-3.335c-.087-2.7-.13-5.534-.13-7.495a31.865,31.865,0,0,1,.217-5.055h-2.469a16.748,16.748,0,0,1,.173,2.789c.043,5.621.043,5.621.217,9.761H105.2a45.72,45.72,0,0,0,1.516-6.362c.823.044,1.213.044,1.949.131V-21.55a18.666,18.666,0,0,1-3.422.174ZM100-13.227a59.4,59.4,0,0,0-1-6.362h5.8a33.989,33.989,0,0,1-1.473,6.362Zm7.321,9.151a33.762,33.762,0,0,1,.173-4.27,20.47,20.47,0,0,1-3.119.174H99.307a19.072,19.072,0,0,1-3.119-.174c.13,1.394.173,2.571.173,4.227V5.989a30.65,30.65,0,0,1-.217,4.14H98.31V6.512h5.371c2.036,0,2.729,0,3.725.087-.043-.7-.043-.828-.043-1.307a9.91,9.91,0,0,0-.043-1.133V-4.077ZM98.31-6.386h7.1v4.532h-7.1Zm0,6.231h7.1v4.88h-7.1Zm15.724-22.267a26.6,26.6,0,0,1,3.9,6.318l1.776-1.177a31.611,31.611,0,0,0-4.115-6.1Zm33.657,5.883h8.663c2.123,0,3.422.044,4.851.174V-19.11a29.9,29.9,0,0,1-4.895.261H137.339a29.9,29.9,0,0,1-4.895-.261v2.745c1.429-.131,2.729-.174,4.851-.174h7.8V3.2H134.047a30.166,30.166,0,0,1-4.938-.261V5.728c1.473-.131,2.729-.174,4.895-.174h25.644c2.123,0,3.422.044,4.852.174V2.939A29.585,29.585,0,0,1,159.6,3.2H147.692ZM172.859-5.253a35.79,35.79,0,0,1,4.765-.174h25.9a36.735,36.735,0,0,1,4.722.174v-2.92a26.863,26.863,0,0,1-4.722.218h-25.9a27.8,27.8,0,0,1-4.765-.218Zm51.374-15.469a43.471,43.471,0,0,1,10.4,5.708l1.473-2.353a63.234,63.234,0,0,0-10.483-5.49Zm-3.422,10.371a47.418,47.418,0,0,1,10.873,5.883l1.386-2.353A67.832,67.832,0,0,0,222.2-12.443Zm25.644-13.9a34.428,34.428,0,0,1,4.375,6.928l1.906-1.133a39.284,39.284,0,0,0-4.5-6.8ZM221.937,10.521l1.689-.436,2.382-.479a48.041,48.041,0,0,0,10.656-3.66c7.624-3.791,12.865-9.674,16.634-18.694a9.643,9.643,0,0,1-2.209-1.917,32.015,32.015,0,0,1-5.285,9.8A29.185,29.185,0,0,1,232.723,4.9c-4.245,1.612-8.707,2.658-11.436,2.658Zm29.2-37a32.521,32.521,0,0,1,4.2,6.711L257.24-20.9a39.76,39.76,0,0,0-4.375-6.623ZM281.584-7.737h8.274a11.134,11.134,0,0,1,2.339.218v-2.615a21.188,21.188,0,0,1-3.855.261H272.878a21.98,21.98,0,0,1-3.812-.261v2.615a25.411,25.411,0,0,1,3.812-.174h6.281V7.558h-8.837a17.339,17.339,0,0,1-3.9-.261V9.955a22.587,22.587,0,0,1,3.9-.218h20.619a29.325,29.325,0,0,1,3.942.218V7.3a17.339,17.339,0,0,1-3.9.261h-9.4Zm30.452-10.894a49.424,49.424,0,0,1,10.18,8.454l1.819-2.135A54.519,54.519,0,0,0,313.769-20.5Zm0,28.193c.65-.218.953-.305,1.6-.479,6.8-1.482,10.266-2.7,14.338-5.011C334.907.107,339.845-5.6,343.7-14.142a6.97,6.97,0,0,1-2.166-2.092C338.07-7.083,332.222-.678,323.818,3.157c-4.028,1.874-9.443,3.312-12.562,3.355Zm55.1,1.612a28.464,28.464,0,0,1-.217-4.575V-7.432a13.529,13.529,0,0,0-.13-1.961l1.386.7A79.852,79.852,0,0,1,384.549-.024l1.516-2.745a98.6,98.6,0,0,0-19.146-9.151v-8.192a27.832,27.832,0,0,1,.217-4.532h-3.162a25.3,25.3,0,0,1,.26,4.445V6.687a26.241,26.241,0,0,1-.26,4.488Zm36.083-25.187a21.42,21.42,0,0,1-3.119.261l.347,2.615a46.429,46.429,0,0,1,6.108-1.177l2.816-.436a72.675,72.675,0,0,1-4.852,14.206,42.923,42.923,0,0,1-4.548,7.8l2.426,1.482c1.429-2.527,2.339-4.227,2.729-5.011a80.121,80.121,0,0,0,6.714-18.694,21.965,21.965,0,0,1,3.075-.218c4.418,0,5.761,1.482,5.761,6.231,0,5.055-.65,9.587-1.819,12.419-.606,1.525-1.473,2.266-2.6,2.266A16.2,16.2,0,0,1,409.8,5.641l.043,1.22a8.021,8.021,0,0,1-.087,1.394,16.234,16.234,0,0,0,6.5,1.83,4.345,4.345,0,0,0,4.029-2C422.018,5.554,423.1-.111,423.1-6.691c0-3.573-.563-5.49-2.079-6.885-1.3-1.177-3.076-1.7-5.761-1.7-1.04,0-1.776.044-2.989.131l.347-1.874c.39-2.135.65-3.53.736-4.227l.3-1.656a11.088,11.088,0,0,1,.39-1.525l-2.9-.349v.566a59.324,59.324,0,0,1-1.3,9.282c-2.079.305-2.946.392-3.682.523ZM426.089-16.5a35.4,35.4,0,0,1,8.88,15.208l2.209-1.394a39.207,39.207,0,0,0-9.1-14.99Zm6.974-9.979a32.518,32.518,0,0,1,4.2,6.711l1.906-1.133A39.763,39.763,0,0,0,434.8-27.52Zm-4.678,2.222a34.429,34.429,0,0,1,4.375,6.928l1.906-1.133a39.282,39.282,0,0,0-4.5-6.8Z" transform="translate(993.152 291.919)" fill="#222"/>
  </g>
</svg>
