<svg xmlns="http://www.w3.org/2000/svg" xmlns:xlink="http://www.w3.org/1999/xlink" width="174" height="44" viewBox="0 0 174 44">
  <defs>
    <linearGradient id="linear-gradient" y1="0.5" x2="1" y2="0.5" gradientUnits="objectBoundingBox">
      <stop offset="0" stop-color="#6e5927"/>
      <stop offset="1" stop-color="#c3a45f"/>
    </linearGradient>
  </defs>
  <g id="mv_subTtl" transform="translate(-570 -749)">
    <rect id="長方形_9670" data-name="長方形 9670" width="174" height="44" transform="translate(570 749)" fill="url(#linear-gradient)"/>
    <path id="パス_141338" data-name="パス 141338" d="M-51.335-16.037c-.055-1.713-.055-2.431-.055-3.564a24.562,24.562,0,0,1,.165-3.951H-54.6a16.671,16.671,0,0,1,.11,2.21h-2.992a15,15,0,0,1,.11-2.266h-3.459a11.132,11.132,0,0,1,.137,2.266h-1.235a11.651,11.651,0,0,1-1.482-.083v-1.6a15,15,0,0,1-2.553.138h-4.118a13.49,13.49,0,0,1-2.5-.166V-19.6a10.718,10.718,0,0,1,1.071-.111V-4.846a7.636,7.636,0,0,1-1.345.166l.686,3.537c.412-.166.467-.166,1.757-.553,1.071-.276,2.169-.635,3.349-1.022V-.951A22.782,22.782,0,0,1-67.2,2.089h3.212a20.175,20.175,0,0,1-.137-3.012V-12.887h9.8a38.452,38.452,0,0,0,1.016,8.179,20.849,20.849,0,0,1-1.867,2.155v-6.99c0-1.437,0-1.741.055-2.4a11.894,11.894,0,0,1-1.7.083h-4.584a8.494,8.494,0,0,1-1.674-.083A20.635,20.635,0,0,1-63-9.544v7.819a21.911,21.911,0,0,1-.11,2.376h2.91V-1.006h3.321c-.275.193-.357.276-.659.47A12.822,12.822,0,0,1-55.48,2.116,21.865,21.865,0,0,0-52.1-1.337c.961,1.851,2.169,2.929,3.294,2.929A1.992,1.992,0,0,0-46.97.238a12.241,12.241,0,0,0,.851-4.172,9.129,9.129,0,0,1-2.306-1.6,10.959,10.959,0,0,1-.384,3.15c-.384-.332-.6-.774-1.1-2.128a34.423,34.423,0,0,0,2-4.034c.494-1.188.576-1.354.824-1.851l-2.58-1.658A15.4,15.4,0,0,1-50.868-8.77c-.137-1.05-.247-2.376-.357-4.117h1.29a21.5,21.5,0,0,1,3.1.138V-16.2a17.4,17.4,0,0,1-3.1.166Zm-4.639,0c.192-.884.3-1.52.467-2.625h1.016c.027,1.409.027,2.266.027,2.625Zm-3.651,0c-.11-1.271-.192-1.824-.329-2.625H-58.2c-.082.884-.192,1.741-.357,2.625Zm-4.118,0h-.384v-3.675a3.477,3.477,0,0,0,.549.028v1.105c.384-.055.494-.055.878-.083a15.968,15.968,0,0,1,.412,2.625Zm-4.831-3.675h1.565v2.735h-1.565Zm0,5.637h1.565v2.542h-1.565Zm0,5.443h1.565v2.708c-.741.221-.906.249-1.565.414Zm8.345-.58h2.416v1.52h-2.416Zm-.027,3.868h2.443v1.63h-2.443Zm9.031-15.943a18.323,18.323,0,0,1,1.894,4.5l2.553-1.464A19.16,19.16,0,0,0-48.81-22.53Zm16.662,5.029c.412-.055,1.537-.083,2.443-.083h3.788v.995h-3.074c-1.373,0-1.922-.028-2.553-.083.027.635.055,1.188.055,2.459v4.227c0,1.326-.027,1.962-.055,2.625A21.229,21.229,0,0,1-31.681-6.2h3.349v1.078h-3.321A22.586,22.586,0,0,1-34.4-5.233v2.818c.769-.055,1.455-.083,2.718-.083h3.349v1.133h-3.953c-1.29,0-2.443-.055-3.074-.111V1.536A22.733,22.733,0,0,1-32.2,1.37h11.09a24.025,24.025,0,0,1,3.184.166V-1.5a28.882,28.882,0,0,1-3.02.138H-25.12V-2.5h3.569c.988,0,1.812.028,2.69.111V-5.233a20.954,20.954,0,0,1-2.718.111H-25.12V-6.2h3.678c1.153,0,1.565.028,2.333.083a20.667,20.667,0,0,1-.11-2.542V-13.08a17.314,17.314,0,0,1,.11-2.349c-.714.055-1.263.083-2.718.083H-25.12v-.995h4.612a16.269,16.269,0,0,1,2.525.138v-2.984a19.932,19.932,0,0,1-2.772.166H-25.12v-1.105c2.278-.166,4.5-.442,5.847-.691a7.8,7.8,0,0,1,.769-.138l-2.031-2.735c-1.7.663-6.78,1.188-11.309,1.188-.384,0-1.263,0-2.388-.028a10.135,10.135,0,0,1,1.125,2.652c2.443,0,3.349-.028,4.776-.083v.939h-3.843c-1.071,0-2-.055-2.58-.111v2.6a11.508,11.508,0,0,1-1.51.083h-.384v-3.481c.851-.249,1.016-.3,1.263-.387.961-.387,1.345-.525,1.427-.553l-1.7-2.956a6.492,6.492,0,0,1-1.071.525,27.516,27.516,0,0,1-6.753,1.575,16.742,16.742,0,0,1,1.18,3.095c1.208-.221,1.537-.276,2.361-.442v2.625h-1.263a14.478,14.478,0,0,1-1.976-.138v3.454a13.255,13.255,0,0,1,1.894-.138h1.071a21.1,21.1,0,0,1-3.651,6.852,12.9,12.9,0,0,1,1.51,3.509,16.775,16.775,0,0,0,2.525-5.056c-.027.3-.055,1.354-.11,3.177V-1.2a28.821,28.821,0,0,1-.165,3.288h3.6A26.25,26.25,0,0,1-36.649-1.2V-6.228c0-.995-.055-2.321-.11-2.984a13.1,13.1,0,0,0,1.4,2.487,10.114,10.114,0,0,1,1.318-3.067,11.317,11.317,0,0,1-2.5-3.481h.22a11.065,11.065,0,0,1,1.757.111Zm6.231,3.233v1.133H-30.8v-1.133Zm0,3.288v1.216H-30.8V-9.737Zm3.212,1.216V-9.737h2.8v1.216Zm0-3.371v-1.133h2.8v1.133ZM-.964-7.167l-2.58,1.6A20.243,20.243,0,0,1-.168-1.033L2.687-3.216A19.454,19.454,0,0,0-.607-7.167H4.965v4.946c0,.663-.165.8-1.071.8A26.519,26.519,0,0,1,.848-1.7a10.286,10.286,0,0,1,.824,3.481c.824.055,1.784.083,2.306.083,3.4,0,4.447-.691,4.447-2.9V-7.167A18.2,18.2,0,0,1,11.169-7v-3.537a16.2,16.2,0,0,1-2.745.138v-1.934a27.005,27.005,0,0,1,2.855.138V-15.65a29.544,29.544,0,0,1-3.212.138H4.828v-2.183H7.436a28.3,28.3,0,0,1,2.992.138v-3.537a22.565,22.565,0,0,1-2.992.166H4.828v-.746a10.363,10.363,0,0,1,.165-1.989H1.232a14.442,14.442,0,0,1,.137,1.989v.746H-.58a21.677,21.677,0,0,1-2.937-.166v3.537A27.541,27.541,0,0,1-.58-17.694H1.369v2.183H-1.293c-1.071,0-1.812-.028-2.718-.083v-2.874a10.941,10.941,0,0,1-2.223.138V-21.4A14.254,14.254,0,0,1-6.07-23.69H-9.8A15.01,15.01,0,0,1-9.638-21.4v3.067h-.988c.055-.774.055-1.022.082-1.382a11.518,11.518,0,0,1,.082-1.354L-13.4-21.4a6.731,6.731,0,0,1,.055,1.05,25.951,25.951,0,0,1-1.208,7.93,10.007,10.007,0,0,1,2.663,1.437,23.681,23.681,0,0,0,.906-4.034h1.345v5.443a32.923,32.923,0,0,1-4.529,1.078l.686,3.758a13.03,13.03,0,0,1,1.674-.608c.659-.193,1.208-.387,2.169-.718V-1.2A27.217,27.217,0,0,1-9.8,2.144H-6.07A29.859,29.859,0,0,1-6.234-1.2V-7.306c.824-.332.824-.332,1.867-.8V-7a15.967,15.967,0,0,1,2.69-.166Zm-5.27-7.847h.3c.412,0,.906.028,1.427.055V-12.2a23.987,23.987,0,0,1,3.239-.138H4.965V-10.4H-1.211a24.1,24.1,0,0,1-2.855-.111l-.027-1.078c-.933.359-1.043.414-2.141.829ZM30.22-10.428A42.657,42.657,0,0,0,39.388-16.7a4.919,4.919,0,0,1,.494-.387l-2.745-2.9a23.111,23.111,0,0,1-6.917,5.471v-5.416a27.558,27.558,0,0,1,.165-3.481H26.349a28.478,28.478,0,0,1,.165,3.481V-1.779c0,2.708.851,3.233,5.3,3.233,4.419,0,5.984-.276,6.89-1.271.851-.939,1.208-2.57,1.4-6.576a15.952,15.952,0,0,1-3.486-1.216c-.082,3.233-.275,4.476-.714,5.084-.3.414-1.263.58-3.321.58-1.867,0-2.361-.166-2.361-.829ZM18.581-1.614c0,1.326-.055,2.431-.165,3.647h3.953c-.11-1.16-.165-2.459-.165-3.62V-16.617A47.433,47.433,0,0,0,24.1-21.231c.22-.58.275-.746.576-1.547l-3.761-1.078a19.954,19.954,0,0,1-2.745,6.769,19.588,19.588,0,0,1-3.623,4.559A21.4,21.4,0,0,1,16.11-8.466a25.207,25.207,0,0,0,2.525-3.095c-.055,1.989-.055,2.293-.055,2.984ZM46.47-3.879c.824-.083,1.922-.138,3.212-.138H54.76v1.989H47.568a31.869,31.869,0,0,1-3.212-.138V1.37A29.373,29.373,0,0,1,47.843,1.2H65.575a30.926,30.926,0,0,1,3.569.166V-2.166a31.109,31.109,0,0,1-3.267.138H58.384V-4.018h5.38a32.694,32.694,0,0,1,3.267.138V-7.416a31.168,31.168,0,0,1-3.321.138H58.384v-.8a6.411,6.411,0,0,1,.137-1.6H56.187c-.027-.635-.027-1.243-.027-2.238V-14.1a19.989,19.989,0,0,1,2.525.111v-3.426a17.877,17.877,0,0,1-2.525.111v-2.431a19.5,19.5,0,0,1,2.114.111v-3.4a17.236,17.236,0,0,1-3.074.166H47.87a23.312,23.312,0,0,1-3.02-.166v3.4a18.386,18.386,0,0,1,2.525-.111c-.027.635-.027.635-.027,1.464v.967h-.357a19.052,19.052,0,0,1-2.718-.138v3.481a17.659,17.659,0,0,1,2.608-.138h.165a6.621,6.621,0,0,1-2.965,4.338,9.421,9.421,0,0,1,2.388,2.4ZM52.756-14.1v2.21a27.3,27.3,0,0,1-.165,3.205h2.141c0,.387.027.442.027.635v.774H49.243c-1.071,0-1.62-.028-2.388-.083a10.007,10.007,0,0,0,2.471-2.818A11.168,11.168,0,0,0,50.588-14.1Zm-1.949-5.637h1.949v2.431H50.807ZM63-20.292a13.291,13.291,0,0,1,.11-1.962H59.427c.055.608.11,1.271.11,2.183v6.742c0,.857-.055,1.52-.11,2.1h2.361a9.333,9.333,0,0,1,.631,2.735c1.235.028,1.263.028,1.565.028A9.036,9.036,0,0,0,67.2-8.825c.961-.442,1.318-1.16,1.318-2.818V-21.01a14.553,14.553,0,0,1,.137-2.514H64.807a16.478,16.478,0,0,1,.137,2.238v9.063c0,.58-.082.608-1.153.608a4.43,4.43,0,0,1-.494-.028h-.275C63-12.141,63-12.528,63-13.053Z" transform="translate(658.856 781.856)" fill="#fff"/>
  </g>
</svg>
